SplineFontDB: 3.0
FontName: Laksaman-Italic
FullName: Laksaman Italic
FamilyName: Laksaman
Weight: Book
Copyright: Laksaman, based on TH Sarabun New.\n\nCopyright (c) 2014 Theppitak Karoonboonyanan.\n\nTH Sarabun New:\n\nCopyright (c) 2010-2011 by Software Industry Promotion Agency (Public Organization) (SIPA). All rights reserved.\nCreated by : Suppakit CHALERMLARP.
Version: 3.0: 2014-04-30
ItalicAngle: -12
UnderlinePosition: -20
UnderlineWidth: 30
Ascent: 800
Descent: 200
LayerCount: 2
Layer: 0 1 "Back"  1
Layer: 1 1 "Fore"  0
XUID: [1021 373 914837695 4926798]
FSType: 0
OS2Version: 3
OS2_WeightWidthSlopeOnly: 0
OS2_UseTypoMetrics: 1
CreationTime: 1308745587
ModificationTime: 1398924740
PfmFamily: 33
TTFWeight: 400
TTFWidth: 5
LineGap: 30
VLineGap: 0
Panose: 2 11 5 0 4 2 0 2 0 3
OS2TypoAscent: 1279
OS2TypoAOffset: 0
OS2TypoDescent: -376
OS2TypoDOffset: 0
OS2TypoLinegap: 60
OS2WinAscent: 1270
OS2WinAOffset: 0
OS2WinDescent: 687
OS2WinDOffset: 0
HheadAscent: 1270
HheadAOffset: 0
HheadDescent: -687
HheadDOffset: 0
OS2SubXSize: 700
OS2SubYSize: 650
OS2SubXOff: 0
OS2SubYOff: 140
OS2SupXSize: 700
OS2SupYSize: 650
OS2SupXOff: 0
OS2SupYOff: 477
OS2StrikeYSize: 30
OS2StrikeYPos: 250
OS2FamilyClass: 2053
OS2Vendor: 'psk '
OS2CodePages: 60010183.80000000
OS2UnicodeRanges: a100006f.5000205a.00000000.00000000
Lookup: 4 0 0 "'frac' Diagonal Fractions in Latin lookup 0"  {"'frac' Diagonal Fractions in Latin lookup 0 subtable"  } ['frac' ('latn' <'dflt' > ) ]
Lookup: 4 0 1 "'rlig' Required Ligatures in Latin lookup 1"  {"'rlig' Required Ligatures in Latin lookup 1 subtable"  } ['rlig' ('latn' <'dflt' > ) ]
Lookup: 4 0 1 "'rlig' Required Ligatures in Latin lookup 2"  {"'rlig' Required Ligatures in Latin lookup 2 subtable"  } ['rlig' ('latn' <'dflt' > ) ]
Lookup: 6 0 0 "'rlig' Required Ligatures in Latin lookup 3"  {"'rlig' Required Ligatures in Latin lookup 3 subtable"  } ['rlig' ('latn' <'dflt' > ) ]

StartChar: .notdef
Encoding: 65536 -1 0
Width: 1040
VWidth: 1504
Flags: W
LayerCount: 2
Fore
SplineSet
966 0 m 1,0,-1
 75 0 l 1,1,-1
 75 1217 l 1,2,-1
 966 1217 l 1,3,-1
 966 0 l 1,0,-1
921 42 m 1,4,-1
 921 1175 l 1,5,-1
 120 1175 l 1,6,-1
 120 42 l 1,7,-1
 921 42 l 1,4,-1
EndSplineSet
EndChar

StartChar: exclam
Encoding: 33 33 2
Width: 221
VWidth: 1504
Flags: W
LayerCount: 2
Fore
SplineSet
105 181 m 1,0,-1
 57 181 l 1,1,-1
 159 714 l 1,2,-1
 230 714 l 1,3,-1
 105 181 l 1,0,-1
104 42 m 256,4,5
 99 21 99 21 80.5 6 c 128,-1,6
 62 -9 62 -9 41 -9 c 256,7,8
 20 -9 20 -9 8.5 6 c 128,-1,9
 -3 21 -3 21 0 42 c 0,10,11
 5 63 5 63 23.5 79 c 128,-1,12
 42 95 42 95 63 95 c 256,13,14
 84 95 84 95 96.5 79 c 128,-1,15
 109 63 109 63 104 42 c 256,4,5
EndSplineSet
EndChar

StartChar: quotedbl
Encoding: 34 34 3
Width: 312
VWidth: 1504
Flags: W
LayerCount: 2
Fore
SplineSet
284 508 m 1,0,-1
 244 508 l 1,1,-1
 281 751 l 1,2,-1
 352 751 l 1,3,-1
 284 508 l 1,0,-1
153 508 m 1,4,-1
 113 508 l 1,5,-1
 150 751 l 1,6,-1
 221 751 l 1,7,-1
 153 508 l 1,4,-1
EndSplineSet
EndChar

StartChar: numbersign
Encoding: 35 35 4
Width: 606
VWidth: 1504
Flags: W
LayerCount: 2
Fore
SplineSet
525 224 m 1,0,-1
 417 224 l 1,1,-1
 341 0 l 1,2,-1
 289 0 l 1,3,-1
 364 224 l 1,4,-1
 171 224 l 1,5,-1
 98 0 l 1,6,-1
 45 0 l 1,7,-1
 119 224 l 1,8,-1
 23 224 l 1,9,-1
 33 271 l 1,10,-1
 135 271 l 1,11,-1
 194 450 l 1,12,-1
 92 450 l 1,13,-1
 102 498 l 1,14,-1
 211 498 l 1,15,-1
 284 714 l 1,16,-1
 334 714 l 1,17,-1
 262 498 l 1,18,-1
 456 498 l 1,19,-1
 526 714 l 1,20,-1
 579 714 l 1,21,-1
 507 498 l 1,22,-1
 605 498 l 1,23,-1
 594 450 l 1,24,-1
 490 450 l 1,25,-1
 432 271 l 1,26,-1
 535 271 l 1,27,-1
 525 224 l 1,0,-1
381 271 m 1,28,-1
 439 450 l 1,29,-1
 245 450 l 1,30,-1
 188 271 l 1,31,-1
 381 271 l 1,28,-1
EndSplineSet
EndChar

StartChar: dollar
Encoding: 36 36 5
Width: 543
VWidth: 1504
Flags: W
LayerCount: 2
Fore
SplineSet
441 200 m 0,0,1
 427 140 427 140 376 92 c 0,2,3
 319 39 319 39 235 24 c 1,4,-1
 211 -87 l 1,5,-1
 158 -87 l 1,6,-1
 182 24 l 1,7,8
 86 24 86 24 29 77 c 1,9,-1
 66 123 l 1,10,11
 116 72 116 72 206 72 c 0,12,13
 274 72 274 72 323 107.5 c 128,-1,14
 372 143 372 143 382 197 c 1,15,16
 402 284 402 284 281 340 c 0,17,18
 116 415 116 415 140 526 c 0,19,20
 154 591 154 591 207 636 c 128,-1,21
 260 681 260 681 335 692 c 1,22,-1
 360 806 l 1,23,-1
 411 806 l 1,24,-1
 387 692 l 1,25,26
 461 687 461 687 516 648 c 1,27,-1
 478 600 l 1,28,29
 436 644 436 644 352 644 c 0,30,31
 286 644 286 644 242 606 c 0,32,33
 206 576 206 576 197 534 c 0,34,35
 188 489 188 489 213 459.5 c 128,-1,36
 238 430 238 430 308 396 c 0,37,38
 389 357 389 357 420 319 c 0,39,40
 456 271 456 271 441 200 c 0,0,1
EndSplineSet
EndChar

StartChar: percent
Encoding: 37 37 6
Width: 879
VWidth: 1504
Flags: W
LayerCount: 2
Fore
SplineSet
769 716 m 1,0,-1
 177 -14 l 1,1,-1
 126 -14 l 1,2,-1
 718 716 l 1,3,-1
 769 716 l 1,0,-1
414 502 m 0,4,5
 369 288 369 288 208 289 c 256,6,7
 47 289 47 289 92 502 c 0,8,9
 139 716 139 716 299 716 c 256,10,11
 461 716 461 716 414 502 c 0,4,5
360 502 m 0,12,13
 396 667 396 667 289 668 c 256,14,15
 182 668 182 668 146 502 c 0,16,17
 111 337 111 337 218 337 c 256,18,19
 325 337 325 337 360 502 c 0,12,13
806 209 m 256,20,21
 761 -5 761 -5 600 -5 c 256,22,23
 439 -5 439 -5 484 209 c 256,24,25
 529 423 529 423 690 423 c 256,26,27
 851 423 851 423 806 209 c 256,20,21
752 209 m 256,28,29
 787 374 787 374 680 375 c 256,30,31
 573 375 573 375 539 209 c 256,32,33
 504 44 504 44 611 44 c 256,34,35
 717 44 717 44 752 209 c 256,28,29
EndSplineSet
EndChar

StartChar: ampersand
Encoding: 38 38 7
Width: 636
VWidth: 1504
Flags: W
LayerCount: 2
Fore
SplineSet
638 385 m 1,0,1
 561 194 561 194 481 120 c 1,2,3
 525 63 525 63 582 0 c 1,4,-1
 507 0 l 1,5,6
 483 27 483 27 439 80 c 1,7,8
 308 -13 308 -13 177 -14 c 0,9,10
 87 -14 87 -14 36.5 45.5 c 128,-1,11
 -14 105 -14 105 5 193 c 0,12,13
 35 336 35 336 203 411 c 1,14,15
 156 497 156 497 170 564 c 0,16,17
 185 636 185 636 244.5 689 c 128,-1,18
 304 742 304 742 385 742 c 0,19,20
 451 742 451 742 485 700.5 c 128,-1,21
 519 659 519 659 504 594 c 0,22,23
 478 474 478 474 278 391 c 1,24,25
 344 295 344 295 453 152 c 1,26,27
 519 221 519 221 582 385 c 1,28,-1
 638 385 l 1,0,1
451 588 m 0,29,30
 460 632 460 632 442 662 c 0,31,32
 421 697 421 697 370 696 c 0,33,34
 317 696 317 696 277.5 658.5 c 128,-1,35
 238 621 238 621 227 570 c 0,36,37
 215 511 215 511 260 429 c 1,38,39
 433 504 433 504 451 588 c 0,29,30
412 116 m 1,40,41
 304 253 304 253 224 373 c 1,42,43
 86 307 86 307 63 200 c 0,44,45
 46 126 46 126 86 80.5 c 128,-1,46
 126 35 126 35 200 35 c 0,47,48
 313 35 313 35 412 116 c 1,40,41
EndSplineSet
EndChar

StartChar: quotesingle
Encoding: 39 39 8
Width: 180
VWidth: 1504
Flags: W
LayerCount: 2
Fore
SplineSet
153 508 m 1,0,-1
 113 508 l 1,1,-1
 150 751 l 1,2,-1
 220 751 l 1,3,-1
 153 508 l 1,0,-1
EndSplineSet
EndChar

StartChar: parenleft
Encoding: 40 40 9
Width: 285
VWidth: 1504
Flags: W
LayerCount: 2
Fore
SplineSet
170 -87 m 1,0,-1
 113 -87 l 1,1,2
 -13 95 -13 95 39 352 c 1,3,4
 92 596 92 596 301 800 c 1,5,-1
 361 800 l 1,6,7
 150 607 150 607 96 352 c 0,8,9
 45 113 45 113 170 -87 c 1,0,-1
EndSplineSet
EndChar

StartChar: parenright
Encoding: 41 41 10
Width: 285
VWidth: 1504
Flags: W
LayerCount: 2
Fore
SplineSet
265 356 m 0,0,1
 212 106 212 106 3 -87 c 1,2,-1
 -53 -87 l 1,3,4
 158 122 158 122 208 356 c 0,5,6
 258 594 258 594 135 800 c 1,7,-1
 193 800 l 1,8,9
 319 612 319 612 265 356 c 0,0,1
EndSplineSet
EndChar

StartChar: asterisk
Encoding: 42 42 11
Width: 428
VWidth: 1504
Flags: W
LayerCount: 2
Fore
SplineSet
450 535 m 1,0,-1
 298 549 l 1,1,-1
 367 420 l 1,2,-1
 310 388 l 1,3,-1
 262 537 l 1,4,-1
 152 388 l 1,5,-1
 110 420 l 1,6,-1
 233 549 l 1,7,-1
 75 535 l 1,8,-1
 87 593 l 1,9,-1
 241 582 l 1,10,-1
 171 710 l 1,11,-1
 236 743 l 1,12,-1
 278 605 l 1,13,-1
 379 743 l 1,14,-1
 429 710 l 1,15,-1
 305 582 l 1,16,-1
 462 593 l 1,17,-1
 450 535 l 1,0,-1
EndSplineSet
EndChar

StartChar: plus
Encoding: 43 43 12
Width: 618
VWidth: 1504
Flags: W
LayerCount: 2
Fore
SplineSet
549 248 m 1,0,-1
 323 248 l 1,1,-1
 271 0 l 1,2,-1
 218 0 l 1,3,-1
 271 248 l 1,4,-1
 45 248 l 1,5,-1
 56 298 l 1,6,-1
 281 298 l 1,7,-1
 331 537 l 1,8,-1
 384 537 l 1,9,-1
 334 298 l 1,10,-1
 560 298 l 1,11,-1
 549 248 l 1,0,-1
EndSplineSet
EndChar

StartChar: comma
Encoding: 44 44 13
Width: 243
VWidth: 1504
Flags: W
LayerCount: 2
Fore
SplineSet
128 41 m 0,0,1
 108 -40 108 -40 48 -102 c 0,2,3
 7 -146 7 -146 -33 -164 c 1,4,-1
 -48 -141 l 1,5,6
 39 -88 39 -88 65 -11 c 1,7,8
 41 -11 41 -11 27.5 6 c 128,-1,9
 14 23 14 23 18 45 c 256,10,11
 23 68 23 68 43 85 c 128,-1,12
 63 102 63 102 86 102 c 0,13,14
 110 102 110 102 122 84.5 c 128,-1,15
 134 67 134 67 128 41 c 0,0,1
EndSplineSet
EndChar

StartChar: hyphen
Encoding: 45 45 14
AltUni2: 0000ad.ffffffff.0
Width: 324
VWidth: 1504
Flags: W
LayerCount: 2
Fore
SplineSet
269 248 m 1,0,-1
 8 248 l 1,1,-1
 29 298 l 1,2,-1
 290 298 l 1,3,-1
 269 248 l 1,0,-1
EndSplineSet
EndChar

StartChar: period
Encoding: 46 46 15
Width: 243
VWidth: 1504
Flags: W
LayerCount: 2
Fore
SplineSet
116 42 m 256,0,1
 111 21 111 21 92.5 6 c 128,-1,2
 74 -9 74 -9 53 -9 c 256,3,4
 32 -9 32 -9 20 6 c 128,-1,5
 8 21 8 21 12 42 c 256,6,7
 17 63 17 63 35.5 79 c 128,-1,8
 54 95 54 95 75 95 c 256,9,10
 96 95 96 95 108.5 79 c 128,-1,11
 121 63 121 63 116 42 c 256,0,1
EndSplineSet
EndChar

StartChar: slash
Encoding: 47 47 16
Width: 406
VWidth: 1504
Flags: W
LayerCount: 2
Fore
SplineSet
510 742 m 1,0,-1
 -44 -44 l 1,1,-1
 -101 -44 l 1,2,-1
 448 742 l 1,3,-1
 510 742 l 1,0,-1
EndSplineSet
EndChar

StartChar: zero
Encoding: 48 48 17
Width: 544
VWidth: 1504
Flags: W
LayerCount: 2
Fore
SplineSet
504 341 m 0,0,1
 477 216 477 216 408 114 c 0,2,3
 318 -17 318 -17 203 -17 c 0,4,5
 87 -17 87 -17 54 114 c 1,6,7
 27 215 27 215 54 341 c 0,8,9
 86 493 86 493 161 599 c 0,10,11
 248 721 248 721 360 721 c 256,12,13
 471 721 471 721 507 599 c 1,14,15
 536 493 536 493 504 341 c 0,0,1
444 343 m 0,16,17
 471 474 471 474 453 564 c 0,18,19
 430 669 430 669 349 669 c 0,20,21
 266 669 266 669 199 564 c 0,22,23
 143 475 143 475 114 343 c 0,24,25
 91 235 91 235 108 147 c 0,26,27
 129 34 129 34 214 35 c 0,28,29
 297 35 297 35 366 147 c 1,30,31
 421 235 421 235 444 343 c 0,16,17
EndSplineSet
EndChar

StartChar: one
Encoding: 49 49 18
Width: 544
VWidth: 1504
Flags: W
LayerCount: 2
Fore
SplineSet
367 0 m 1,0,-1
 81 0 l 1,1,-1
 92 54 l 1,2,-1
 205 54 l 1,3,-1
 326 627 l 1,4,-1
 193 529 l 1,5,-1
 168 567 l 1,6,-1
 373 719 l 1,7,8
 406 719 406 719 394 662 c 2,9,-1
 265 54 l 1,10,-1
 378 54 l 1,11,-1
 367 0 l 1,0,-1
EndSplineSet
EndChar

StartChar: two
Encoding: 50 50 19
Width: 544
VWidth: 1504
Flags: W
LayerCount: 2
Fore
SplineSet
451 59 m 1,0,-1
 427 0 l 1,1,-1
 -26 0 l 1,2,3
 -11 38 -11 38 14 86 c 1,4,5
 92 152 92 152 186 227 c 128,-1,6
 280 302 280 302 402 418 c 1,7,8
 464 483 464 483 475 542 c 256,9,10
 487 601 487 601 456.5 632 c 128,-1,11
 426 663 426 663 366 663 c 0,12,13
 231 663 231 663 184 528 c 1,14,-1
 132 543 l 1,15,16
 161 630 161 630 230 677 c 0,17,18
 293 719 293 719 379 719 c 0,19,20
 463 719 463 719 507 667 c 128,-1,21
 551 615 551 615 534 537 c 0,22,23
 510 423 510 423 293 250 c 1,24,25
 135 121 135 121 68 59 c 1,26,-1
 451 59 l 1,0,-1
EndSplineSet
EndChar

StartChar: three
Encoding: 51 51 20
Width: 544
VWidth: 1504
Flags: W
LayerCount: 2
Fore
SplineSet
480 242 m 0,0,1
 456 128 456 128 362.5 57 c 128,-1,2
 269 -14 269 -14 144 -17 c 0,3,4
 45 -20 45 -20 -5 39 c 1,5,-1
 30 86 l 1,6,7
 77 44 77 44 167 44 c 0,8,9
 254 44 254 44 328 102.5 c 128,-1,10
 402 161 402 161 418 239 c 0,11,12
 432 298 432 298 404 337 c 128,-1,13
 376 376 376 376 320 376 c 0,14,15
 255 376 255 376 212 341 c 1,16,-1
 194 390 l 1,17,18
 260 434 260 434 326 478 c 1,19,20
 427 550 427 550 436 591 c 0,21,22
 451 665 451 665 349 665 c 0,23,24
 236 665 236 665 158 552 c 1,25,-1
 120 575 l 1,26,27
 158 641 158 641 225 680 c 128,-1,28
 292 719 292 719 366 719 c 0,29,30
 429 719 429 719 467 685 c 128,-1,31
 505 651 505 651 492 593 c 0,32,33
 477 524 477 524 334 430 c 1,34,-1
 343 430 l 2,35,36
 423 430 423 430 460 376.5 c 128,-1,37
 497 323 497 323 480 242 c 0,0,1
EndSplineSet
EndChar

StartChar: four
Encoding: 52 52 21
Width: 544
VWidth: 1504
Flags: W
LayerCount: 2
Fore
SplineSet
334 223 m 1,0,-1
 426 657 l 1,1,2
 312 606 312 606 217 478 c 0,3,4
 127 356 127 356 95 223 c 1,5,-1
 334 223 l 1,0,-1
481 167 m 1,6,-1
 382 167 l 1,7,-1
 347 0 l 1,8,-1
 287 0 l 1,9,-1
 322 167 l 1,10,-1
 18 167 l 1,11,12
 69 391 69 391 200.5 546 c 128,-1,13
 332 701 332 701 502 734 c 1,14,-1
 394 223 l 1,15,-1
 501 223 l 1,16,-1
 481 167 l 1,6,-1
EndSplineSet
EndChar

StartChar: five
Encoding: 53 53 22
Width: 544
VWidth: 1504
Flags: W
LayerCount: 2
Fore
SplineSet
465 247 m 0,0,1
 441 131 441 131 347.5 59.5 c 128,-1,2
 254 -12 254 -12 131 -12 c 0,3,4
 27 -12 27 -12 -18 44 c 1,5,-1
 15 90 l 1,6,7
 33 76 33 76 56 65 c 0,8,9
 94 45 94 45 155 45 c 0,10,11
 236 45 236 45 310 97.5 c 128,-1,12
 384 150 384 150 403 245 c 0,13,14
 421 326 421 326 375 367 c 1,15,16
 337 403 337 403 265 403 c 0,17,18
 202 403 202 403 153 353 c 1,19,-1
 122 350 l 1,20,-1
 221 714 l 1,21,-1
 542 714 l 1,22,-1
 519 657 l 1,23,-1
 266 657 l 1,24,-1
 208 445 l 1,25,26
 252 460 252 460 296 460 c 0,27,28
 383 460 383 460 433 406 c 1,29,30
 486 346 486 346 465 247 c 0,0,1
EndSplineSet
EndChar

StartChar: six
Encoding: 54 54 23
Width: 544
VWidth: 1504
Flags: W
LayerCount: 2
Fore
SplineSet
465 218 m 1,0,1
 445 120 445 120 376 54 c 128,-1,2
 307 -12 307 -12 212 -12 c 0,3,4
 105 -12 105 -12 60 69 c 0,5,6
 21 141 21 141 45 251 c 0,7,8
 81 424 81 424 217 560 c 128,-1,9
 353 696 353 696 525 728 c 1,10,-1
 520 684 l 1,11,12
 413 655 413 655 314 578 c 0,13,14
 203 491 203 491 143 370 c 1,15,16
 154 393 154 393 197 418 c 0,17,18
 251 448 251 448 314 448 c 0,19,20
 403 448 403 448 444.5 380.5 c 128,-1,21
 486 313 486 313 465 218 c 1,0,1
405 218 m 0,22,23
 422 293 422 293 392.5 346 c 128,-1,24
 363 399 363 399 292 399 c 0,25,26
 227 399 227 399 170.5 346 c 128,-1,27
 114 293 114 293 98 218 c 0,28,29
 83 144 83 144 116.5 91.5 c 128,-1,30
 150 39 150 39 215 39 c 0,31,32
 287 39 287 39 338.5 91.5 c 128,-1,33
 390 144 390 144 405 218 c 0,22,23
EndSplineSet
EndChar

StartChar: seven
Encoding: 55 55 24
Width: 544
VWidth: 1504
Flags: W
LayerCount: 2
Fore
SplineSet
196 0 m 1,0,-1
 132 0 l 1,1,2
 180 227 180 227 314 435 c 0,3,4
 346 483 346 483 415 569.5 c 128,-1,5
 484 656 484 656 486 657 c 1,6,-1
 123 657 l 1,7,-1
 158 714 l 1,8,-1
 581 714 l 1,9,-1
 557 654 l 1,10,11
 428 522 428 522 334.5 368 c 128,-1,12
 241 214 241 214 196 0 c 1,0,-1
EndSplineSet
EndChar

StartChar: eight
Encoding: 56 56 25
Width: 544
VWidth: 1504
Flags: W
LayerCount: 2
Fore
SplineSet
408 188 m 0,0,1
 420 247 420 247 390.5 300 c 128,-1,2
 361 353 361 353 281 358 c 1,3,4
 200 353 200 353 148 300 c 128,-1,5
 96 247 96 247 84 188 c 0,6,7
 70 120 70 120 107 80.5 c 128,-1,8
 144 41 144 41 215 41 c 0,9,10
 284 41 284 41 339 80.5 c 128,-1,11
 394 120 394 120 408 188 c 0,0,1
460 543 m 0,12,13
 472 596 472 596 441.5 630.5 c 128,-1,14
 411 665 411 665 347 665 c 0,15,16
 282 665 282 665 238 630.5 c 128,-1,17
 194 596 194 596 182 543 c 0,18,19
 162 450 162 450 293 415 c 1,20,21
 440 450 440 450 460 543 c 0,12,13
469 193 m 0,22,23
 448 97 448 97 376.5 42.5 c 128,-1,24
 305 -12 305 -12 203 -12 c 0,25,26
 102 -12 102 -12 53.5 42 c 128,-1,27
 5 96 5 96 26 193 c 0,28,29
 41 267 41 267 95 320 c 128,-1,30
 149 373 149 373 218 387 c 1,31,32
 165 404 165 404 138 446.5 c 128,-1,33
 111 489 111 489 122 539 c 0,34,35
 139 619 139 619 205 670 c 128,-1,36
 271 721 271 721 360 721 c 0,37,38
 447 721 447 721 492 669.5 c 128,-1,39
 537 618 537 618 520 539 c 0,40,41
 509 489 509 489 463 446 c 128,-1,42
 417 403 417 403 358 387 c 1,43,44
 421 373 421 373 452.5 320 c 128,-1,45
 484 267 484 267 469 193 c 0,22,23
EndSplineSet
EndChar

StartChar: nine
Encoding: 57 57 26
Width: 544
VWidth: 1504
Flags: W
LayerCount: 2
Fore
SplineSet
516 459 m 0,0,1
 480 286 480 286 344 150 c 128,-1,2
 208 14 208 14 36 -18 c 1,3,-1
 41 26 l 1,4,5
 148 55 148 55 247 132 c 0,6,7
 360 219 360 219 420 340 c 1,8,9
 408 317 408 317 366 292 c 1,10,11
 310 262 310 262 247 262 c 0,12,13
 158 262 158 262 117.5 329.5 c 128,-1,14
 77 397 77 397 96 492 c 0,15,16
 117 590 117 590 186.5 656 c 128,-1,17
 256 722 256 722 350 722 c 0,18,19
 457 722 457 722 501 641 c 0,20,21
 540 569 540 569 516 459 c 0,0,1
463 492 m 0,22,23
 478 566 478 566 444.5 618.5 c 128,-1,24
 411 671 411 671 346 671 c 0,25,26
 274 671 274 671 222.5 618.5 c 128,-1,27
 171 566 171 566 156 492 c 0,28,29
 139 417 139 417 169 364 c 128,-1,30
 199 311 199 311 269 311 c 0,31,32
 334 311 334 311 390 364 c 128,-1,33
 446 417 446 417 463 492 c 0,22,23
EndSplineSet
EndChar

StartChar: colon
Encoding: 58 58 27
Width: 243
VWidth: 1504
Flags: W
LayerCount: 2
Fore
SplineSet
116 42 m 256,0,1
 111 21 111 21 92.5 6 c 128,-1,2
 74 -9 74 -9 53 -9 c 256,3,4
 32 -9 32 -9 20 6 c 128,-1,5
 8 21 8 21 12 42 c 256,6,7
 17 63 17 63 35.5 79 c 128,-1,8
 54 95 54 95 75 95 c 256,9,10
 96 95 96 95 108.5 79 c 128,-1,11
 121 63 121 63 116 42 c 256,0,1
199 426 m 256,12,13
 194 405 194 405 174.5 390 c 128,-1,14
 155 375 155 375 134 375 c 256,15,16
 113 375 113 375 101.5 390 c 128,-1,17
 90 405 90 405 95 426 c 256,18,19
 100 447 100 447 117.5 462.5 c 128,-1,20
 135 478 135 478 156 478 c 256,21,22
 177 478 177 478 190.5 462.5 c 128,-1,23
 204 447 204 447 199 426 c 256,12,13
EndSplineSet
EndChar

StartChar: semicolon
Encoding: 59 59 28
Width: 243
VWidth: 1504
Flags: W
LayerCount: 2
Fore
SplineSet
128 41 m 0,0,1
 108 -40 108 -40 48 -102 c 0,2,3
 7 -146 7 -146 -33 -164 c 1,4,-1
 -48 -141 l 1,5,6
 39 -88 39 -88 65 -11 c 1,7,8
 41 -11 41 -11 27.5 6 c 128,-1,9
 14 23 14 23 18 45 c 256,10,11
 23 68 23 68 43 85 c 128,-1,12
 63 102 63 102 86 102 c 0,13,14
 110 102 110 102 122 84.5 c 128,-1,15
 134 67 134 67 128 41 c 0,0,1
199 426 m 256,16,17
 194 405 194 405 174.5 390 c 128,-1,18
 155 375 155 375 134 375 c 256,19,20
 113 375 113 375 101.5 390 c 128,-1,21
 90 405 90 405 95 426 c 256,22,23
 100 447 100 447 117.5 462.5 c 128,-1,24
 135 478 135 478 156 478 c 256,25,26
 177 478 177 478 190.5 462.5 c 128,-1,27
 204 447 204 447 199 426 c 256,16,17
EndSplineSet
EndChar

StartChar: less
Encoding: 60 60 29
Width: 618
VWidth: 1504
Flags: W
LayerCount: 2
Fore
SplineSet
496 54 m 1,0,-1
 484 -3 l 1,1,-1
 56 262 l 1,2,-1
 65 302 l 1,3,-1
 606 567 l 1,4,-1
 594 511 l 1,5,-1
 120 281 l 1,6,-1
 496 54 l 1,0,-1
EndSplineSet
EndChar

StartChar: equal
Encoding: 61 61 30
Width: 618
VWidth: 1504
Flags: W
LayerCount: 2
Fore
SplineSet
555 399 m 1,0,-1
 545 349 l 1,1,-1
 92 349 l 1,2,-1
 102 399 l 1,3,-1
 555 399 l 1,0,-1
513 203 m 1,4,-1
 502 153 l 1,5,-1
 50 153 l 1,6,-1
 60 203 l 1,7,-1
 513 203 l 1,4,-1
EndSplineSet
EndChar

StartChar: greater
Encoding: 62 62 31
Width: 618
VWidth: 1504
Flags: W
LayerCount: 2
Fore
SplineSet
549 302 m 1,0,-1
 540 262 l 1,1,-1
 0 -3 l 1,2,-1
 12 54 l 1,3,-1
 484 283 l 1,4,-1
 110 511 l 1,5,-1
 122 567 l 1,6,-1
 549 302 l 1,0,-1
EndSplineSet
EndChar

StartChar: question
Encoding: 63 63 32
Width: 425
VWidth: 1504
Flags: W
LayerCount: 2
Fore
SplineSet
182 185 m 1,0,-1
 131 185 l 1,1,2
 128 208 128 208 134 238 c 0,3,4
 151 318 151 318 252 409.5 c 128,-1,5
 353 501 353 501 367 566 c 0,6,7
 391 674 391 674 268 674 c 0,8,9
 197 674 197 674 138 635 c 1,10,-1
 126 680 l 1,11,12
 207 727 207 727 289 727 c 0,13,14
 375 727 375 727 409 677 c 0,15,16
 441 633 441 633 427 569 c 0,17,18
 410 489 410 489 293 388 c 0,19,20
 203 310 203 310 187 233 c 0,21,22
 182 206 182 206 182 185 c 1,0,-1
174 42 m 256,23,24
 169 21 169 21 150.5 6 c 128,-1,25
 132 -9 132 -9 111 -9 c 256,26,27
 90 -9 90 -9 78 6 c 128,-1,28
 66 21 66 21 71 42 c 256,29,30
 76 63 76 63 94.5 79 c 128,-1,31
 113 95 113 95 134 95 c 256,32,33
 155 95 155 95 167 79 c 128,-1,34
 179 63 179 63 174 42 c 256,23,24
EndSplineSet
EndChar

StartChar: at
Encoding: 64 64 33
Width: 806
VWidth: 1504
Flags: W
LayerCount: 2
Fore
SplineSet
758 265 m 0,0,1
 735 163 735 163 657 90.5 c 128,-1,2
 579 18 579 18 504 14 c 2,3,-1
 457 11 l 1,4,-1
 457 78 l 1,5,6
 380 1 380 1 281 2 c 0,7,8
 263 2 263 2 253 3 c 0,9,10
 206 11 206 11 179.5 45.5 c 128,-1,11
 153 80 153 80 162 125 c 0,12,13
 198 293 198 293 499 293 c 1,14,-1
 501 301 l 2,15,16
 528 429 528 429 406 429 c 0,17,18
 340 429 340 429 286 393 c 1,19,-1
 277 430 l 1,20,21
 345 474 345 474 418 474 c 0,22,23
 589 474 589 474 549 283 c 2,24,-1
 516 122 l 2,25,26
 508 89 508 89 508 60 c 1,27,28
 567 63 567 63 628 122 c 128,-1,29
 689 181 689 181 705 260 c 0,30,31
 732 385 732 385 671.5 467 c 128,-1,32
 611 549 611 549 477 549 c 0,33,34
 336 549 336 549 223 456 c 0,35,36
 103 357 103 357 69 200 c 0,37,38
 40 71 40 71 105 -14 c 128,-1,39
 170 -99 170 -99 292 -99 c 0,40,41
 396 -99 396 -99 478 -54 c 1,42,-1
 490 -98 l 1,43,44
 389 -146 389 -146 278 -146 c 0,45,46
 137 -146 137 -146 58.5 -49.5 c 128,-1,47
 -20 47 -20 47 11 196 c 0,48,49
 46 360 46 360 174 472 c 0,50,51
 311 592 311 592 493 593 c 0,52,53
 643 593 643 593 715.5 499.5 c 128,-1,54
 788 406 788 406 758 265 c 0,0,1
471 158 m 2,55,-1
 490 250 l 1,56,57
 243 247 243 247 220 134 c 0,58,59
 202 44 202 44 293 44 c 0,60,61
 401 44 401 44 463 138 c 0,62,63
 468 144 468 144 471 158 c 2,55,-1
EndSplineSet
EndChar

StartChar: A
Encoding: 65 65 34
Width: 601
VWidth: 1504
Flags: W
LayerCount: 2
Fore
SplineSet
537 0 m 1,0,-1
 472 0 l 1,1,-1
 438 230 l 1,2,-1
 129 230 l 1,3,-1
 0 0 l 1,4,-1
 -65 0 l 1,5,-1
 360 727 l 1,6,-1
 420 727 l 1,7,-1
 537 0 l 1,0,-1
430 280 m 1,8,-1
 376 662 l 1,9,-1
 158 280 l 1,10,-1
 430 280 l 1,8,-1
EndSplineSet
EndChar

StartChar: B
Encoding: 66 66 35
Width: 568
VWidth: 1504
Flags: W
LayerCount: 2
Fore
SplineSet
498 200 m 0,0,1
 453 -9 453 -9 150 -9 c 0,2,3
 84 -9 84 -9 17 6 c 1,4,-1
 165 705 l 1,5,6
 245 725 245 725 320 725 c 0,7,8
 580 725 580 725 542 545 c 0,9,10
 531 491 531 491 489 446.5 c 128,-1,11
 447 402 447 402 388 382 c 1,12,13
 441 368 441 368 477 321 c 128,-1,14
 513 274 513 274 498 200 c 0,0,1
483 543 m 0,15,16
 512 675 512 675 310 675 c 0,17,18
 263 675 263 675 215 665 c 1,19,-1
 159 403 l 1,20,-1
 281 403 l 2,21,22
 361 403 361 403 418 445 c 0,23,24
 471 484 471 484 483 543 c 0,15,16
441 199 m 0,25,26
 458 279 458 279 403.5 317 c 128,-1,27
 349 355 349 355 254 355 c 2,28,-1
 150 355 l 1,29,-1
 84 48 l 1,30,31
 123 39 123 39 173 39 c 0,32,33
 269 39 269 39 338 74 c 0,34,35
 423 116 423 116 441 199 c 0,25,26
EndSplineSet
EndChar

StartChar: C
Encoding: 67 67 36
Width: 610
VWidth: 1504
Flags: W
LayerCount: 2
Fore
SplineSet
502 75 m 1,0,-1
 510 27 l 1,1,2
 423 -11 423 -11 307 -11 c 0,3,4
 161 -11 161 -11 86.5 94 c 128,-1,5
 12 199 12 199 45 360 c 0,6,7
 80 521 80 521 198.5 624 c 128,-1,8
 317 727 317 727 463 727 c 0,9,10
 579 727 579 727 651 689 c 1,11,-1
 623 641 l 1,12,13
 549 676 549 676 456 675 c 0,14,15
 340 675 340 675 241 590 c 0,16,17
 136 500 136 500 105 358 c 256,18,19
 75 217 75 217 141 126 c 0,20,21
 204 40 204 40 320 41 c 0,22,23
 413 40 413 40 502 75 c 1,0,-1
EndSplineSet
EndChar

StartChar: D
Encoding: 68 68 37
Width: 648
VWidth: 1504
Flags: W
LayerCount: 2
Fore
SplineSet
618 373 m 0,0,1
 538 -6 538 -6 199 -6 c 0,2,3
 154 -6 154 -6 18 8 c 1,4,-1
 165 705 l 1,5,6
 308 723 308 723 384 724 c 0,7,8
 521 724 521 724 587 632 c 1,9,10
 653 535 653 535 618 373 c 0,0,1
560 373 m 0,11,12
 590 516 590 516 532 597 c 0,13,14
 479 672 479 672 369 672 c 0,15,16
 322 672 322 672 215 660 c 1,17,-1
 86 54 l 1,18,19
 160 45 160 45 227 45 c 0,20,21
 349 45 349 45 438 131.5 c 128,-1,22
 527 218 527 218 560 373 c 0,11,12
EndSplineSet
EndChar

StartChar: E
Encoding: 69 69 38
Width: 527
VWidth: 1504
Flags: W
LayerCount: 2
Fore
SplineSet
406 0 m 1,0,-1
 17 0 l 1,1,-1
 168 716 l 1,2,-1
 558 716 l 1,3,-1
 548 666 l 1,4,-1
 217 666 l 1,5,-1
 159 403 l 1,6,-1
 454 403 l 1,7,-1
 444 353 l 1,8,-1
 149 353 l 1,9,-1
 86 50 l 1,10,-1
 417 50 l 1,11,-1
 406 0 l 1,0,-1
EndSplineSet
EndChar

StartChar: F
Encoding: 70 70 39
Width: 527
VWidth: 1504
Flags: W
LayerCount: 2
Fore
SplineSet
471 344 m 1,0,-1
 147 344 l 1,1,-1
 75 0 l 1,2,-1
 17 0 l 1,3,-1
 168 716 l 1,4,-1
 573 716 l 1,5,-1
 563 666 l 1,6,-1
 217 666 l 1,7,-1
 158 394 l 1,8,-1
 481 394 l 1,9,-1
 471 344 l 1,0,-1
EndSplineSet
EndChar

StartChar: G
Encoding: 71 71 40
Width: 639
VWidth: 1504
Flags: W
LayerCount: 2
Fore
SplineSet
587 358 m 1,0,-1
 514 15 l 1,1,2
 503 24 503 24 484 24 c 1,3,4
 391.5 8 l 0,5,6
 299 -8 299 -8 269 -8 c 0,7,8
 132 -8 132 -8 71.5 92.5 c 128,-1,9
 11 193 11 193 45 360 c 1,10,11
 80 519 80 519 187 618 c 0,12,13
 298 723 298 723 451 724 c 0,14,15
 561 724 561 724 636 687 c 1,16,-1
 608 639 l 1,17,18
 525 674 525 674 438 674 c 0,19,20
 325 674 325 674 230 585 c 128,-1,21
 135 496 135 496 105 358 c 0,22,23
 73 211 73 211 120.5 126 c 128,-1,24
 168 41 168 41 289 41 c 0,25,26
 384 41 384 41 471 78 c 1,27,-1
 519 310 l 1,28,-1
 337 310 l 1,29,-1
 347 358 l 1,30,-1
 587 358 l 1,0,-1
EndSplineSet
EndChar

StartChar: H
Encoding: 72 72 41
Width: 663
VWidth: 1504
Flags: W
LayerCount: 2
Fore
SplineSet
517 0 m 1,0,-1
 459 0 l 1,1,-1
 534 356 l 1,2,-1
 150 356 l 1,3,-1
 75 0 l 1,4,-1
 17 0 l 1,5,-1
 168 716 l 1,6,-1
 227 716 l 1,7,-1
 161 406 l 1,8,-1
 545 406 l 1,9,-1
 611 716 l 1,10,-1
 669 716 l 1,11,-1
 517 0 l 1,0,-1
EndSplineSet
EndChar

StartChar: I
Encoding: 73 73 42
Width: 221
VWidth: 1504
Flags: W
LayerCount: 2
Fore
SplineSet
75 0 m 1,0,-1
 17 0 l 1,1,-1
 168 716 l 1,2,-1
 227 716 l 1,3,-1
 75 0 l 1,0,-1
EndSplineSet
EndChar

StartChar: J
Encoding: 74 74 43
Width: 397
VWidth: 1504
Flags: W
LayerCount: 2
Fore
SplineSet
301 235 m 2,0,1
 248 -13 248 -13 38 -14 c 0,2,3
 -19 -14 -19 -14 -63 9 c 1,4,-1
 -39 56 l 1,5,6
 -7 38 -7 38 48 38 c 0,7,8
 126 38 126 38 173 83.5 c 128,-1,9
 220 129 220 129 245 250 c 2,10,-1
 344 716 l 1,11,-1
 403 716 l 1,12,-1
 301 235 l 2,0,1
EndSplineSet
EndChar

StartChar: K
Encoding: 75 75 44
Width: 565
VWidth: 1504
Flags: W
LayerCount: 2
Fore
SplineSet
523 14 m 1,0,-1
 466 -8 l 1,1,-1
 230 373 l 1,2,-1
 137 296 l 1,3,-1
 75 0 l 1,4,-1
 17 0 l 1,5,-1
 168 716 l 1,6,-1
 227 716 l 1,7,-1
 153 372 l 1,8,-1
 585 725 l 1,9,-1
 641 708 l 1,10,-1
 280 411 l 1,11,-1
 523 14 l 1,0,-1
EndSplineSet
EndChar

StartChar: L
Encoding: 76 76 45
Width: 530
VWidth: 1504
Flags: W
LayerCount: 2
Fore
SplineSet
427 0 m 1,0,-1
 17 0 l 1,1,-1
 168 716 l 1,2,-1
 227 716 l 1,3,-1
 86 50 l 1,4,-1
 438 50 l 1,5,-1
 427 0 l 1,0,-1
EndSplineSet
EndChar

StartChar: M
Encoding: 77 77 46
Width: 824
VWidth: 1504
Flags: W
LayerCount: 2
Fore
SplineSet
699 0 m 1,0,-1
 644 0 l 1,1,-1
 733 632 l 1,2,-1
 367 0 l 1,3,-1
 328 0 l 1,4,-1
 230 632 l 1,5,-1
 51 0 l 1,6,-1
 -5 0 l 1,7,-1
 197 716 l 1,8,-1
 266 716 l 1,9,-1
 363 74 l 1,10,-1
 733 716 l 1,11,-1
 802 716 l 1,12,-1
 699 0 l 1,0,-1
EndSplineSet
EndChar

StartChar: N
Encoding: 78 78 47
Width: 663
VWidth: 1504
Flags: W
LayerCount: 2
Fore
SplineSet
517 0 m 1,0,-1
 456 0 l 1,1,-1
 211 633 l 1,2,-1
 77 0 l 1,3,-1
 17 0 l 1,4,-1
 168 716 l 1,5,-1
 236 716 l 1,6,-1
 478 92 l 1,7,-1
 612 716 l 1,8,-1
 669 716 l 1,9,-1
 517 0 l 1,0,-1
EndSplineSet
EndChar

StartChar: O
Encoding: 79 79 48
Width: 731
VWidth: 1504
Flags: W
LayerCount: 2
Fore
SplineSet
708 356 m 256,0,1
 673 195 673 195 558.5 90 c 128,-1,2
 444 -15 444 -15 296 -15 c 256,3,4
 149 -15 149 -15 79 90.5 c 128,-1,5
 9 196 9 196 44 356 c 256,6,7
 79 517 79 517 193 622.5 c 128,-1,8
 307 728 307 728 454 728 c 256,9,10
 601 728 601 728 672 622.5 c 128,-1,11
 743 517 743 517 708 356 c 256,0,1
650 356 m 256,12,13
 679 488 679 488 621.5 582.5 c 128,-1,14
 564 677 564 677 444 677 c 256,15,16
 324 677 324 677 227.5 583 c 128,-1,17
 131 489 131 489 102 356 c 256,18,19
 73 224 73 224 130.5 130 c 128,-1,20
 188 36 188 36 308 36 c 256,21,22
 428 36 428 36 524.5 130 c 128,-1,23
 621 224 621 224 650 356 c 256,12,13
EndSplineSet
EndChar

StartChar: P
Encoding: 80 80 49
Width: 568
VWidth: 1504
Flags: W
LayerCount: 2
Fore
SplineSet
564 517 m 0,0,1
 540 404 540 404 436 343 c 0,2,3
 347 290 347 290 230 292 c 0,4,5
 182 292 182 292 138 301 c 1,6,-1
 75 0 l 1,7,-1
 17 0 l 1,8,-1
 167 708 l 1,9,10
 260 723 260 723 343 724 c 0,11,12
 451 724 451 724 514 674 c 0,13,14
 585 616 585 616 564 517 c 0,0,1
507 513 m 256,15,16
 542 672 542 672 331 672 c 0,17,18
 256 672 256 672 215 665 c 1,19,-1
 149 352 l 1,20,21
 188 341 188 341 253 341 c 1,22,23
 472 354 472 354 507 513 c 256,15,16
EndSplineSet
EndChar

StartChar: Q
Encoding: 81 81 50
Width: 732
VWidth: 1504
Flags: W
LayerCount: 2
Fore
SplineSet
708 356 m 0,0,1
 681 227 681 227 597 129 c 0,2,3
 508 27 508 27 388 -2 c 1,4,5
 469 -40 469 -40 584 -45 c 1,6,-1
 551 -101 l 1,7,8
 410 -66 410 -66 296 -15 c 1,9,10
 149 -15 149 -15 79 90.5 c 128,-1,11
 9 196 9 196 44 356 c 256,12,13
 79 517 79 517 193 622.5 c 128,-1,14
 307 728 307 728 454 728 c 256,15,16
 601 728 601 728 672 622.5 c 128,-1,17
 743 517 743 517 708 356 c 0,0,1
650 356 m 256,18,19
 679 488 679 488 621.5 582.5 c 128,-1,20
 564 677 564 677 444 677 c 256,21,22
 324 677 324 677 227.5 583 c 128,-1,23
 131 489 131 489 102 356 c 256,24,25
 73 224 73 224 130.5 130 c 128,-1,26
 188 36 188 36 308 36 c 256,27,28
 428 36 428 36 524.5 130 c 128,-1,29
 621 224 621 224 650 356 c 256,18,19
EndSplineSet
EndChar

StartChar: R
Encoding: 82 82 51
Width: 570
VWidth: 1504
Flags: W
LayerCount: 2
Fore
SplineSet
474 0 m 1,0,-1
 417 0 l 1,1,2
 446 326 446 326 283 326 c 2,3,-1
 144 326 l 1,4,-1
 75 0 l 1,5,-1
 17 0 l 1,6,-1
 165 707 l 1,7,8
 254 724 254 724 346 724 c 0,9,10
 462 722 462 722 519 678 c 0,11,12
 587 627 587 627 567 531 c 0,13,14
 538 397 538 397 388 346 c 1,15,16
 459 302 459 302 474 184 c 0,17,18
 482 122 482 122 474 0 c 1,0,-1
508 523 m 0,19,20
 541 672 541 672 335 672 c 0,21,22
 252 672 252 672 215 662 c 1,23,-1
 153 373 l 1,24,-1
 287 373 l 2,25,26
 376 373 376 373 434.5 412.5 c 128,-1,27
 493 452 493 452 508 523 c 0,19,20
EndSplineSet
EndChar

StartChar: S
Encoding: 83 83 52
Width: 529
VWidth: 1504
Flags: W
LayerCount: 2
Fore
SplineSet
456 187 m 0,0,1
 438 106 438 106 369 51 c 1,2,3
 289 -14 289 -14 170 -14 c 0,4,5
 53 -14 53 -14 -15 41 c 1,6,-1
 18 92 l 1,7,8
 81 36 81 36 187 36 c 0,9,10
 271 36 271 36 327.5 76 c 128,-1,11
 384 116 384 116 397 182 c 0,12,13
 411 242 411 242 381.5 279 c 128,-1,14
 352 316 352 316 272 343 c 0,15,16
 85 408 85 408 114 545 c 0,17,18
 132 625 132 625 205 677.5 c 128,-1,19
 278 730 278 730 378 730 c 0,20,21
 479 730 479 730 532 692 c 1,22,23
 514 666 514 666 498 645 c 1,24,25
 441 680 441 680 366 680 c 0,26,27
 282 680 282 680 226 636 c 0,28,29
 182 600 182 600 173 552 c 1,30,31
 150 453 150 453 299 399 c 0,32,33
 395 363 395 363 432 320 c 0,34,35
 474 271 474 271 456 187 c 0,0,1
EndSplineSet
EndChar

StartChar: T
Encoding: 84 84 53
Width: 570
VWidth: 1504
Flags: W
LayerCount: 2
Fore
SplineSet
654 666 m 1,0,-1
 391 666 l 1,1,-1
 250 0 l 1,2,-1
 193 0 l 1,3,-1
 334 666 l 1,4,-1
 69 666 l 1,5,-1
 80 716 l 1,6,-1
 665 716 l 1,7,-1
 654 666 l 1,0,-1
EndSplineSet
EndChar

StartChar: U
Encoding: 85 85 54
Width: 700
VWidth: 1504
Flags: W
LayerCount: 2
Fore
SplineSet
618 302 m 1,0,1
 552 -14 552 -14 283 -14 c 256,2,3
 14 -14 14 -14 80 302 c 1,4,-1
 168 716 l 1,5,-1
 227 716 l 1,6,-1
 138 304 l 2,7,8
 108 163 108 163 153.5 99.5 c 128,-1,9
 199 36 199 36 293 36 c 0,10,11
 389 36 389 36 460 99 c 128,-1,12
 531 162 531 162 560 304 c 1,13,-1
 648 716 l 1,14,-1
 707 716 l 1,15,-1
 618 302 l 1,0,1
EndSplineSet
EndChar

StartChar: V
Encoding: 86 86 55
Width: 586
VWidth: 1504
Flags: W
LayerCount: 2
Fore
SplineSet
674 716 m 1,0,-1
 260 0 l 1,1,-1
 197 0 l 1,2,-1
 87 716 l 1,3,-1
 153 716 l 1,4,-1
 242 68 l 1,5,-1
 608 716 l 1,6,-1
 674 716 l 1,0,-1
EndSplineSet
EndChar

StartChar: W
Encoding: 87 87 56
Width: 884
VWidth: 1504
Flags: W
LayerCount: 2
Fore
SplineSet
972 716 m 1,0,-1
 603 0 l 1,1,-1
 540 0 l 1,2,-1
 514 650 l 1,3,-1
 215 0 l 1,4,-1
 152 0 l 1,5,-1
 87 716 l 1,6,-1
 153 716 l 1,7,-1
 197 68 l 1,8,-1
 496 716 l 1,9,-1
 563 716 l 1,10,-1
 585 68 l 1,11,-1
 906 716 l 1,12,-1
 972 716 l 1,0,-1
EndSplineSet
EndChar

StartChar: X
Encoding: 88 88 57
Width: 628
VWidth: 1504
Flags: W
LayerCount: 2
Fore
SplineSet
539 0 m 1,0,-1
 469 0 l 1,1,-1
 317 323 l 1,2,-1
 30 0 l 1,3,-1
 -39 0 l 1,4,-1
 292 367 l 1,5,-1
 123 716 l 1,6,-1
 194 716 l 1,7,-1
 334 403 l 1,8,-1
 609 716 l 1,9,-1
 680 716 l 1,10,-1
 361 367 l 1,11,-1
 539 0 l 1,0,-1
EndSplineSet
EndChar

StartChar: Y
Encoding: 89 89 58
Width: 550
VWidth: 1504
Flags: W
LayerCount: 2
Fore
SplineSet
638 716 m 1,0,-1
 305 316 l 1,1,-1
 239 0 l 1,2,-1
 182 0 l 1,3,-1
 248 314 l 1,4,-1
 87 716 l 1,5,-1
 155 716 l 1,6,-1
 287 366 l 1,7,-1
 570 716 l 1,8,-1
 638 716 l 1,0,-1
EndSplineSet
EndChar

StartChar: Z
Encoding: 90 90 59
Width: 637
VWidth: 1504
Flags: W
LayerCount: 2
Fore
SplineSet
560 50 m 1,0,-1
 537 0 l 1,1,-1
 -32 0 l 1,2,-1
 -23 39 l 1,3,-1
 596 666 l 1,4,-1
 140 666 l 1,5,-1
 159 716 l 1,6,-1
 681 716 l 1,7,-1
 672 675 l 1,8,-1
 56 50 l 1,9,-1
 560 50 l 1,0,-1
EndSplineSet
EndChar

StartChar: bracketleft
Encoding: 91 91 60
Width: 294
VWidth: 1504
Flags: W
LayerCount: 2
Fore
SplineSet
197 -72 m 1,0,-1
 188 -117 l 1,1,-1
 -11 -117 l 1,2,-1
 174 761 l 1,3,-1
 375 761 l 1,4,-1
 366 716 l 1,5,-1
 218 716 l 1,6,-1
 50 -72 l 1,7,-1
 197 -72 l 1,0,-1
EndSplineSet
EndChar

StartChar: backslash
Encoding: 92 92 61
Width: 394
VWidth: 1504
Flags: W
LayerCount: 2
Fore
SplineSet
346 -42 m 1,0,-1
 286 -42 l 1,1,-1
 75 727 l 1,2,-1
 134 727 l 1,3,-1
 346 -42 l 1,0,-1
EndSplineSet
EndChar

StartChar: bracketright
Encoding: 93 93 62
Width: 294
VWidth: 1504
Flags: W
LayerCount: 2
Fore
SplineSet
128 -117 m 1,0,-1
 -72 -117 l 1,1,-1
 -63 -72 l 1,2,-1
 83 -72 l 1,3,-1
 251 716 l 1,4,-1
 104 716 l 1,5,-1
 113 761 l 1,6,-1
 314 761 l 1,7,-1
 128 -117 l 1,0,-1
EndSplineSet
EndChar

StartChar: asciicircum
Encoding: 94 94 63
Width: 619
VWidth: 1504
Flags: W
LayerCount: 2
Fore
SplineSet
424 722 m 1,0,-1
 537 239 l 1,1,-1
 481 239 l 1,2,-1
 384 665 l 1,3,-1
 105 239 l 1,4,-1
 50 239 l 1,5,-1
 370 722 l 1,6,-1
 424 722 l 1,0,-1
EndSplineSet
EndChar

StartChar: underscore
Encoding: 95 95 64
Width: 529
VWidth: 1504
Flags: W
LayerCount: 2
Fore
SplineSet
415 -229 m 1,0,-1
 406 -275 l 1,1,-1
 -122 -275 l 1,2,-1
 -113 -229 l 1,3,-1
 415 -229 l 1,0,-1
EndSplineSet
EndChar

StartChar: grave
Encoding: 96 96 65
Width: 306
VWidth: 1504
Flags: W
LayerCount: 2
Fore
SplineSet
281 587 m 1,0,-1
 235 587 l 1,1,-1
 174 708 l 1,2,-1
 236 724 l 1,3,-1
 281 587 l 1,0,-1
EndSplineSet
EndChar

StartChar: a
Encoding: 97 97 66
Width: 598
VWidth: 1504
Flags: W
LayerCount: 2
Fore
SplineSet
481 104 m 2,0,1
 467 44 467 44 486 2 c 1,2,-1
 427 -11 l 1,3,4
 410 43 410 43 420 93 c 1,5,6
 337 -15 337 -15 208 -15 c 0,7,8
 121 -15 121 -15 72.5 35.5 c 128,-1,9
 24 86 24 86 24 170 c 0,10,11
 24 302 24 302 110 408 c 0,12,13
 200 521 200 521 329 520 c 0,14,15
 463 522 463 522 557 445 c 1,16,-1
 481 104 l 2,0,1
445 215 m 2,17,-1
 492 420 l 1,18,19
 415 473 415 473 337 472 c 0,20,21
 227 470 227 470 150 375 c 1,22,23
 81 285 81 285 81 177 c 0,24,25
 81 111 81 111 119.5 71.5 c 128,-1,26
 158 32 158 32 227 32 c 0,27,28
 304 32 304 32 366 86.5 c 128,-1,29
 428 141 428 141 445 215 c 2,17,-1
EndSplineSet
Substitution2: "Single Substitution lookup 58 subtable" uni0E38
EndChar

StartChar: b
Encoding: 98 98 67
Width: 603
VWidth: 1504
Flags: W
LayerCount: 2
Fore
SplineSet
551 262 m 0,0,1
 525 139 525 139 444.5 62.5 c 128,-1,2
 364 -14 364 -14 254 -14 c 0,3,4
 152 -14 152 -14 101.5 36 c 128,-1,5
 51 86 51 86 51 164 c 0,6,7
 51 190 51 190 57 214 c 2,8,-1
 174 760 l 1,9,-1
 233 760 l 1,10,-1
 159 414 l 1,11,12
 248 522 248 522 376 522 c 0,13,14
 483 522 483 522 529 448.5 c 128,-1,15
 575 375 575 375 551 262 c 0,0,1
493 260 m 0,16,17
 514 355 514 355 479 415 c 128,-1,18
 444 475 444 475 356 475 c 0,19,20
 284 475 284 475 221 426 c 1,21,22
 150 373 150 373 134 292 c 2,23,-1
 113 194 l 2,24,25
 98 122 98 122 140 79 c 128,-1,26
 182 36 182 36 257 36 c 0,27,28
 446 36 446 36 493 260 c 0,16,17
EndSplineSet
Substitution2: "Single Substitution lookup 58 subtable" uni0E39
EndChar

StartChar: c
Encoding: 99 99 68
Width: 497
VWidth: 1504
Flags: W
LayerCount: 2
Fore
SplineSet
397 71 m 1,0,-1
 409 23 l 1,1,2
 337 -13 337 -13 244 -14 c 0,3,4
 118 -14 118 -14 60.5 59 c 128,-1,5
 3 132 3 132 29 254 c 0,6,7
 56 376 56 376 143 449 c 128,-1,8
 230 522 230 522 356 522 c 0,9,10
 449 522 449 522 507 486 c 1,11,-1
 475 438 l 1,12,13
 427 474 427 474 343 474 c 0,14,15
 251 474 251 474 179.5 415 c 128,-1,16
 108 356 108 356 86 254 c 0,17,18
 65 152 65 152 111.5 93.5 c 128,-1,19
 158 35 158 35 250 35 c 0,20,21
 334 35 334 35 397 71 c 1,0,-1
EndSplineSet
Substitution2: "Single Substitution lookup 58 subtable" uni0E3A
EndChar

StartChar: d
Encoding: 100 100 69
Width: 603
VWidth: 1504
Flags: W
LayerCount: 2
Fore
SplineSet
486 125 m 2,0,1
 474 69 474 69 486 2 c 1,2,-1
 427 -11 l 1,3,4
 419 40 419 40 424 89 c 1,5,6
 334 -13 334 -13 214 -14 c 0,7,8
 104 -14 104 -14 55 62 c 128,-1,9
 6 138 6 138 32 262 c 0,10,11
 56 375 56 375 133.5 448.5 c 128,-1,12
 211 522 211 522 317 522 c 0,13,14
 445 522 445 522 489 414 c 1,15,-1
 563 760 l 1,16,-1
 621 760 l 1,17,-1
 486 125 l 2,0,1
444 205 m 2,18,-1
 463 290 l 1,19,20
 480 373 480 373 433 426 c 0,21,22
 391 476 391 476 319 475 c 0,23,24
 232 475 232 475 171 415 c 128,-1,25
 110 355 110 355 89 260 c 0,26,27
 42 36 42 36 232 36 c 0,28,29
 307 36 307 36 368 84.5 c 128,-1,30
 429 133 429 133 444 205 c 2,18,-1
EndSplineSet
EndChar

StartChar: e
Encoding: 101 101 70
Width: 562
VWidth: 1504
Flags: W
LayerCount: 2
Fore
SplineSet
517 381 m 0,0,1
 517 202 517 202 212 202 c 0,2,3
 156 202 156 202 81 208 c 1,4,5
 79 196 79 196 80 185 c 0,6,7
 80 38 80 38 251 38 c 0,8,9
 338 38 338 38 438 72 c 1,10,-1
 432 23 l 1,11,12
 337 -13 337 -13 235 -14 c 0,13,14
 137 -14 137 -14 78.5 39 c 128,-1,15
 20 92 20 92 20 181 c 0,16,17
 20 324 20 324 120 426 c 0,18,19
 216 522 216 522 341 522 c 0,20,21
 517 522 517 522 517 381 c 0,0,1
465 382 m 0,22,23
 465 475 465 475 341 475 c 0,24,25
 264 475 264 475 190 414 c 0,26,27
 110 348 110 348 84 256 c 1,28,29
 146 251 146 251 194 251 c 0,30,31
 465 251 465 251 465 382 c 0,22,23
EndSplineSet
EndChar

StartChar: f
Encoding: 102 102 71
Width: 309
VWidth: 1504
Flags: W
LayerCount: 2
Fore
SplineSet
332 465 m 1,0,-1
 185 465 l 1,1,-1
 89 6 l 1,2,3
 36 -235 36 -235 -146 -235 c 0,4,5
 -203 -235 -203 -235 -226 -211 c 1,6,-1
 -200 -168 l 1,7,8
 -171 -185 -171 -185 -131 -185 c 0,9,10
 -11 -185 -11 -185 30 6 c 2,11,-1
 126 465 l 1,12,-1
 41 465 l 1,13,-1
 51 511 l 1,14,-1
 138 511 l 1,15,-1
 143 531 l 1,16,17
 194 772 194 772 376 772 c 0,18,19
 433 772 433 772 456 748 c 1,20,-1
 430 705 l 1,21,22
 401 722 401 722 361 722 c 0,23,24
 241 722 241 722 200 531 c 1,25,-1
 196 511 l 1,26,-1
 343 511 l 1,27,-1
 332 465 l 1,0,-1
EndSplineSet
EndChar

StartChar: g
Encoding: 103 103 72
Width: 467
VWidth: 1504
Flags: W
LayerCount: 2
Fore
SplineSet
421 343 m 0,0,1
 403 259 403 259 340.5 209 c 128,-1,2
 278 159 278 159 202 159 c 0,3,4
 155 159 155 159 125 176 c 1,5,6
 111 153 111 153 107 132 c 0,7,8
 99 93 99 93 214 59 c 0,9,10
 349 18 349 18 326 -89 c 0,11,12
 312 -154 312 -154 257 -195 c 128,-1,13
 202 -236 202 -236 111 -236 c 0,14,15
 31 -236 31 -236 -24 -196 c 1,16,-1
 6 -147 l 1,17,18
 62 -185 62 -185 126 -185 c 0,19,20
 182 -185 182 -185 224 -159.5 c 128,-1,21
 266 -134 266 -134 274 -93 c 1,22,23
 291 -21 291 -21 179 18 c 0,24,25
 111 41 111 41 89 59 c 1,26,27
 48 88 48 88 57 132 c 0,28,29
 63 159 63 159 87 205 c 1,30,31
 45 265 45 265 59 332 c 0,32,33
 77 413 77 413 138.5 463 c 128,-1,34
 200 513 200 513 269 513 c 2,35,-1
 469 513 l 1,36,-1
 459 465 l 1,37,-1
 387 472 l 1,38,39
 436 412 436 412 421 343 c 0,0,1
369 335 m 0,40,41
 380 385 380 385 355 423 c 1,42,43
 329 468 329 468 268 468 c 0,44,45
 208 468 208 468 165.5 428 c 128,-1,46
 123 388 123 388 113 334 c 1,47,48
 99 274 99 274 132 238 c 0,49,50
 162 205 162 205 211 205 c 0,51,52
 265 205 265 205 310 239 c 128,-1,53
 355 273 355 273 369 335 c 0,40,41
EndSplineSet
EndChar

StartChar: h
Encoding: 104 104 73
Width: 586
VWidth: 1504
Flags: W
LayerCount: 2
Fore
SplineSet
469 2 m 1,0,-1
 411 -11 l 1,1,2
 394 40 394 40 405 90 c 2,3,-1
 447 290 l 2,4,5
 485 474 485 474 331 474 c 0,6,7
 269 474 269 474 209.5 422 c 128,-1,8
 150 370 150 370 137 310 c 2,9,-1
 72 0 l 1,10,-1
 14 0 l 1,11,-1
 174 760 l 1,12,-1
 233 760 l 1,13,-1
 161 420 l 1,14,15
 244 522 244 522 353 522 c 0,16,17
 553 522 553 522 505 290 c 1,18,-1
 465 104 l 1,19,20
 452 41 452 41 469 2 c 1,0,-1
EndSplineSet
EndChar

StartChar: i
Encoding: 105 105 74
Width: 215
VWidth: 1504
Flags: W
LayerCount: 2
Fore
SplineSet
72 0 m 1,0,-1
 14 0 l 1,1,-1
 122 511 l 1,2,-1
 181 511 l 1,3,-1
 72 0 l 1,0,-1
230 666 m 256,4,5
 225 645 225 645 209 632.5 c 128,-1,6
 193 620 193 620 171 620 c 256,7,8
 150 620 150 620 140.5 632.5 c 128,-1,9
 131 645 131 645 135 666 c 256,10,11
 140 687 140 687 155 700.5 c 128,-1,12
 170 714 170 714 191 714 c 256,13,14
 212 714 212 714 223.5 700.5 c 128,-1,15
 235 687 235 687 230 666 c 256,4,5
EndSplineSet
EndChar

StartChar: j
Encoding: 106 106 75
Width: 233
VWidth: 1504
Flags: W
LayerCount: 2
Fore
SplineSet
92 11 m 1,0,1
 41 -218 41 -218 -168 -223 c 1,2,-1
 -164 -176 l 1,3,4
 -59 -167 -59 -167 -12 -104 c 1,5,6
 18 -60 18 -60 36 27 c 2,7,-1
 140 511 l 1,8,-1
 199 511 l 1,9,-1
 92 11 l 1,0,1
248 666 m 256,10,11
 243 645 243 645 227 632.5 c 128,-1,12
 211 620 211 620 190 620 c 256,13,14
 169 620 169 620 159 632.5 c 128,-1,15
 149 645 149 645 153 666 c 256,16,17
 158 687 158 687 173 700.5 c 128,-1,18
 188 714 188 714 209 714 c 256,19,20
 230 714 230 714 241.5 700.5 c 128,-1,21
 253 687 253 687 248 666 c 256,10,11
EndSplineSet
EndChar

StartChar: k
Encoding: 107 107 76
Width: 475
VWidth: 1504
Flags: W
LayerCount: 2
Fore
SplineSet
427 2 m 1,0,-1
 364 -15 l 1,1,-1
 181 266 l 1,2,-1
 117 215 l 1,3,-1
 72 0 l 1,4,-1
 14 0 l 1,5,-1
 174 760 l 1,6,-1
 233 760 l 1,7,-1
 131 281 l 1,8,-1
 436 519 l 1,9,-1
 493 507 l 1,10,-1
 230 299 l 1,11,-1
 427 2 l 1,0,-1
EndSplineSet
EndChar

StartChar: l
Encoding: 108 108 77
Width: 300
VWidth: 1504
Flags: W
LayerCount: 2
Fore
SplineSet
217 41 m 1,0,-1
 200 -11 l 1,1,2
 12 -2 12 -2 68 257 c 2,3,-1
 174 760 l 1,4,-1
 233 760 l 1,5,-1
 131 280 l 2,6,7
 108 170 108 170 117 120 c 0,8,9
 130 43 130 43 217 41 c 1,0,-1
EndSplineSet
EndChar

StartChar: m
Encoding: 109 109 78
Width: 904
VWidth: 1504
Flags: W
LayerCount: 2
Fore
SplineSet
782 104 m 1,0,1
 770 41 770 41 787 2 c 1,2,-1
 728 -11 l 1,3,4
 711 40 711 40 722 90 c 2,5,-1
 761 283 l 1,6,7
 781 370 781 370 756 422 c 128,-1,8
 731 474 731 474 663 474 c 0,9,10
 604 474 604 474 550 428 c 128,-1,11
 496 382 496 382 484 325 c 2,12,-1
 417 0 l 1,13,-1
 358 0 l 1,14,-1
 423 310 l 2,15,16
 458 474 458 474 328 474 c 0,17,18
 268 474 268 474 209 422 c 128,-1,19
 150 370 150 370 137 310 c 2,20,-1
 72 0 l 1,21,-1
 14 0 l 1,22,-1
 99 406 l 2,23,24
 111 469 111 469 95 508 c 1,25,-1
 153 520 l 1,26,27
 170 469 170 469 159 420 c 1,28,29
 239 522 239 522 352 522 c 0,30,31
 456 522 456 522 483 408 c 1,32,33
 567 522 567 522 690 522 c 0,34,35
 774 522 774 522 809 458 c 128,-1,36
 844 394 844 394 821 284 c 2,37,-1
 782 104 l 1,0,1
EndSplineSet
EndChar

StartChar: n
Encoding: 110 110 79
Width: 586
VWidth: 1504
Flags: W
LayerCount: 2
Fore
SplineSet
466 104 m 2,0,1
 454 41 454 41 471 2 c 1,2,-1
 412 -11 l 1,3,4
 395 40 395 40 406 90 c 2,5,-1
 447 290 l 2,6,7
 485 474 485 474 331 474 c 0,8,9
 269 474 269 474 209.5 422 c 128,-1,10
 150 370 150 370 137 310 c 2,11,-1
 72 0 l 1,12,-1
 14 0 l 1,13,-1
 99 406 l 2,14,15
 111 469 111 469 95 508 c 1,16,-1
 153 520 l 1,17,18
 170 469 170 469 159 420 c 1,19,20
 239 522 239 522 353 522 c 0,21,22
 553 522 553 522 505 290 c 2,23,-1
 466 104 l 2,0,1
EndSplineSet
EndChar

StartChar: o
Encoding: 111 111 80
Width: 598
VWidth: 1504
Flags: W
LayerCount: 2
Fore
SplineSet
545 254 m 256,0,1
 521 141 521 141 433.5 63 c 128,-1,2
 346 -15 346 -15 230 -15 c 256,3,4
 114 -15 114 -15 60 63 c 128,-1,5
 6 141 6 141 30 254 c 256,6,7
 54 367 54 367 141.5 444.5 c 128,-1,8
 229 522 229 522 344 522 c 256,9,10
 460 522 460 522 514.5 444.5 c 128,-1,11
 569 367 569 367 545 254 c 256,0,1
487 254 m 0,12,13
 508 347 508 347 464.5 409.5 c 128,-1,14
 421 472 421 472 334 472 c 256,15,16
 247 472 247 472 177.5 409.5 c 128,-1,17
 108 347 108 347 87 254 c 0,18,19
 67 161 67 161 110 98 c 128,-1,20
 153 35 153 35 241 35 c 256,21,22
 328 35 328 35 397.5 98 c 128,-1,23
 467 161 467 161 487 254 c 0,12,13
EndSplineSet
EndChar

StartChar: p
Encoding: 112 112 81
Width: 603
VWidth: 1504
Flags: W
LayerCount: 2
Fore
SplineSet
493 248 m 1,0,1
 514 353 514 353 478 412.5 c 128,-1,2
 442 472 442 472 349 472 c 0,3,4
 274 472 274 472 213 424 c 128,-1,5
 152 376 152 376 135 304 c 2,6,-1
 117 218 l 2,7,8
 100 135 100 135 147 83 c 0,9,10
 189 33 189 33 262 33 c 0,11,12
 349 33 349 33 414 95 c 1,13,14
 472 153 472 153 493 248 c 1,0,1
548 247 m 0,15,16
 524 134 524 134 448 63 c 1,17,18
 370 -14 370 -14 263 -14 c 0,19,20
 135 -14 135 -14 92 95 c 1,21,-1
 18 -251 l 1,22,-1
 -39 -251 l 1,23,-1
 99 405 l 2,24,25
 111 468 111 468 95 507 c 1,26,-1
 153 519 l 1,27,28
 170 468 170 468 155 418 c 1,29,30
 247 522 247 522 367 522 c 0,31,32
 477 522 477 522 526 446 c 128,-1,33
 575 370 575 370 548 247 c 0,15,16
EndSplineSet
EndChar

StartChar: q
Encoding: 113 113 82
Width: 603
VWidth: 1504
Flags: W
LayerCount: 2
Fore
SplineSet
561 445 m 1,0,-1
 409 -253 l 1,1,-1
 350 -253 l 1,2,-1
 424 93 l 1,3,4
 337 -15 337 -15 208 -15 c 0,5,6
 121 -15 121 -15 72.5 35.5 c 128,-1,7
 24 86 24 86 24 170 c 0,8,9
 24 302 24 302 110 408 c 0,10,11
 200 521 200 521 329 520 c 0,12,13
 468 522 468 522 561 445 c 1,0,-1
450 215 m 2,14,-1
 496 420 l 1,15,16
 419 473 419 473 337 472 c 0,17,18
 227 470 227 470 150 375 c 1,19,20
 81 285 81 285 81 177 c 0,21,22
 81 111 81 111 119.5 71.5 c 128,-1,23
 158 32 158 32 227 32 c 0,24,25
 304 32 304 32 368.5 86.5 c 128,-1,26
 433 141 433 141 450 215 c 2,14,-1
EndSplineSet
EndChar

StartChar: r
Encoding: 114 114 83
Width: 326
VWidth: 1504
Flags: W
LayerCount: 2
Fore
SplineSet
347 469 m 1,0,1
 342 471 342 471 329 471 c 0,2,3
 213 471 213 471 146 326 c 0,4,5
 137 309 137 309 129 275 c 2,6,-1
 72 0 l 1,7,-1
 14 0 l 1,8,-1
 98 406 l 2,9,10
 110 469 110 469 93 508 c 1,11,-1
 152 520 l 1,12,13
 169 469 169 469 150 409 c 1,14,15
 222 522 222 522 329 522 c 0,16,17
 343 522 343 522 358 519 c 1,18,-1
 347 469 l 1,0,1
EndSplineSet
EndChar

StartChar: s
Encoding: 115 115 84
Width: 424
VWidth: 1504
Flags: W
LayerCount: 2
Fore
SplineSet
337 135 m 1,0,1
 322 70 322 70 265 28 c 128,-1,2
 208 -14 208 -14 120 -14 c 0,3,4
 45 -14 45 -14 -15 27 c 1,5,-1
 17 75 l 1,6,7
 82 36 82 36 135 36 c 0,8,9
 261 36 261 36 281 131 c 0,10,11
 296 205 296 205 187 241 c 0,12,13
 58 283 58 283 78 379 c 0,14,15
 90 438 90 438 143.5 480 c 128,-1,16
 197 522 197 522 277 522 c 256,17,18
 357 522 357 522 396 487 c 1,19,-1
 363 439 l 1,20,21
 325 475 325 475 257 475 c 0,22,23
 209 475 209 475 176 449.5 c 128,-1,24
 143 424 143 424 135 387 c 0,25,26
 123 327 123 327 232 286 c 0,27,28
 358 239 358 239 337 135 c 1,0,1
EndSplineSet
EndChar

StartChar: t
Encoding: 116 116 85
Width: 357
VWidth: 1504
Flags: W
LayerCount: 2
Fore
SplineSet
260 47 m 1,0,-1
 257 0 l 1,1,2
 224 -14 224 -14 174 -14 c 0,3,4
 108 -14 108 -14 84 38 c 0,5,6
 63 83 63 83 78 150 c 2,7,-1
 144 465 l 1,8,-1
 42 465 l 1,9,-1
 53 511 l 1,10,-1
 155 511 l 1,11,-1
 187 663 l 1,12,-1
 251 690 l 1,13,-1
 214 511 l 1,14,-1
 378 511 l 1,15,-1
 367 465 l 1,16,-1
 203 465 l 1,17,-1
 137 152 l 2,18,19
 113 38 113 38 190 38 c 0,20,21
 236 38 236 38 260 47 c 1,0,-1
EndSplineSet
EndChar

StartChar: u
Encoding: 117 117 86
Width: 586
VWidth: 1504
Flags: W
LayerCount: 2
Fore
SplineSet
469 2 m 1,0,-1
 411 -11 l 1,1,2
 403 40 403 40 408 89 c 1,3,4
 321 -13 321 -13 194 -14 c 0,5,6
 10 -14 10 -14 60 224 c 2,7,-1
 99 406 l 1,8,9
 111 469 111 469 95 508 c 1,10,-1
 153 520 l 1,11,12
 170 469 170 469 161 420 c 2,13,-1
 122 235 l 2,14,15
 80 38 80 38 218 38 c 0,16,17
 283 38 283 38 344 80 c 0,18,19
 412 128 412 128 427 202 c 2,20,-1
 493 511 l 1,21,-1
 552 511 l 1,22,-1
 469 125 l 2,23,24
 457 70 457 70 469 2 c 1,0,-1
EndSplineSet
EndChar

StartChar: v
Encoding: 118 118 87
Width: 512
VWidth: 1504
Flags: W
LayerCount: 2
Fore
SplineSet
552 511 m 1,0,-1
 214 0 l 1,1,-1
 161 0 l 1,2,-1
 48 511 l 1,3,-1
 108 511 l 1,4,-1
 202 63 l 1,5,-1
 492 511 l 1,6,-1
 552 511 l 1,0,-1
EndSplineSet
EndChar

StartChar: w
Encoding: 119 119 88
Width: 762
VWidth: 1504
Flags: W
LayerCount: 2
Fore
SplineSet
806 511 m 1,0,-1
 514 0 l 1,1,-1
 463 0 l 1,2,-1
 411 451 l 1,3,-1
 161 0 l 1,4,-1
 107 0 l 1,5,-1
 48 511 l 1,6,-1
 110 511 l 1,7,-1
 150 69 l 1,8,-1
 399 511 l 1,9,-1
 454 511 l 1,10,-1
 504 69 l 1,11,-1
 748 511 l 1,12,-1
 806 511 l 1,0,-1
EndSplineSet
EndChar

StartChar: x
Encoding: 120 120 89
Width: 478
VWidth: 1504
Flags: W
LayerCount: 2
Fore
SplineSet
414 0 m 1,0,-1
 344 0 l 1,1,-1
 220 221 l 1,2,-1
 3 0 l 1,3,-1
 -65 0 l 1,4,-1
 197 260 l 1,5,-1
 57 511 l 1,6,-1
 123 511 l 1,7,-1
 241 304 l 1,8,-1
 447 511 l 1,9,-1
 511 511 l 1,10,-1
 262 262 l 1,11,-1
 414 0 l 1,0,-1
EndSplineSet
EndChar

StartChar: y
Encoding: 121 121 90
Width: 506
VWidth: 1504
Flags: W
LayerCount: 2
Fore
SplineSet
212 0 m 2,0,1
 80 -200 80 -200 -74 -235 c 1,2,-1
 -77 -188 l 1,3,4
 55 -159 55 -159 159 17 c 1,5,6
 159 22 159 22 158 35 c 1,7,-1
 48 511 l 1,8,-1
 111 511 l 1,9,-1
 211 78 l 1,10,-1
 481 511 l 1,11,-1
 546 511 l 1,12,-1
 212 0 l 2,0,1
EndSplineSet
EndChar

StartChar: z
Encoding: 122 122 91
Width: 482
VWidth: 1504
Flags: W
LayerCount: 2
Fore
SplineSet
388 0 m 1,0,-1
 -42 0 l 1,1,-1
 -33 36 l 1,2,-1
 417 463 l 1,3,-1
 74 463 l 1,4,-1
 93 511 l 1,5,-1
 501 511 l 1,6,-1
 490 471 l 1,7,-1
 41 48 l 1,8,-1
 409 48 l 1,9,-1
 388 0 l 1,0,-1
EndSplineSet
EndChar

StartChar: braceleft
Encoding: 123 123 92
Width: 312
VWidth: 1504
Flags: W
LayerCount: 2
Fore
SplineSet
191 -71 m 1,0,-1
 181 -116 l 1,1,-1
 164 -116 l 2,2,3
 2 -116 2 -116 32 27 c 0,4,5
 38 56 38 56 61 115 c 128,-1,6
 84 174 84 174 90 205 c 0,7,8
 107 280 107 280 14 283 c 1,9,-1
 24 328 l 1,10,11
 117 331 117 331 134 406 c 0,12,13
 140 436 140 436 142 495.5 c 128,-1,14
 144 555 144 555 150 584 c 0,15,16
 180 727 180 727 343 727 c 2,17,-1
 360 727 l 1,18,-1
 350 681 l 1,19,-1
 328 681 l 2,20,21
 224 681 224 681 202 578 c 1,22,23
 191 426 191 426 188 411 c 0,24,25
 171 334 171 334 105 305 c 1,26,27
 159 276 159 276 143 200 c 0,28,29
 140 185 140 185 86 33 c 1,30,31
 65 -71 65 -71 168 -71 c 2,32,-1
 191 -71 l 1,0,-1
EndSplineSet
EndChar

StartChar: bar
Encoding: 124 124 93
Width: 230
VWidth: 1504
Flags: W
LayerCount: 2
Fore
SplineSet
244 794 m 1,0,-1
 20 -262 l 1,1,-1
 -29 -262 l 1,2,-1
 194 794 l 1,3,-1
 244 794 l 1,0,-1
EndSplineSet
EndChar

StartChar: braceright
Encoding: 125 125 94
Width: 312
VWidth: 1504
Flags: W
LayerCount: 2
Fore
SplineSet
-47 -116 m 1,0,-1
 -36 -71 l 1,1,-1
 -14 -71 l 2,2,3
 88 -71 88 -71 110 33 c 1,4,5
 122 185 122 185 125 200 c 0,6,7
 142 277 142 277 208 305 c 1,8,9
 154 334 154 334 170 411 c 0,10,11
 173 426 173 426 226 578 c 1,12,13
 249 682 249 682 144 681 c 2,14,-1
 122 681 l 1,15,-1
 131 727 l 1,16,-1
 147 727 l 2,17,18
 309 727 309 727 280 584 c 0,19,20
 274 555 274 555 250.5 495.5 c 128,-1,21
 227 436 227 436 221 406 c 0,22,23
 204 331 204 331 298 328 c 1,24,-1
 287 283 l 1,25,26
 194 280 194 280 177 205 c 0,27,28
 171 175 171 175 169 115.5 c 128,-1,29
 167 56 167 56 161 27 c 0,30,31
 131 -116 131 -116 -30 -116 c 2,32,-1
 -47 -116 l 1,0,-1
EndSplineSet
EndChar

StartChar: asciitilde
Encoding: 126 126 95
Width: 625
VWidth: 1504
Flags: W
LayerCount: 2
Fore
SplineSet
599 375 m 1,0,-1
 597 366 l 1,1,2
 582 297 582 297 537 259 c 0,3,4
 499 227 499 227 451 227 c 0,5,6
 392 227 392 227 303.5 276 c 128,-1,7
 215 325 215 325 162 325 c 0,8,9
 91 325 91 325 69 227 c 1,10,-1
 23 227 l 1,11,-1
 24 239 l 1,12,13
 38 302 38 302 80.5 338.5 c 128,-1,14
 123 375 123 375 173 375 c 0,15,16
 230 375 230 375 320.5 327.5 c 128,-1,17
 411 280 411 280 465 280 c 0,18,19
 530 280 530 280 552 375 c 1,20,-1
 599 375 l 1,0,-1
EndSplineSet
EndChar

StartChar: uni0E33.alt1
Encoding: 65537 -1 96
Width: 475
VWidth: 1504
Flags: W
LayerCount: 2
Fore
SplineSet
-117 809 m 256,0,1
 -128 761 -128 761 -168 728 c 128,-1,2
 -208 695 -208 695 -256 695 c 256,3,4
 -304 695 -304 695 -331 728 c 128,-1,5
 -358 761 -358 761 -347 809 c 256,6,7
 -336 857 -336 857 -296 891 c 128,-1,8
 -256 925 -256 925 -208 925 c 256,9,10
 -160 925 -160 925 -133 891 c 128,-1,11
 -106 857 -106 857 -117 809 c 256,0,1
-167 809 m 256,12,13
 -161 836 -161 836 -177 855.5 c 128,-1,14
 -193 875 -193 875 -218 875 c 0,15,16
 -245 875 -245 875 -268.5 855.5 c 128,-1,17
 -292 836 -292 836 -298 809 c 256,18,19
 -304 782 -304 782 -288 763.5 c 128,-1,20
 -272 745 -272 745 -245 745 c 0,21,22
 -219 745 -219 745 -196 763.5 c 128,-1,23
 -173 782 -173 782 -167 809 c 256,12,13
337 51 m 1,24,25
 319 -20 319 -20 265 -56 c 1,26,-1
 223 -29 l 1,27,28
 274 10 274 10 287 71 c 2,29,-1
 367 450 l 2,30,31
 376 495 376 495 349 524.5 c 128,-1,32
 322 554 322 554 263 554 c 0,33,34
 210 554 210 554 171 518.5 c 128,-1,35
 132 483 132 483 120 442 c 1,36,-1
 65 442 l 1,37,38
 80 505 80 505 139.5 553.5 c 128,-1,39
 199 602 199 602 275 602 c 0,40,41
 362 602 362 602 399 559.5 c 128,-1,42
 436 517 436 517 421 448 c 2,43,-1
 337 51 l 1,24,25
EndSplineSet
EndChar

StartChar: uni0E4E.alt1
Encoding: 65540 -1 99
Width: 0
VWidth: 1504
Flags: W
LayerCount: 2
Fore
SplineSet
-35 999 m 1,0,-1
 -57 961 l 1,1,2
 -81 969 -81 969 -111 969 c 0,3,4
 -180 969 -180 969 -190 922 c 0,5,6
 -201 872 -201 872 -126 863 c 1,7,-1
 -147 829 l 1,8,9
 -165 835 -165 835 -184 835 c 0,10,11
 -226 835 -226 835 -256 816 c 128,-1,12
 -286 797 -286 797 -290 775 c 0,13,14
 -299 734 -299 734 -232 734 c 0,15,16
 -212 734 -212 734 -181 746 c 1,17,-1
 -187 708 l 1,18,19
 -219 696 -219 696 -259 696 c 0,20,21
 -297 696 -297 696 -319 718 c 128,-1,22
 -341 740 -341 740 -334 776 c 0,23,24
 -326 814 -326 814 -290 839.5 c 128,-1,25
 -254 865 -254 865 -217 865 c 1,26,27
 -244 885 -244 885 -235 922 c 0,28,29
 -217 1009 -217 1009 -101 1009 c 0,30,31
 -61 1010 -61 1010 -35 999 c 1,0,-1
EndSplineSet
EndChar

StartChar: exclamdown
Encoding: 161 161 100
Width: 227
VWidth: 1504
Flags: W
LayerCount: 2
Fore
SplineSet
44 -211 m 1,0,-1
 -38 -211 l 1,1,-1
 87 313 l 1,2,-1
 140 313 l 1,3,-1
 44 -211 l 1,0,-1
200 457 m 256,4,5
 195 434 195 434 175 418 c 128,-1,6
 155 402 155 402 132 402 c 256,7,8
 109 402 109 402 96.5 418.5 c 128,-1,9
 84 435 84 435 89 457 c 256,10,11
 94 480 94 480 114 496.5 c 128,-1,12
 134 513 134 513 156 513 c 256,13,14
 179 513 179 513 192 496.5 c 128,-1,15
 205 480 205 480 200 457 c 256,4,5
EndSplineSet
EndChar

StartChar: cent
Encoding: 162 162 101
Width: 618
VWidth: 1504
Flags: W
LayerCount: 2
Fore
SplineSet
519 72 m 1,0,1
 438 33 438 33 313 33 c 2,2,-1
 305 33 l 1,3,-1
 280 -89 l 1,4,-1
 230 -89 l 1,5,-1
 257 36 l 1,6,7
 146 53 146 53 90 128 c 0,8,9
 27 211 27 211 59 358 c 0,10,11
 86 483 86 483 168 566 c 0,12,13
 260 656 260 656 393 678 c 1,14,-1
 423 815 l 1,15,-1
 472 815 l 1,16,-1
 444 684 l 1,17,18
 455 686 455 686 475 686 c 0,19,20
 565 686 565 686 638 657 c 1,21,-1
 615 603 l 1,22,23
 555 638 555 638 469 638 c 0,24,25
 331 638 331 638 238.5 565 c 128,-1,26
 146 492 146 492 117 355 c 1,27,28
 88 226 88 226 146 158 c 0,29,30
 206 86 206 86 343 86 c 0,31,32
 438 86 438 86 510 116 c 1,33,-1
 519 72 l 1,0,1
EndSplineSet
EndChar

StartChar: sterling
Encoding: 163 163 102
Width: 618
VWidth: 1504
Flags: W
LayerCount: 2
Fore
SplineSet
466 0 m 1,0,-1
 21 0 l 1,1,-1
 29 38 l 1,2,3
 173 116 173 116 199 238 c 0,4,5
 207 273 207 273 209 325 c 1,6,-1
 90 325 l 1,7,-1
 101 372 l 1,8,-1
 215 372 l 1,9,10
 218 444 218 444 229 493 c 0,11,12
 271 693 271 693 463 693 c 0,13,14
 525 693 525 693 582 663 c 1,15,-1
 555 620 l 1,16,17
 499 644 499 644 450 644 c 0,18,19
 313 644 313 644 281 492 c 0,20,21
 269 436 269 436 269 372 c 1,22,-1
 439 372 l 1,23,-1
 429 325 l 1,24,-1
 265 325 l 1,25,26
 265 290 265 290 256 248 c 0,27,28
 229 122 229 122 132 50 c 1,29,-1
 477 50 l 1,30,-1
 466 0 l 1,0,-1
EndSplineSet
EndChar

StartChar: currency
Encoding: 164 164 103
Width: 618
VWidth: 1504
Flags: W
LayerCount: 2
Fore
SplineSet
588 338 m 0,0,1
 567 239 567 239 496 171 c 1,2,-1
 543 110 l 1,3,-1
 490 65 l 1,4,-1
 441 128 l 1,5,6
 358 65 358 65 256 65 c 0,7,8
 158 65 158 65 99 128 c 1,9,-1
 26 65 l 1,10,-1
 -8 110 l 1,11,-1
 63 171 l 1,12,13
 19 243 19 243 39 338 c 0,14,15
 60 434 60 434 135 510 c 1,16,-1
 89 570 l 1,17,-1
 143 617 l 1,18,-1
 190 554 l 1,19,20
 280 616 280 616 372 615 c 0,21,22
 468 615 468 615 531 554 c 1,23,-1
 609 617 l 1,24,-1
 641 570 l 1,25,-1
 569 510 l 1,26,27
 611 443 611 443 588 338 c 0,0,1
528 338 m 0,28,29
 548 428 548 428 499.5 495.5 c 128,-1,30
 451 563 451 563 361 563 c 0,31,32
 274 563 274 563 195.5 496.5 c 128,-1,33
 117 430 117 430 98 338 c 256,34,35
 78 246 78 246 128.5 182.5 c 128,-1,36
 179 119 179 119 266 119 c 0,37,38
 356 119 356 119 433 184 c 128,-1,39
 510 249 510 249 528 338 c 0,28,29
EndSplineSet
EndChar

StartChar: yen
Encoding: 165 165 104
Width: 618
VWidth: 1504
Flags: W
LayerCount: 2
Fore
SplineSet
484 143 m 1,0,-1
 302 143 l 1,1,-1
 278 29 l 1,2,-1
 223 29 l 1,3,-1
 247 143 l 1,4,-1
 66 143 l 1,5,-1
 75 187 l 1,6,-1
 256 187 l 1,7,-1
 274 272 l 1,8,-1
 93 272 l 1,9,-1
 102 316 l 1,10,-1
 283 316 l 1,11,-1
 132 690 l 1,12,-1
 202 690 l 1,13,-1
 322 373 l 1,14,-1
 578 690 l 1,15,-1
 648 690 l 1,16,-1
 338 317 l 1,17,-1
 520 317 l 1,18,-1
 511 272 l 1,19,-1
 329 272 l 1,20,-1
 311 187 l 1,21,-1
 493 187 l 1,22,-1
 484 143 l 1,0,-1
EndSplineSet
EndChar

StartChar: brokenbar
Encoding: 166 166 105
Width: 230
VWidth: 1504
Flags: W
LayerCount: 2
Fore
SplineSet
147 341 m 1,0,-1
 98 341 l 1,1,-1
 176 714 l 1,2,-1
 226 714 l 1,3,-1
 147 341 l 1,0,-1
35 -185 m 1,4,-1
 -14 -185 l 1,5,-1
 65 190 l 1,6,-1
 114 190 l 1,7,-1
 35 -185 l 1,4,-1
EndSplineSet
EndChar

StartChar: section
Encoding: 167 167 106
Width: 562
VWidth: 1504
Flags: W
LayerCount: 2
Fore
SplineSet
408 98 m 0,0,1
 393 26 393 26 329.5 -16.5 c 128,-1,2
 266 -59 266 -59 185 -59 c 0,3,4
 90 -59 90 -59 41 -9 c 1,5,-1
 74 33 l 1,6,7
 115 -14 115 -14 199 -14 c 0,8,9
 261 -14 261 -14 303.5 15 c 128,-1,10
 346 44 346 44 355 90 c 0,11,12
 369 155 369 155 295 193 c 1,13,14
 224 223 224 223 153 254 c 1,15,16
 79 296 79 296 96 375 c 0,17,18
 111 441 111 441 190 495 c 1,19,20
 163 530 163 530 173 576 c 0,21,22
 187 641 187 641 245.5 681 c 128,-1,23
 304 721 304 721 384 721 c 256,24,25
 464 721 464 721 522 681 c 1,26,-1
 487 638 l 1,27,28
 442 677 442 677 367 677 c 0,29,30
 316 677 316 677 277 650.5 c 128,-1,31
 238 624 238 624 229 585 c 0,32,33
 220 544 220 544 259 517 c 0,34,35
 283 499 283 499 355 472 c 0,36,37
 504 418 504 418 481 317 c 1,38,39
 467 248 467 248 391 188 c 1,40,41
 420 152 420 152 408 98 c 0,0,1
424 310 m 1,42,43
 432 340 432 340 406.5 371 c 128,-1,44
 381 402 381 402 334 420 c 0,45,46
 250 450 250 450 220 471 c 1,47,48
 160 427 160 427 149 378 c 0,49,50
 140 336 140 336 185 304 c 0,51,52
 214 284 214 284 284 257 c 0,53,54
 349 231 349 231 366 217 c 1,55,56
 415 263 415 263 424 310 c 1,42,43
EndSplineSet
EndChar

StartChar: dieresis
Encoding: 168 168 107
Width: 318
VWidth: 1504
Flags: W
LayerCount: 2
Fore
SplineSet
226 635 m 256,0,1
 221 615 221 615 205.5 602.5 c 128,-1,2
 190 590 190 590 170 590 c 256,3,4
 150 590 150 590 139.5 602.5 c 128,-1,5
 129 615 129 615 134 635 c 256,6,7
 139 655 139 655 154.5 668 c 128,-1,8
 170 681 170 681 190 681 c 256,9,10
 210 681 210 681 220.5 668 c 128,-1,11
 231 655 231 655 226 635 c 256,0,1
412 635 m 256,12,13
 407 615 407 615 391.5 602.5 c 128,-1,14
 376 590 376 590 356 590 c 256,15,16
 336 590 336 590 326 602.5 c 128,-1,17
 316 615 316 615 320 635 c 256,18,19
 325 655 325 655 340.5 668 c 128,-1,20
 356 681 356 681 376 681 c 256,21,22
 396 681 396 681 406.5 668 c 128,-1,23
 417 655 417 655 412 635 c 256,12,13
EndSplineSet
EndChar

StartChar: copyright
Encoding: 169 169 108
Width: 806
VWidth: 1504
Flags: W
LayerCount: 2
Fore
SplineSet
579 176 m 1,0,1
 522 132 522 132 421 132 c 0,2,3
 323 132 323 132 264.5 195.5 c 128,-1,4
 206 259 206 259 206 350 c 0,5,6
 206 455 206 455 267.5 516.5 c 128,-1,7
 329 578 329 578 429 578 c 0,8,9
 524 578 524 578 572 542 c 1,10,-1
 554 496 l 1,11,12
 497 529 497 529 429 529 c 1,13,14
 267 520 267 520 266 358 c 0,15,16
 266 194 266 194 430 185 c 1,17,18
 507 185 507 185 560 223 c 1,19,-1
 579 176 l 1,0,1
791 361 m 256,20,21
 791 211 791 211 683.5 103 c 128,-1,22
 576 -5 576 -5 426 -5 c 256,23,24
 276 -5 276 -5 168 103 c 128,-1,25
 60 211 60 211 60 361 c 256,26,27
 60 511 60 511 167.5 619 c 128,-1,28
 275 727 275 727 426 727 c 256,29,30
 576 727 576 727 683.5 619 c 128,-1,31
 791 511 791 511 791 361 c 256,20,21
737 361 m 256,32,33
 737 490 737 490 646 581 c 128,-1,34
 555 672 555 672 426 672 c 256,35,36
 297 672 297 672 205.5 581 c 128,-1,37
 114 490 114 490 114 361 c 256,38,39
 114 232 114 232 205 141 c 128,-1,40
 296 50 296 50 426 50 c 256,41,42
 555 50 555 50 646 141 c 128,-1,43
 737 232 737 232 737 361 c 256,32,33
EndSplineSet
EndChar

StartChar: ordfeminine
Encoding: 170 170 109
Width: 409
VWidth: 1504
Flags: W
LayerCount: 2
Fore
SplineSet
412 666 m 1,0,-1
 363 442 l 2,1,2
 360 428 360 428 360 412 c 0,3,4
 360 388 360 388 367 375 c 1,5,-1
 316 363 l 1,6,7
 310 380 310 380 310 399 c 0,8,9
 310 414 310 414 311 424 c 1,10,11
 246 362 246 362 174 363 c 0,12,13
 115 363 115 363 81.5 397.5 c 128,-1,14
 48 432 48 432 48 487 c 0,15,16
 48 576 48 576 106.5 647.5 c 128,-1,17
 165 719 165 719 254 719 c 0,18,19
 347 719 347 719 412 666 c 1,0,-1
325 516 m 2,20,-1
 355 650 l 1,21,22
 308 680 308 680 259 680 c 0,23,24
 191 680 191 680 146 620.5 c 128,-1,25
 101 561 101 561 101 492 c 0,26,27
 101 402 101 402 188 402 c 0,28,29
 233 402 233 402 273.5 436.5 c 128,-1,30
 314 471 314 471 325 516 c 2,20,-1
EndSplineSet
EndChar

StartChar: guillemotleft
Encoding: 171 171 110
Width: 448
VWidth: 1504
Flags: W
LayerCount: 2
Fore
SplineSet
301 72 m 1,0,-1
 174 266 l 1,1,-1
 382 465 l 1,2,-1
 445 465 l 1,3,-1
 238 266 l 1,4,-1
 364 72 l 1,5,-1
 301 72 l 1,0,-1
134 72 m 1,6,-1
 8 266 l 1,7,-1
 215 465 l 1,8,-1
 278 465 l 1,9,-1
 71 266 l 1,10,-1
 197 72 l 1,11,-1
 134 72 l 1,6,-1
EndSplineSet
EndChar

StartChar: logicalnot
Encoding: 172 172 111
Width: 631
VWidth: 1504
Flags: W
LayerCount: 2
Fore
SplineSet
612 137 m 1,0,-1
 554 137 l 1,1,-1
 554 360 l 1,2,-1
 65 360 l 1,3,-1
 65 409 l 1,4,-1
 612 409 l 1,5,-1
 612 137 l 1,0,-1
EndSplineSet
EndChar

StartChar: registered
Encoding: 174 174 112
Width: 806
VWidth: 1504
Flags: W
LayerCount: 2
Fore
SplineSet
593 149 m 1,0,-1
 534 149 l 1,1,2
 507 326 507 326 436 326 c 2,3,-1
 344 326 l 1,4,-1
 344 149 l 1,5,-1
 284 149 l 1,6,-1
 284 573 l 1,7,8
 338 584 338 584 409 585 c 1,9,10
 489 585 489 585 533.5 551 c 128,-1,11
 578 517 578 517 578 459 c 0,12,13
 578 381 578 381 516 347 c 1,14,15
 575 295 575 295 593 149 c 1,0,-1
519 451 m 0,16,17
 519 532 519 532 415 532 c 0,18,19
 374 532 374 532 344 528 c 1,20,-1
 344 382 l 1,21,-1
 426 382 l 2,22,23
 468 382 468 382 493.5 400 c 128,-1,24
 519 418 519 418 519 451 c 0,16,17
791 361 m 256,25,26
 791 211 791 211 683.5 103 c 128,-1,27
 576 -5 576 -5 426 -5 c 256,28,29
 276 -5 276 -5 168 103 c 128,-1,30
 60 211 60 211 60 361 c 256,31,32
 60 511 60 511 167.5 619 c 128,-1,33
 275 727 275 727 426 727 c 256,34,35
 576 727 576 727 683.5 619 c 128,-1,36
 791 511 791 511 791 361 c 256,25,26
737 361 m 256,37,38
 737 490 737 490 646 581 c 128,-1,39
 555 672 555 672 426 672 c 256,40,41
 297 672 297 672 205.5 581 c 128,-1,42
 114 490 114 490 114 361 c 256,43,44
 114 232 114 232 205 141 c 128,-1,45
 296 50 296 50 426 50 c 256,46,47
 555 50 555 50 646 141 c 128,-1,48
 737 232 737 232 737 361 c 256,37,38
EndSplineSet
EndChar

StartChar: macron
Encoding: 175 175 113
Width: 529
VWidth: 1504
Flags: W
LayerCount: 2
Fore
SplineSet
642 841 m 1,0,-1
 633 794 l 1,1,-1
 104 794 l 1,2,-1
 113 841 l 1,3,-1
 642 841 l 1,0,-1
EndSplineSet
EndChar

StartChar: degree
Encoding: 176 176 114
Width: 318
VWidth: 1504
Flags: W
LayerCount: 2
Fore
SplineSet
349 597 m 0,0,1
 337 544 337 544 291 506.5 c 128,-1,2
 245 469 245 469 193 469 c 256,3,4
 140 469 140 469 110 507 c 128,-1,5
 80 545 80 545 92 597 c 0,6,7
 103 650 103 650 148.5 688.5 c 128,-1,8
 194 727 194 727 247 727 c 256,9,10
 300 727 300 727 330 688.5 c 128,-1,11
 360 650 360 650 349 597 c 0,0,1
304 597 m 256,12,13
 312 632 312 632 292 657.5 c 128,-1,14
 272 683 272 683 238 683 c 256,15,16
 203 683 203 683 173.5 657.5 c 128,-1,17
 144 632 144 632 137 597 c 256,18,19
 129 562 129 562 148 537.5 c 128,-1,20
 167 513 167 513 202 513 c 256,21,22
 237 513 237 513 266.5 537.5 c 128,-1,23
 296 562 296 562 304 597 c 256,12,13
EndSplineSet
EndChar

StartChar: plusminus
Encoding: 177 177 115
Width: 618
VWidth: 1504
Flags: W
LayerCount: 2
Fore
SplineSet
560 302 m 1,0,-1
 334 302 l 1,1,-1
 292 102 l 1,2,-1
 239 102 l 1,3,-1
 281 302 l 1,4,-1
 56 302 l 1,5,-1
 66 350 l 1,6,-1
 292 350 l 1,7,-1
 331 537 l 1,8,-1
 384 537 l 1,9,-1
 344 350 l 1,10,-1
 570 350 l 1,11,-1
 560 302 l 1,0,-1
496 0 m 1,12,-1
 -8 0 l 1,13,-1
 2 48 l 1,14,-1
 505 48 l 1,15,-1
 496 0 l 1,12,-1
EndSplineSet
EndChar

StartChar: twosuperior
Encoding: 178 178 116
Width: 382
VWidth: 1504
Flags: W
LayerCount: 2
Fore
SplineSet
323 341 m 1,0,-1
 307 295 l 1,1,-1
 35 295 l 1,2,3
 52 357 52 357 171 453 c 1,4,5
 221 491 221 491 267.5 531.5 c 128,-1,6
 314 572 314 572 323 612 c 0,7,8
 337 677 337 677 272 677 c 0,9,10
 200 677 200 677 174 594 c 1,11,-1
 126 603 l 1,12,13
 144 660 144 660 185.5 692 c 128,-1,14
 227 724 227 724 278 724 c 0,15,16
 331 724 331 724 358 693.5 c 128,-1,17
 385 663 385 663 375 612 c 0,18,19
 361 550 361 550 262 466 c 0,20,21
 188 403 188 403 114 341 c 1,22,-1
 323 341 l 1,0,-1
EndSplineSet
EndChar

StartChar: threesuperior
Encoding: 179 179 117
Width: 382
VWidth: 1504
Flags: W
LayerCount: 2
Fore
SplineSet
353 448 m 0,0,1
 338 379 338 379 284 337.5 c 128,-1,2
 230 296 230 296 156 295 c 0,3,4
 90 293 90 293 56 325 c 1,5,-1
 89 373 l 1,6,7
 118 344 118 344 162 344 c 0,8,9
 218 344 218 344 255.5 373 c 128,-1,10
 293 402 293 402 304 447 c 0,11,12
 318 513 318 513 254 513 c 0,13,14
 212 513 212 513 184 492 c 1,15,-1
 170 529 l 1,16,17
 257 582 257 582 268 590 c 0,18,19
 309 619 309 619 314 645 c 0,20,21
 320 675 320 675 271 675 c 0,22,23
 209 675 209 675 170 609 c 1,24,-1
 131 632 l 1,25,26
 191 725 191 725 286 725 c 256,27,28
 381 725 381 725 364 647 c 0,29,30
 358 620 358 620 331 591.5 c 128,-1,31
 304 563 304 563 277 552 c 1,32,33
 374 546 374 546 353 448 c 0,0,1
EndSplineSet
EndChar

StartChar: acute
Encoding: 180 180 118
Width: 318
VWidth: 1504
Flags: W
LayerCount: 2
Fore
SplineSet
232 794 m 1,0,-1
 185 794 l 1,1,-1
 289 931 l 1,2,-1
 364 931 l 1,3,-1
 232 794 l 1,0,-1
EndSplineSet
EndChar

StartChar: mu
Encoding: 181 181 119
Width: 610
VWidth: 1504
Flags: W
LayerCount: 2
Fore
SplineSet
489 125 m 2,0,1
 478 69 478 69 490 2 c 1,2,-1
 432 -11 l 1,3,4
 424 40 424 40 430 95 c 1,5,6
 322 -13 322 -13 215 -14 c 0,7,8
 128 -14 128 -14 90 63 c 1,9,-1
 33 -211 l 1,10,-1
 -23 -211 l 1,11,-1
 129 511 l 1,12,-1
 187 511 l 1,13,-1
 125 220 l 2,14,15
 86 38 86 38 239 38 c 0,16,17
 305 38 305 38 370 88 c 128,-1,18
 435 138 435 138 448 200 c 2,19,-1
 514 511 l 1,20,-1
 572 511 l 1,21,-1
 489 125 l 2,0,1
EndSplineSet
EndChar

StartChar: paragraph
Encoding: 182 182 120
Width: 562
VWidth: 1504
Flags: W
LayerCount: 2
Fore
SplineSet
397 -95 m 1,0,-1
 346 -95 l 1,1,-1
 508 666 l 1,2,-1
 436 666 l 1,3,-1
 274 -95 l 1,4,-1
 221 -95 l 1,5,-1
 299 271 l 1,6,-1
 293 271 l 2,7,8
 203 271 203 271 147 323 c 0,9,10
 84 383 84 383 105 483 c 0,11,12
 153 715 153 715 451 714 c 0,13,14
 531 714 531 714 567 707 c 1,15,-1
 397 -95 l 1,0,-1
EndSplineSet
EndChar

StartChar: periodcentered
Encoding: 183 183 121
Width: 243
VWidth: 1504
Flags: W
LayerCount: 2
Fore
SplineSet
165 272 m 256,0,1
 160 251 160 251 141.5 236 c 128,-1,2
 123 221 123 221 102 221 c 256,3,4
 81 221 81 221 69 236 c 128,-1,5
 57 251 57 251 62 272 c 256,6,7
 67 293 67 293 84.5 309 c 128,-1,8
 102 325 102 325 123 325 c 256,9,10
 144 325 144 325 157 309 c 128,-1,11
 170 293 170 293 165 272 c 256,0,1
EndSplineSet
EndChar

StartChar: cedilla
Encoding: 184 184 122
Width: 318
VWidth: 1504
Flags: W
LayerCount: 2
Fore
SplineSet
138 -122 m 0,0,1
 120 -209 120 -209 15 -209 c 0,2,3
 -20 -209 -20 -209 -51 -190 c 1,4,-1
 -30 -156 l 1,5,6
 -1 -171 -1 -171 24 -171 c 0,7,8
 81 -171 81 -171 90 -129 c 0,9,10
 99 -91 99 -91 6 -84 c 1,11,-1
 83 6 l 1,12,-1
 131 6 l 1,13,-1
 78 -51 l 1,14,15
 150 -69 150 -69 138 -122 c 0,0,1
EndSplineSet
EndChar

StartChar: onesuperior
Encoding: 185 185 123
Width: 382
VWidth: 1504
Flags: W
LayerCount: 2
Fore
SplineSet
290 302 m 1,0,-1
 107 302 l 1,1,-1
 114 338 l 1,2,-1
 181 338 l 1,3,-1
 247 647 l 1,4,-1
 179 597 l 1,5,-1
 158 633 l 1,6,-1
 284 728 l 1,7,8
 316 725 316 725 307 686 c 2,9,-1
 233 338 l 1,10,-1
 298 338 l 1,11,-1
 290 302 l 1,0,-1
EndSplineSet
EndChar

StartChar: ordmasculine
Encoding: 186 186 124
Width: 428
VWidth: 1504
Flags: W
LayerCount: 2
Fore
SplineSet
447 542 m 1,0,1
 432 467 432 467 364 412.5 c 128,-1,2
 296 358 296 358 223 358 c 0,3,4
 148 358 148 358 105.5 412 c 128,-1,5
 63 466 63 466 78 542 c 1,6,7
 95 616 95 616 161 671.5 c 128,-1,8
 227 727 227 727 302 727 c 0,9,10
 376 727 376 727 420 671.5 c 128,-1,11
 464 616 464 616 447 542 c 1,0,1
394 542 m 0,12,13
 406 596 406 596 375 635 c 128,-1,14
 344 674 344 674 290 674 c 256,15,16
 236 674 236 674 189.5 635 c 128,-1,17
 143 596 143 596 131 542 c 0,18,19
 120 488 120 488 150.5 449.5 c 128,-1,20
 181 411 181 411 235 411 c 256,21,22
 289 411 289 411 336 449.5 c 128,-1,23
 383 488 383 488 394 542 c 0,12,13
EndSplineSet
EndChar

StartChar: guillemotright
Encoding: 187 187 125
Width: 442
VWidth: 1504
Flags: W
LayerCount: 2
Fore
SplineSet
42 72 m 1,0,-1
 -20 72 l 1,1,-1
 187 266 l 1,2,-1
 63 465 l 1,3,-1
 126 465 l 1,4,-1
 250 266 l 1,5,-1
 42 72 l 1,0,-1
209 72 m 1,6,-1
 146 72 l 1,7,-1
 353 266 l 1,8,-1
 230 465 l 1,9,-1
 293 465 l 1,10,-1
 417 266 l 1,11,-1
 209 72 l 1,6,-1
EndSplineSet
EndChar

StartChar: onequarter
Encoding: 188 188 126
Width: 806
VWidth: 1504
Flags: W
LayerCount: 2
Fore
SplineSet
152 -14 m 1,0,-1
 102 -14 l 1,1,-1
 681 702 l 1,2,-1
 731 702 l 1,3,-1
 152 -14 l 1,0,-1
242 280 m 1,4,-1
 59 280 l 1,5,-1
 66 316 l 1,6,-1
 132 316 l 1,7,-1
 197 618 l 1,8,-1
 129 569 l 1,9,-1
 108 605 l 1,10,-1
 235 699 l 1,11,12
 267 696 267 696 257 657 c 2,13,-1
 185 316 l 1,14,-1
 250 316 l 1,15,-1
 242 280 l 1,4,-1
602 143 m 1,16,-1
 648 366 l 1,17,18
 598 330 598 330 549 257 c 0,19,20
 502 191 502 191 489 143 c 1,21,-1
 602 143 l 1,16,-1
707 93 m 1,22,-1
 644 93 l 1,23,-1
 624 0 l 1,24,-1
 572 0 l 1,25,-1
 591 93 l 1,26,-1
 423 93 l 1,27,28
 446 194 446 194 523 299 c 0,29,30
 616 427 616 427 716 430 c 1,31,-1
 654 143 l 1,32,-1
 721 143 l 1,33,-1
 707 93 l 1,22,-1
EndSplineSet
Ligature2: "'frac' Diagonal Fractions in Latin lookup 0 subtable" one fraction four
Ligature2: "'frac' Diagonal Fractions in Latin lookup 0 subtable" one slash four
EndChar

StartChar: onehalf
Encoding: 189 189 127
Width: 806
VWidth: 1504
Flags: W
LayerCount: 2
Fore
SplineSet
152 -14 m 1,0,-1
 102 -14 l 1,1,-1
 681 702 l 1,2,-1
 731 702 l 1,3,-1
 152 -14 l 1,0,-1
242 280 m 1,4,-1
 59 280 l 1,5,-1
 66 316 l 1,6,-1
 132 316 l 1,7,-1
 197 618 l 1,8,-1
 129 569 l 1,9,-1
 108 605 l 1,10,-1
 235 699 l 1,11,12
 267 696 267 696 257 657 c 2,13,-1
 185 316 l 1,14,-1
 250 316 l 1,15,-1
 242 280 l 1,4,-1
696 0 m 1,16,-1
 424 0 l 1,17,18
 439 62 439 62 561 158 c 0,19,20
 609 196 609 196 656.5 236.5 c 128,-1,21
 704 277 704 277 711 317 c 0,22,23
 725 382 725 382 660 382 c 0,24,25
 588 382 588 382 564 299 c 1,26,-1
 514 308 l 1,27,28
 532 365 532 365 573.5 397 c 128,-1,29
 615 429 615 429 666 429 c 0,30,31
 720 429 720 429 748 399.5 c 128,-1,32
 776 370 776 370 764 317 c 1,33,34
 752 255 752 255 653 171 c 0,35,36
 578 108 578 108 508 47 c 1,37,-1
 711 47 l 1,38,-1
 696 0 l 1,16,-1
EndSplineSet
Ligature2: "'frac' Diagonal Fractions in Latin lookup 0 subtable" one fraction two
Ligature2: "'frac' Diagonal Fractions in Latin lookup 0 subtable" one slash two
EndChar

StartChar: threequarters
Encoding: 190 190 128
Width: 806
VWidth: 1504
Flags: W
LayerCount: 2
Fore
SplineSet
152 -14 m 1,0,-1
 102 -14 l 1,1,-1
 681 702 l 1,2,-1
 731 702 l 1,3,-1
 152 -14 l 1,0,-1
349 430 m 1,4,5
 335 361 335 361 281 319.5 c 128,-1,6
 227 278 227 278 153 277 c 0,7,8
 85 275 85 275 53 307 c 1,9,-1
 86 355 l 1,10,11
 115 326 115 326 159 326 c 0,12,13
 215 326 215 326 252.5 355 c 128,-1,14
 290 384 290 384 299 429 c 0,15,16
 313 495 313 495 250 495 c 0,17,18
 208 495 208 495 179 474 c 1,19,-1
 167 511 l 1,20,21
 253 564 253 564 263 572 c 0,22,23
 304 601 304 601 310 627 c 0,24,25
 316 657 316 657 266 657 c 0,26,27
 198 657 198 657 165 591 c 1,28,-1
 126 614 l 1,29,30
 186 707 186 707 281 707 c 256,31,32
 376 707 376 707 360 629 c 0,33,34
 355 602 355 602 327 573.5 c 128,-1,35
 299 545 299 545 272 534 c 1,36,37
 369 519 369 519 349 430 c 1,4,5
602 143 m 1,38,-1
 648 366 l 1,39,40
 598 330 598 330 549 257 c 0,41,42
 502 191 502 191 489 143 c 1,43,-1
 602 143 l 1,38,-1
707 93 m 1,44,-1
 644 93 l 1,45,-1
 624 0 l 1,46,-1
 572 0 l 1,47,-1
 591 93 l 1,48,-1
 423 93 l 1,49,50
 446 194 446 194 523 299 c 0,51,52
 616 427 616 427 716 430 c 1,53,-1
 654 143 l 1,54,-1
 721 143 l 1,55,-1
 707 93 l 1,44,-1
EndSplineSet
Ligature2: "'frac' Diagonal Fractions in Latin lookup 0 subtable" three fraction four
Ligature2: "'frac' Diagonal Fractions in Latin lookup 0 subtable" three slash four
EndChar

StartChar: questiondown
Encoding: 191 191 129
Width: 434
VWidth: 1504
Flags: W
LayerCount: 2
Fore
SplineSet
272 -184 m 1,0,1
 189 -231 189 -231 108 -230 c 0,2,3
 22 -230 22 -230 -11 -181 c 1,4,5
 -43 -137 -43 -137 -29 -72 c 0,6,7
 -11 8 -11 8 104 108 c 0,8,9
 194 186 194 186 211 263 c 0,10,11
 217 290 217 290 215 311 c 1,12,-1
 266 311 l 1,13,14
 269 288 269 288 263 259 c 0,15,16
 246 179 246 179 145 87 c 128,-1,17
 44 -5 44 -5 30 -69 c 0,18,19
 6 -177 6 -177 129 -177 c 0,20,21
 200 -177 200 -177 259 -138 c 1,22,-1
 272 -184 l 1,0,1
329 457 m 256,23,24
 324 434 324 434 304 418 c 128,-1,25
 284 402 284 402 262 402 c 256,26,27
 239 402 239 402 226.5 418.5 c 128,-1,28
 214 435 214 435 218 457 c 256,29,30
 223 480 223 480 243 496.5 c 128,-1,31
 263 513 263 513 286 513 c 256,32,33
 309 513 309 513 321.5 496.5 c 128,-1,34
 334 480 334 480 329 457 c 256,23,24
EndSplineSet
EndChar

StartChar: AE
Encoding: 198 198 136
Width: 875
VWidth: 1504
Flags: W
LayerCount: 2
Fore
SplineSet
754 0 m 1,0,-1
 432 0 l 1,1,-1
 451 295 l 1,2,-1
 205 295 l 1,3,-1
 -14 0 l 1,4,-1
 -75 0 l 1,5,-1
 460 716 l 1,6,-1
 887 716 l 1,7,-1
 877 666 l 1,8,-1
 534 666 l 1,9,-1
 513 402 l 1,10,-1
 803 402 l 1,11,-1
 793 352 l 1,12,-1
 510 352 l 1,13,-1
 492 50 l 1,14,-1
 764 50 l 1,15,-1
 754 0 l 1,0,-1
454 343 m 1,16,-1
 484 674 l 1,17,-1
 239 343 l 1,18,-1
 454 343 l 1,16,-1
EndSplineSet
EndChar

StartChar: Eth
Encoding: 208 208 146
Width: 648
VWidth: 1504
Flags: W
LayerCount: 2
Fore
SplineSet
618 373 m 0,0,1
 538 -6 538 -6 199 -6 c 0,2,3
 154 -6 154 -6 18 8 c 1,4,-1
 84 320 l 1,5,-1
 11 320 l 1,6,-1
 21 370 l 1,7,-1
 95 370 l 1,8,-1
 165 705 l 1,9,10
 308 723 308 723 384 724 c 0,11,12
 521 724 521 724 587 632 c 1,13,14
 653 535 653 535 618 373 c 0,0,1
560 373 m 0,15,16
 590 516 590 516 532 597 c 0,17,18
 479 672 479 672 369 672 c 0,19,20
 322 672 322 672 215 660 c 1,21,-1
 153 370 l 1,22,-1
 406 370 l 1,23,-1
 396 320 l 1,24,-1
 143 320 l 1,25,-1
 86 54 l 1,26,27
 160 45 160 45 227 45 c 0,28,29
 349 45 349 45 438 131.5 c 128,-1,30
 527 218 527 218 560 373 c 0,15,16
EndSplineSet
EndChar

StartChar: multiply
Encoding: 215 215 153
Width: 618
VWidth: 1504
Flags: W
LayerCount: 2
Fore
SplineSet
445 17 m 1,0,-1
 290 224 l 1,1,-1
 48 17 l 1,2,-1
 17 53 l 1,3,-1
 259 262 l 1,4,-1
 105 471 l 1,5,-1
 152 507 l 1,6,-1
 307 299 l 1,7,-1
 549 507 l 1,8,-1
 581 471 l 1,9,-1
 337 262 l 1,10,-1
 492 53 l 1,11,-1
 445 17 l 1,0,-1
EndSplineSet
EndChar

StartChar: Oslash
Encoding: 216 216 154
Width: 731
VWidth: 1504
Flags: W
LayerCount: 2
Fore
SplineSet
708 356 m 256,0,1
 673 195 673 195 558.5 90 c 128,-1,2
 444 -15 444 -15 296 -15 c 0,3,4
 219 -15 219 -15 164 12 c 1,5,-1
 125 -44 l 1,6,-1
 68 -44 l 1,7,-1
 125 38 l 1,8,9
 99 61 99 61 78 90 c 0,10,11
 9 195 9 195 44 356 c 256,12,13
 79 517 79 517 193 622.5 c 128,-1,14
 307 728 307 728 454 728 c 0,15,16
 531 728 531 728 588 698 c 1,17,-1
 618 742 l 1,18,-1
 680 742 l 1,19,-1
 629 671 l 1,20,21
 653 650 653 650 671 623 c 0,22,23
 743 517 743 517 708 356 c 256,0,1
554 650 m 1,24,25
 507 677 507 677 444 677 c 0,26,27
 324 677 324 677 227.5 583 c 128,-1,28
 131 489 131 489 102 356 c 256,29,30
 73 224 73 224 131 129 c 0,31,32
 145 106 145 106 161 90 c 1,33,-1
 554 650 l 1,24,25
650 356 m 256,34,35
 679 488 679 488 621 582 c 0,36,37
 609 603 609 603 593 618 c 1,38,-1
 199 62 l 1,39,40
 246 36 246 36 308 36 c 0,41,42
 428 36 428 36 524.5 130 c 128,-1,43
 621 224 621 224 650 356 c 256,34,35
EndSplineSet
EndChar

StartChar: Thorn
Encoding: 222 222 160
Width: 571
VWidth: 1504
Flags: W
LayerCount: 2
Fore
SplineSet
546 394 m 0,0,1
 522 281 522 281 434 223 c 128,-1,2
 346 165 346 165 215 165 c 0,3,4
 177 165 177 165 120 177 c 1,5,-1
 83 0 l 1,6,-1
 26 0 l 1,7,-1
 177 716 l 1,8,-1
 235 716 l 1,9,-1
 205 575 l 1,10,11
 271 592 271 592 331 591 c 0,12,13
 432 591 432 591 495 543 c 0,14,15
 566 487 566 487 546 394 c 0,0,1
489 387 m 0,16,17
 506 467 506 467 453 508 c 0,18,19
 408 543 408 543 320 543 c 0,20,21
 264 543 264 543 193 522 c 1,22,-1
 131 230 l 1,23,24
 182 213 182 213 229 214 c 0,25,26
 337 214 337 214 404.5 260 c 128,-1,27
 472 306 472 306 489 387 c 0,16,17
EndSplineSet
EndChar

StartChar: germandbls
Encoding: 223 223 161
Width: 589
VWidth: 1504
Flags: W
LayerCount: 2
Fore
SplineSet
502 153 m 0,0,1
 487 79 487 79 432 35 c 0,2,3
 373 -13 373 -13 286 -14 c 0,4,5
 212 -14 212 -14 164 17 c 1,6,-1
 193 66 l 1,7,8
 244 36 244 36 298 36 c 0,9,10
 358 36 358 36 397 67 c 128,-1,11
 436 98 436 98 447 144 c 0,12,13
 458 195 458 195 395 262 c 128,-1,14
 332 329 332 329 344 387 c 0,15,16
 353 428 353 428 415 476.5 c 128,-1,17
 477 525 477 525 483 555 c 0,18,19
 509 678 509 678 378 678 c 0,20,21
 228 678 228 678 176 432 c 1,22,-1
 66 -81 l 2,23,24
 49 -162 49 -162 3 -223 c 1,25,-1
 -47 -208 l 1,26,27
 -6 -149 -6 -149 8 -81 c 2,28,-1
 122 457 l 2,29,30
 181 732 181 732 400 733 c 0,31,32
 475 733 475 733 516 685.5 c 128,-1,33
 557 638 557 638 539 558 c 1,34,35
 527 498 527 498 468 457.5 c 128,-1,36
 409 417 409 417 402 382 c 0,37,38
 397 356 397 356 437.5 312.5 c 128,-1,39
 478 269 478 269 484 254 c 1,40,41
 513 201 513 201 502 153 c 0,0,1
EndSplineSet
EndChar

StartChar: ae
Encoding: 230 230 168
Width: 914
VWidth: 1504
Flags: W
LayerCount: 2
Fore
SplineSet
778 72 m 1,0,-1
 772 23 l 1,1,2
 677 -13 677 -13 575 -14 c 0,3,4
 420 -14 420 -14 373 117 c 1,5,6
 304 -14 304 -14 134 -14 c 0,7,8
 68 -14 68 -14 28 24 c 128,-1,9
 -12 62 -12 62 2 128 c 0,10,11
 43 319 43 319 375 319 c 2,12,-1
 384 319 l 1,13,-1
 385 328 l 1,14,15
 396 378 396 378 381 415 c 1,16,17
 360 475 360 475 277 475 c 0,18,19
 224 475 224 475 107 441 c 1,20,-1
 110 495 l 1,21,22
 200 522 200 522 290 522 c 0,23,24
 428 522 428 522 445 408 c 1,25,26
 541 522 541 522 681 522 c 0,27,28
 896 522 896 522 844 253 c 1,29,-1
 426 253 l 1,30,31
 408 151 408 151 453.5 94.5 c 128,-1,32
 499 38 499 38 591 38 c 0,33,34
 682 37 682 37 778 72 c 1,0,-1
361 215 m 2,35,-1
 372 268 l 1,36,37
 92 268 92 268 65 138 c 0,38,39
 54 88 54 88 79 62 c 128,-1,40
 104 36 104 36 149 36 c 0,41,42
 215 36 215 36 268 71 c 0,43,44
 340 117 340 117 361 215 c 2,35,-1
439 299 m 1,45,-1
 799 299 l 1,46,47
 811 361 811 361 787 409 c 1,48,49
 757 475 757 475 665 475 c 0,50,51
 582 475 582 475 516 415 c 0,52,53
 463 367 463 367 439 299 c 1,45,-1
EndSplineSet
EndChar

StartChar: eth
Encoding: 240 240 178
Width: 544
VWidth: 1504
Flags: W
LayerCount: 2
Fore
SplineSet
471 245 m 0,0,1
 448 135 448 135 378 63 c 0,2,3
 300 -18 300 -18 193 -18 c 0,4,5
 98 -18 98 -18 57.5 48 c 128,-1,6
 17 114 17 114 36 212 c 1,7,8
 57 307 57 307 127 374.5 c 128,-1,9
 197 442 197 442 286 442 c 0,10,11
 349 442 349 442 391 412 c 1,12,13
 420 388 420 388 423 367 c 1,14,15
 414 484 414 484 340 572 c 1,16,-1
 193 489 l 1,17,-1
 174 529 l 1,18,-1
 308 605 l 1,19,20
 251 656 251 656 179 678 c 1,21,-1
 194 722 l 1,22,23
 296 701 296 701 364 636 c 1,24,-1
 493 710 l 1,25,-1
 510 669 l 1,26,-1
 396 603 l 1,27,28
 416 580 416 580 430 554 c 0,29,30
 509 418 509 418 471 245 c 0,0,1
403 212 m 0,31,32
 420 287 420 287 386 340 c 128,-1,33
 352 393 352 393 287 393 c 0,34,35
 216 393 216 393 164.5 340 c 128,-1,36
 113 287 113 287 96 212 c 0,37,38
 81 138 81 138 109.5 85.5 c 128,-1,39
 138 33 138 33 211 33 c 0,40,41
 276 33 276 33 332 85.5 c 128,-1,42
 388 138 388 138 403 212 c 0,31,32
EndSplineSet
EndChar

StartChar: divide
Encoding: 247 247 185
Width: 618
VWidth: 1504
Flags: W
LayerCount: 2
Fore
SplineSet
391 454 m 256,0,1
 386 433 386 433 369 417.5 c 128,-1,2
 352 402 352 402 331 402 c 0,3,4
 308 402 308 402 298.5 417.5 c 128,-1,5
 289 433 289 433 293 454 c 0,6,7
 299 475 299 475 315.5 490 c 128,-1,8
 332 505 332 505 353 505 c 256,9,10
 374 505 374 505 385 490 c 128,-1,11
 396 475 396 475 391 454 c 256,0,1
311 89 m 256,12,13
 306 68 306 68 290 53 c 128,-1,14
 274 38 274 38 253 38 c 0,15,16
 230 38 230 38 220.5 53 c 128,-1,17
 211 68 211 68 215 89 c 256,18,19
 220 110 220 110 236.5 125.5 c 128,-1,20
 253 141 253 141 275 141 c 0,21,22
 296 141 296 141 306 125.5 c 128,-1,23
 316 110 316 110 311 89 c 256,12,13
549 248 m 1,24,-1
 45 248 l 1,25,-1
 56 298 l 1,26,-1
 560 298 l 1,27,-1
 549 248 l 1,24,-1
EndSplineSet
EndChar

StartChar: oslash
Encoding: 248 248 186
Width: 598
VWidth: 1504
Flags: W
LayerCount: 2
Fore
SplineSet
545 254 m 0,0,1
 521 141 521 141 433.5 63 c 128,-1,2
 346 -15 346 -15 230 -15 c 0,3,4
 164 -15 164 -15 111 15 c 1,5,-1
 62 -44 l 1,6,-1
 2 -44 l 1,7,-1
 75 45 l 1,8,9
 3 122 3 122 30 254 c 0,10,11
 54 367 54 367 141.5 444.5 c 128,-1,12
 229 522 229 522 344 522 c 0,13,14
 398 522 398 522 450 499 c 1,15,-1
 513 576 l 1,16,-1
 578 576 l 1,17,-1
 490 472 l 1,18,19
 575 395 575 395 545 254 c 0,0,1
487 254 m 0,20,21
 511 361 511 361 453 426 c 1,22,-1
 149 60 l 1,23,24
 187 34 187 34 241 35 c 0,25,26
 328 35 328 35 397.5 98 c 128,-1,27
 467 161 467 161 487 254 c 0,20,21
113 92 m 1,28,-1
 414 454 l 1,29,30
 379 472 379 472 334 472 c 0,31,32
 247 472 247 472 177.5 409.5 c 128,-1,33
 108 347 108 347 87 254 c 1,34,35
 68 157 68 157 113 92 c 1,28,-1
EndSplineSet
EndChar

StartChar: thorn
Encoding: 254 254 192
Width: 649
VWidth: 1504
Flags: W
LayerCount: 2
Fore
SplineSet
594 265 m 0,0,1
 565 134 565 134 472 57 c 0,2,3
 385 -14 385 -14 274 -14 c 0,4,5
 151 -14 151 -14 101 80 c 1,6,-1
 39 -211 l 1,7,-1
 -17 -211 l 1,8,-1
 176 707 l 1,9,-1
 233 707 l 1,10,-1
 173 418 l 1,11,12
 271 522 271 522 403 522 c 0,13,14
 511 522 511 522 566 445 c 0,15,16
 617 373 617 373 594 265 c 0,0,1
539 263 m 0,17,18
 559 355 559 355 516.5 415 c 128,-1,19
 474 475 474 475 384 475 c 0,20,21
 247 475 247 475 170 350 c 0,22,23
 152 320 152 320 146 290 c 2,24,-1
 126 202 l 2,25,26
 123 187 123 187 125 156 c 1,27,28
 136 105 136 105 179.5 70.5 c 128,-1,29
 223 36 223 36 289 36 c 0,30,31
 378 36 378 36 447 96 c 128,-1,32
 516 156 516 156 539 263 c 0,17,18
EndSplineSet
EndChar

StartChar: dotlessi
Encoding: 305 305 194
Width: 215
VWidth: 1504
Flags: W
LayerCount: 2
Fore
SplineSet
71 0 m 1,0,-1
 14 0 l 1,1,-1
 122 511 l 1,2,-1
 179 511 l 1,3,-1
 71 0 l 1,0,-1
EndSplineSet
EndChar

StartChar: Lslash
Encoding: 321 321 195
Width: 543
VWidth: 1504
Flags: W
LayerCount: 2
Fore
SplineSet
436 0 m 1,0,-1
 26 0 l 1,1,-1
 87 292 l 1,2,-1
 35 277 l 1,3,-1
 30 323 l 1,4,-1
 98 343 l 1,5,-1
 177 716 l 1,6,-1
 236 716 l 1,7,-1
 161 363 l 1,8,-1
 508 466 l 1,9,-1
 498 411 l 1,10,-1
 149 311 l 1,11,-1
 95 50 l 1,12,-1
 447 50 l 1,13,-1
 436 0 l 1,0,-1
EndSplineSet
EndChar

StartChar: lslash
Encoding: 322 322 196
Width: 314
VWidth: 1504
Flags: W
LayerCount: 2
Fore
SplineSet
292 403 m 1,0,-1
 281 350 l 1,1,-1
 149 310 l 1,2,-1
 143 280 l 1,3,4
 119 169 119 169 129 120 c 1,5,6
 141 43 141 43 229 41 c 1,7,-1
 212 -11 l 1,8,9
 24 -2 24 -2 80 257 c 2,10,-1
 87 292 l 1,11,-1
 35 277 l 1,12,-1
 30 323 l 1,13,-1
 98 343 l 1,14,-1
 187 760 l 1,15,-1
 245 760 l 1,16,-1
 161 363 l 1,17,-1
 292 403 l 1,0,-1
EndSplineSet
EndChar

StartChar: OE
Encoding: 338 338 197
Width: 1069
VWidth: 1504
Flags: W
LayerCount: 2
Fore
SplineSet
958 50 m 1,0,-1
 948 0 l 1,1,-1
 558 0 l 1,2,-1
 581 111 l 1,3,4
 459 -15 459 -15 296 -15 c 0,5,6
 149 -15 149 -15 79 90.5 c 128,-1,7
 9 196 9 196 44 356 c 256,8,9
 79 517 79 517 193 622.5 c 128,-1,10
 307 728 307 728 454 728 c 0,11,12
 616 728 616 728 686 602 c 1,13,-1
 710 716 l 1,14,-1
 1100 716 l 1,15,-1
 1089 666 l 1,16,-1
 758 666 l 1,17,-1
 701 403 l 1,18,-1
 996 403 l 1,19,-1
 985 353 l 1,20,-1
 690 353 l 1,21,-1
 627 50 l 1,22,-1
 958 50 l 1,0,-1
603 218 m 1,23,-1
 660 481 l 1,24,25
 665 555 665 555 602 615 c 0,26,27
 536 677 536 677 444 677 c 0,28,29
 324 677 324 677 227.5 583 c 128,-1,30
 131 489 131 489 102 356 c 256,31,32
 73 224 73 224 130.5 130 c 128,-1,33
 188 36 188 36 308 36 c 0,34,35
 394 36 394 36 473 85.5 c 128,-1,36
 552 135 552 135 603 218 c 1,23,-1
EndSplineSet
EndChar

StartChar: oe
Encoding: 339 339 198
Width: 1021
VWidth: 1504
Flags: W
LayerCount: 2
Fore
SplineSet
897 72 m 1,0,-1
 890 23 l 1,1,2
 795 -13 795 -13 693 -14 c 0,3,4
 528 -14 528 -14 486 122 c 1,5,6
 388 -15 388 -15 230 -15 c 0,7,8
 114 -15 114 -15 60 63 c 128,-1,9
 6 141 6 141 30 254 c 256,10,11
 54 367 54 367 141.5 444.5 c 128,-1,12
 229 522 229 522 344 522 c 0,13,14
 506 522 506 522 543 382 c 1,15,16
 638 522 638 522 800 522 c 0,17,18
 1015 522 1015 522 963 253 c 1,19,-1
 545 253 l 1,20,21
 522 146 522 146 569.5 92 c 128,-1,22
 617 38 617 38 710 38 c 0,23,24
 799 37 799 37 897 72 c 1,0,-1
487 254 m 0,25,26
 508 346 508 346 465.5 409 c 128,-1,27
 423 472 423 472 334 472 c 0,28,29
 247 472 247 472 177.5 409.5 c 128,-1,30
 108 347 108 347 87 254 c 0,31,32
 67 161 67 161 110 98 c 128,-1,33
 153 35 153 35 241 35 c 0,34,35
 327 35 327 35 396.5 97 c 128,-1,36
 466 159 466 159 487 254 c 0,25,26
918 299 m 1,37,38
 932 376 932 376 896 425.5 c 128,-1,39
 860 475 860 475 784 475 c 0,40,41
 710 475 710 475 648.5 426.5 c 128,-1,42
 587 378 587 378 558 299 c 1,43,-1
 918 299 l 1,37,38
EndSplineSet
EndChar

StartChar: florin
Encoding: 402 402 204
Width: 598
VWidth: 1504
Flags: W
LayerCount: 2
Fore
SplineSet
692 671 m 1,0,-1
 657 629 l 1,1,2
 633 646 633 646 591 645 c 0,3,4
 474 645 474 645 390 454 c 1,5,-1
 372 415 l 1,6,-1
 519 415 l 1,7,-1
 501 369 l 1,8,-1
 353 369 l 1,9,-1
 251 132 l 2,10,11
 147 -109 147 -109 -32 -108 c 0,12,13
 -89 -108 -89 -108 -107 -84 c 1,14,-1
 -72 -42 l 1,15,16
 -48 -59 -48 -59 -6 -59 c 0,17,18
 110 -59 110 -59 193 132 c 2,19,-1
 295 369 l 1,20,-1
 209 369 l 1,21,-1
 227 415 l 1,22,-1
 314 415 l 1,23,-1
 332 454 l 1,24,25
 439 695 439 695 617 695 c 0,26,27
 674 695 674 695 692 671 c 1,0,-1
EndSplineSet
EndChar

StartChar: circumflex
Encoding: 710 710 205
Width: 318
VWidth: 1504
Flags: W
LayerCount: 2
Fore
SplineSet
308 707 m 1,0,-1
 388 590 l 1,1,-1
 332 590 l 1,2,-1
 280 668 l 1,3,-1
 194 590 l 1,4,-1
 138 590 l 1,5,-1
 266 707 l 1,6,-1
 308 707 l 1,0,-1
EndSplineSet
EndChar

StartChar: caron
Encoding: 711 711 206
Width: 318
VWidth: 1504
Flags: W
LayerCount: 2
Fore
SplineSet
238 578 m 1,0,-1
 196 578 l 1,1,-1
 117 695 l 1,2,-1
 173 695 l 1,3,-1
 226 617 l 1,4,-1
 311 695 l 1,5,-1
 367 695 l 1,6,-1
 238 578 l 1,0,-1
EndSplineSet
EndChar

StartChar: breve
Encoding: 728 728 207
Width: 454
VWidth: 1504
Flags: W
LayerCount: 2
Fore
SplineSet
483 681 m 1,0,1
 466 640 466 640 432 615 c 0,2,3
 385 579 385 579 326 579 c 256,4,5
 267 579 267 579 235 615 c 1,6,7
 214 641 214 641 214 681 c 1,8,-1
 266 681 l 1,9,10
 268 664 268 664 277 653 c 0,11,12
 295 626 295 626 337 626 c 256,13,14
 379 626 379 626 408 653 c 0,15,16
 422 665 422 665 432 681 c 1,17,-1
 483 681 l 1,0,1
EndSplineSet
EndChar

StartChar: dotaccent
Encoding: 729 729 208
Width: 454
VWidth: 1504
Flags: W
LayerCount: 2
Fore
SplineSet
385 812 m 256,0,1
 380 791 380 791 362 777 c 128,-1,2
 344 763 344 763 322 763 c 0,3,4
 301 763 301 763 289.5 777 c 128,-1,5
 278 791 278 791 283 812 c 256,6,7
 288 833 288 833 305.5 849 c 128,-1,8
 323 865 323 865 344 865 c 0,9,10
 367 865 367 865 378.5 849 c 128,-1,11
 390 833 390 833 385 812 c 256,0,1
EndSplineSet
EndChar

StartChar: ring
Encoding: 730 730 209
Width: 454
VWidth: 1504
Flags: W
LayerCount: 2
Fore
SplineSet
462 662 m 0,0,1
 453 618 453 618 414 586 c 128,-1,2
 375 554 375 554 328 554 c 0,3,4
 284 554 284 554 258.5 586 c 128,-1,5
 233 618 233 618 242 662 c 0,6,7
 253 709 253 709 292 742 c 128,-1,8
 331 775 331 775 375 775 c 0,9,10
 422 775 422 775 447.5 742 c 128,-1,11
 473 709 473 709 462 662 c 0,0,1
418 660 m 0,12,13
 424 689 424 689 409 708 c 128,-1,14
 394 727 394 727 366 727 c 0,15,16
 339 727 339 727 317 708 c 128,-1,17
 295 689 295 689 289 660 c 0,18,19
 283 634 283 634 297 616.5 c 128,-1,20
 311 599 311 599 338 599 c 0,21,22
 367 599 367 599 389.5 616.5 c 128,-1,23
 412 634 412 634 418 660 c 0,12,13
EndSplineSet
EndChar

StartChar: ogonek
Encoding: 731 731 210
Width: 454
VWidth: 1504
Flags: W
LayerCount: 2
Fore
SplineSet
217 -215 m 1,0,1
 185 -227 185 -227 160 -232.5 c 128,-1,2
 135 -238 135 -238 110 -238 c 0,3,4
 56 -238 56 -238 37 -205.5 c 128,-1,5
 18 -173 18 -173 27 -129 c 0,6,7
 33 -102 33 -102 48 -67.5 c 128,-1,8
 63 -33 63 -33 83 6 c 1,9,-1
 143 6 l 1,10,11
 99 -68 99 -68 89 -114 c 0,12,13
 75 -179 75 -179 134 -184 c 1,14,15
 179 -184 179 -184 227 -161 c 1,16,-1
 217 -215 l 1,0,1
EndSplineSet
EndChar

StartChar: tilde
Encoding: 732 732 211
Width: 318
VWidth: 1504
Flags: W
LayerCount: 2
Fore
SplineSet
372 687 m 1,0,1
 361 648 361 648 336 621 c 128,-1,2
 311 594 311 594 277 594 c 0,3,4
 263 594 263 594 249 601 c 128,-1,5
 235 608 235 608 220.5 615.5 c 128,-1,6
 206 623 206 623 193.5 629.5 c 128,-1,7
 181 636 181 636 170 636 c 0,8,9
 158 636 158 636 148 622.5 c 128,-1,10
 138 609 138 609 132 588 c 1,11,-1
 95 588 l 1,12,13
 104 624 104 624 124 654 c 128,-1,14
 144 684 144 684 179 684 c 0,15,16
 194 684 194 684 207.5 677.5 c 128,-1,17
 221 671 221 671 234.5 662 c 128,-1,18
 248 653 248 653 261.5 646 c 128,-1,19
 275 639 275 639 292 639 c 0,20,21
 303 639 303 639 314 650.5 c 128,-1,22
 325 662 325 662 332 687 c 1,23,-1
 372 687 l 1,0,1
EndSplineSet
EndChar

StartChar: hungarumlaut
Encoding: 733 733 212
Width: 419
VWidth: 1504
Flags: W
LayerCount: 2
Fore
SplineSet
275 496 m 1,0,-1
 235 496 l 1,1,-1
 375 739 l 1,2,-1
 445 739 l 1,3,-1
 275 496 l 1,0,-1
144 496 m 1,4,-1
 104 496 l 1,5,-1
 244 739 l 1,6,-1
 314 739 l 1,7,-1
 144 496 l 1,4,-1
EndSplineSet
EndChar

StartChar: uni0E01
Encoding: 3585 3585 214
Width: 580
VWidth: 1504
Flags: W
LayerCount: 2
Fore
SplineSet
442 51 m 1,0,1
 424 -20 424 -20 370 -56 c 1,2,-1
 328 -29 l 1,3,4
 379 10 379 10 393 71 c 2,5,-1
 460 393 l 2,6,7
 475 467 475 467 439 510.5 c 128,-1,8
 403 554 403 554 331 554 c 0,9,10
 280 554 280 554 225.5 525 c 128,-1,11
 171 496 171 496 143 451 c 1,12,13
 230 443 230 443 251 385 c 1,14,15
 213 377 213 377 179.5 345 c 128,-1,16
 146 313 146 313 137 274 c 2,17,-1
 80 0 l 1,18,-1
 26 0 l 1,19,-1
 83 272 l 2,20,21
 103 361 103 361 187 393 c 1,22,23
 142 417 142 417 75 409 c 1,24,25
 105 493 105 493 181 547.5 c 128,-1,26
 257 602 257 602 344 602 c 0,27,28
 442 602 442 602 488.5 547.5 c 128,-1,29
 535 493 535 493 516 399 c 2,30,-1
 442 51 l 1,0,1
EndSplineSet
EndChar

StartChar: uni0E02
Encoding: 3586 3586 215
Width: 568
VWidth: 1504
Flags: W
LayerCount: 2
Fore
SplineSet
194 435 m 256,0,1
 199 456 199 456 188 469.5 c 128,-1,2
 177 483 177 483 156 483 c 256,3,4
 135 483 135 483 118.5 469.5 c 128,-1,5
 102 456 102 456 98 435 c 256,6,7
 93 414 93 414 103.5 400.5 c 128,-1,8
 114 387 114 387 135 387 c 256,9,10
 156 387 156 387 172.5 400.5 c 128,-1,11
 189 414 189 414 194 435 c 256,0,1
445 125 m 2,12,13
 416 -12 416 -12 278 -12 c 0,14,15
 143 -12 143 -12 171 125 c 2,16,-1
 202 268 l 2,17,18
 211 306 211 306 262 370.5 c 128,-1,19
 313 435 313 435 320 471 c 0,20,21
 328 506 328 506 304 532 c 128,-1,22
 280 558 280 558 238 558 c 0,23,24
 172 558 172 558 128 514 c 1,25,26
 143 520 143 520 164 520 c 0,27,28
 203 520 203 520 222.5 495.5 c 128,-1,29
 242 471 242 471 235 433 c 0,30,31
 226 394 226 394 195.5 367.5 c 128,-1,32
 165 341 165 341 126 341 c 0,33,34
 79 341 79 341 62 376 c 128,-1,35
 45 411 45 411 56 460 c 0,36,37
 67 516 67 516 119 559 c 128,-1,38
 171 602 171 602 248 602 c 0,39,40
 314 602 314 602 349.5 568.5 c 128,-1,41
 385 535 385 535 373 478 c 0,42,43
 364 434 364 434 313 363.5 c 128,-1,44
 262 293 262 293 254 260 c 2,45,-1
 226 120 l 2,46,47
 208 36 208 36 290 36 c 256,48,49
 373 36 373 36 391 120 c 2,50,-1
 483 552 l 2,51,52
 495 609 495 609 526 642 c 1,53,-1
 569 615 l 1,54,55
 548 597 548 597 532 532 c 2,56,-1
 445 125 l 2,12,13
EndSplineSet
EndChar

StartChar: uni0E03
Encoding: 3587 3587 216
Width: 574
VWidth: 1504
Flags: W
LayerCount: 2
Fore
SplineSet
187 375 m 256,0,1
 192 396 192 396 181 409.5 c 128,-1,2
 170 423 170 423 149 423 c 256,3,4
 128 423 128 423 111.5 409.5 c 128,-1,5
 95 396 95 396 90 375 c 256,6,7
 85 354 85 354 96.5 340 c 128,-1,8
 108 326 108 326 129 326 c 256,9,10
 150 326 150 326 166 340 c 128,-1,11
 182 354 182 354 187 375 c 256,0,1
451 125 m 2,12,13
 422 -12 422 -12 284 -12 c 0,14,15
 149 -12 149 -12 177 125 c 1,16,-1
 199 220 l 1,17,18
 208 268 208 268 268.5 341 c 128,-1,19
 329 414 329 414 340 460 c 0,20,21
 357 538 357 538 301 551 c 1,22,-1
 235 487 l 1,23,-1
 194 549 l 1,24,25
 138 516 138 516 111 462 c 1,26,27
 134 471 134 471 161 471 c 0,28,29
 205 471 205 471 224.5 443 c 128,-1,30
 244 415 244 415 235 373 c 0,31,32
 226 329 226 329 192 302 c 128,-1,33
 158 275 158 275 117 275 c 0,34,35
 66 275 66 275 48 317 c 0,36,37
 33 355 33 355 44 409 c 0,38,39
 58 474 58 474 105 529 c 0,40,41
 158 591 158 591 223 603 c 1,42,-1
 248 551 l 1,43,-1
 301 603 l 1,44,45
 354 597 354 597 379 552 c 1,46,47
 400 510 400 510 388 456 c 0,48,49
 377 409 377 409 318.5 334 c 128,-1,50
 260 259 260 259 251 215 c 2,51,-1
 232 120 l 2,52,53
 214 36 214 36 296 36 c 256,54,55
 379 36 379 36 397 120 c 2,56,-1
 489 552 l 2,57,58
 501 609 501 609 532 642 c 1,59,-1
 575 615 l 1,60,61
 554 597 554 597 539 532 c 2,62,-1
 451 125 l 2,12,13
EndSplineSet
EndChar

StartChar: uni0E04
Encoding: 3588 3588 217
Width: 591
VWidth: 1504
Flags: W
LayerCount: 2
Fore
SplineSet
453 51 m 1,0,1
 435 -20 435 -20 381 -56 c 1,2,-1
 338 -29 l 1,3,4
 389 10 389 10 403 71 c 2,5,-1
 474 405 l 2,6,7
 489 477 489 477 444 515.5 c 128,-1,8
 399 554 399 554 331 554 c 0,9,10
 262 554 262 554 199.5 506.5 c 128,-1,11
 137 459 137 459 123 390 c 0,12,13
 115 357 115 357 117 310 c 0,14,15
 120 244 120 244 120 235 c 1,16,17
 152 321 152 321 197 381 c 0,18,19
 257 459 257 459 323 459 c 0,20,21
 361 459 361 459 380.5 435 c 128,-1,22
 400 411 400 411 391 370 c 0,23,24
 382 332 382 332 351 306 c 128,-1,25
 320 280 320 280 283 280 c 0,26,27
 244 280 244 280 221 316 c 1,28,29
 194 284 194 284 159 226 c 0,30,31
 118 154 118 154 107 98 c 2,32,-1
 87 0 l 1,33,-1
 33 0 l 1,34,-1
 62 138 l 2,35,36
 71 182 71 182 64 261.5 c 128,-1,37
 57 341 57 341 66 384 c 0,38,39
 87 482 87 482 166 542 c 128,-1,40
 245 602 245 602 344 602 c 0,41,42
 436 602 436 602 492.5 553 c 128,-1,43
 549 504 549 504 528 409 c 2,44,-1
 453 51 l 1,0,1
349 370 m 256,45,46
 354 390 354 390 342.5 403.5 c 128,-1,47
 331 417 331 417 311 417 c 256,48,49
 291 417 291 417 275.5 403.5 c 128,-1,50
 260 390 260 390 256 370 c 256,51,52
 251 350 251 350 261.5 336.5 c 128,-1,53
 272 323 272 323 292 323 c 256,54,55
 312 323 312 323 328 336.5 c 128,-1,56
 344 350 344 350 349 370 c 256,45,46
EndSplineSet
EndChar

StartChar: uni0E05
Encoding: 3589 3589 218
Width: 591
VWidth: 1504
Flags: W
LayerCount: 2
Fore
SplineSet
453 51 m 1,0,1
 435 -20 435 -20 381 -56 c 1,2,-1
 338 -29 l 1,3,4
 389 10 389 10 403 71 c 2,5,-1
 477 421 l 2,6,7
 498 525 498 525 403 549 c 1,8,-1
 314 468 l 1,9,-1
 251 551 l 1,10,11
 198 525 198 525 161 472 c 0,12,13
 134 433 134 433 126 399 c 0,14,15
 115 348 115 348 117 220 c 1,16,17
 200 425 200 425 313 424 c 0,18,19
 352 424 352 424 371.5 400 c 128,-1,20
 391 376 391 376 382 337 c 0,21,22
 374 299 374 299 344 273.5 c 128,-1,23
 314 248 314 248 278 248 c 0,24,25
 230 248 230 248 206 283 c 1,26,27
 182 262 182 262 152 203 c 0,28,29
 119 138 119 138 107 81 c 2,30,-1
 90 0 l 1,31,-1
 36 0 l 1,32,-1
 62 120 l 2,33,34
 71 167 71 167 64 254 c 128,-1,35
 57 341 57 341 66 387 c 0,36,37
 104 560 104 560 277 605 c 1,38,-1
 326 528 l 1,39,-1
 403 605 l 1,40,41
 561 572 561 572 531 424 c 2,42,-1
 453 51 l 1,0,1
341 337 m 256,43,44
 346 357 346 357 335.5 370.5 c 128,-1,45
 325 384 325 384 305 384 c 256,46,47
 285 384 285 384 269 370 c 128,-1,48
 253 356 253 356 248 337 c 256,49,50
 243 317 243 317 254.5 303.5 c 128,-1,51
 266 290 266 290 286 290 c 256,52,53
 306 290 306 290 321 303.5 c 128,-1,54
 336 317 336 317 341 337 c 256,43,44
EndSplineSet
EndChar

StartChar: uni0E06
Encoding: 3590 3590 219
Width: 613
VWidth: 1504
Flags: W
LayerCount: 2
Fore
SplineSet
217 92 m 256,0,1
 222 113 222 113 209.5 128.5 c 128,-1,2
 197 144 197 144 176 144 c 256,3,4
 155 144 155 144 135.5 128.5 c 128,-1,5
 116 113 116 113 111 92 c 256,6,7
 106 71 106 71 119 55 c 128,-1,8
 132 39 132 39 153 39 c 256,9,10
 174 39 174 39 193 55 c 128,-1,11
 212 71 212 71 217 92 c 256,0,1
187 375 m 256,12,13
 192 396 192 396 181 409.5 c 128,-1,14
 170 423 170 423 149 423 c 256,15,16
 128 423 128 423 111.5 409.5 c 128,-1,17
 95 396 95 396 90 375 c 256,18,19
 85 354 85 354 96.5 340 c 128,-1,20
 108 326 108 326 129 326 c 256,21,22
 150 326 150 326 166 340 c 128,-1,23
 182 354 182 354 187 375 c 256,12,13
465 0 m 1,24,-1
 411 0 l 1,25,26
 372 123 372 123 259 149 c 1,27,28
 274 125 274 125 266 92 c 0,29,30
 257 48 257 48 222 18 c 128,-1,31
 187 -12 187 -12 143 -12 c 0,32,33
 98 -12 98 -12 74.5 18 c 128,-1,34
 51 48 51 48 60 92 c 0,35,36
 71 136 71 136 107 165 c 128,-1,37
 143 194 143 194 187 194 c 2,38,-1
 193 194 l 1,39,-1
 199 220 l 1,40,41
 208 268 208 268 268.5 341 c 128,-1,42
 329 414 329 414 340 460 c 0,43,44
 357 538 357 538 301 551 c 1,45,-1
 235 487 l 1,46,-1
 194 549 l 1,47,48
 138 516 138 516 111 462 c 1,49,50
 134 471 134 471 161 471 c 0,51,52
 205 471 205 471 224.5 443 c 128,-1,53
 244 415 244 415 235 373 c 0,54,55
 226 329 226 329 192 302 c 128,-1,56
 158 275 158 275 117 275 c 0,57,58
 66 275 66 275 48 317 c 0,59,60
 33 355 33 355 44 409 c 0,61,62
 58 474 58 474 105 529 c 0,63,64
 158 591 158 591 223 603 c 1,65,-1
 248 551 l 1,66,-1
 301 603 l 1,67,68
 354 597 354 597 377 555.5 c 128,-1,69
 400 514 400 514 388 456 c 0,70,71
 377 409 377 409 318.5 334 c 128,-1,72
 260 259 260 259 251 215 c 2,73,-1
 247 193 l 1,74,75
 378 178 378 178 427 81 c 1,76,-1
 528 552 l 2,77,78
 540 609 540 609 572 642 c 1,79,-1
 614 615 l 1,80,81
 593 597 593 597 578 532 c 2,82,-1
 465 0 l 1,24,-1
EndSplineSet
EndChar

StartChar: uni0E07
Encoding: 3591 3591 220
Width: 442
VWidth: 1504
Flags: W
LayerCount: 2
Fore
SplineSet
350 504 m 256,0,1
 355 525 355 525 343 540 c 128,-1,2
 331 555 331 555 310 555 c 256,3,4
 289 555 289 555 271 540 c 128,-1,5
 253 525 253 525 248 504 c 256,6,7
 243 483 243 483 254.5 468 c 128,-1,8
 266 453 266 453 287 453 c 256,9,10
 308 453 308 453 326.5 468 c 128,-1,11
 345 483 345 483 350 504 c 256,0,1
293 0 m 1,12,-1
 239 0 l 1,13,-1
 59 265 l 2,14,15
 41 294 41 294 35 329 c 1,16,-1
 71 373 l 1,17,18
 80 329 80 329 105 289 c 1,19,-1
 254 77 l 1,20,-1
 326 414 l 1,21,22
 302 403 302 403 277 403 c 0,23,24
 236 403 236 403 213.5 432.5 c 128,-1,25
 191 462 191 462 199 501 c 0,26,27
 208 545 208 545 243 573.5 c 128,-1,28
 278 602 278 602 320 602 c 0,29,30
 368 602 368 602 390 570 c 0,31,32
 408 541 408 541 399 501 c 2,33,-1
 293 0 l 1,12,-1
EndSplineSet
EndChar

StartChar: uni0E08
Encoding: 3592 3592 221
Width: 552
VWidth: 1504
Flags: W
LayerCount: 2
Fore
SplineSet
423 98 m 2,0,1
 400 -13 400 -13 293 -14 c 0,2,3
 209 -14 209 -14 214 71 c 2,4,-1
 224 239 l 1,5,6
 198 225 198 225 170 226 c 0,7,8
 132 226 132 226 112.5 251.5 c 128,-1,9
 93 277 93 277 101 314 c 0,10,11
 109 353 109 353 140 379.5 c 128,-1,12
 171 406 171 406 209 406 c 0,13,14
 242 406 242 406 263 384.5 c 128,-1,15
 284 363 284 363 283 329 c 2,16,-1
 272 74 l 2,17,18
 270 36 270 36 307 36 c 0,19,20
 357 36 357 36 367 90 c 2,21,-1
 442 444 l 2,22,23
 454 503 454 503 413.5 527.5 c 128,-1,24
 373 552 373 552 311 552 c 0,25,26
 243 552 243 552 192 523.5 c 128,-1,27
 141 495 141 495 120 445 c 1,28,-1
 65 445 l 1,29,30
 86 508 86 508 146 551 c 0,31,32
 220 602 220 602 320 602 c 0,33,34
 531 602 531 602 496 444 c 2,35,-1
 423 98 l 2,0,1
238 314 m 256,36,37
 243 334 243 334 232 347.5 c 128,-1,38
 221 361 221 361 202 361 c 256,39,40
 182 361 182 361 166 347.5 c 128,-1,41
 150 334 150 334 146 314 c 256,42,43
 141 294 141 294 151.5 281.5 c 128,-1,44
 162 269 162 269 182 269 c 256,45,46
 202 269 202 269 217.5 281.5 c 128,-1,47
 233 294 233 294 238 314 c 256,36,37
EndSplineSet
EndChar

StartChar: uni0E09
Encoding: 3593 3593 222
Width: 567
VWidth: 1504
Flags: W
LayerCount: 2
Fore
SplineSet
462 83 m 0,0,1
 454 44 454 44 422.5 16.5 c 128,-1,2
 391 -11 391 -11 347 -11 c 0,3,4
 308 -11 308 -11 287 16.5 c 128,-1,5
 266 44 266 44 274 83 c 0,6,7
 277 97 277 97 280 102 c 1,8,9
 187 66 187 66 128 0 c 1,10,-1
 60 0 l 1,11,-1
 89 140 l 2,12,13
 98 184 98 184 114 206 c 1,14,-1
 108 206 l 2,15,16
 70 206 70 206 49.5 232.5 c 128,-1,17
 29 259 29 259 36 296 c 0,18,19
 45 335 45 335 76.5 361.5 c 128,-1,20
 108 388 108 388 146 388 c 0,21,22
 185 388 185 388 206 361.5 c 128,-1,23
 227 335 227 335 218 296 c 0,24,25
 212 267 212 267 182 224.5 c 128,-1,26
 152 182 152 182 146 149 c 2,27,-1
 125 53 l 1,28,29
 190 125 190 125 311 159 c 1,30,31
 406 198 406 198 424 289 c 1,32,-1
 457 439 l 2,33,34
 468 492 468 492 421 525 c 0,35,36
 380 552 380 552 319 552 c 0,37,38
 262 552 262 552 208 525 c 0,39,40
 146 493 146 493 123 442 c 1,41,-1
 68 442 l 1,42,43
 86 505 86 505 150 551 c 0,44,45
 225 602 225 602 326 602 c 0,46,47
 424 602 424 602 474 563 c 0,48,49
 528 519 528 519 510 438 c 2,50,-1
 478 286 l 2,51,52
 463 214 463 214 414 173 c 1,53,54
 477 152 477 152 462 83 c 0,0,1
418 83 m 0,55,56
 423 104 423 104 411.5 118 c 128,-1,57
 400 132 400 132 379 132 c 0,58,59
 359 132 359 132 341 118 c 128,-1,60
 323 104 323 104 319 83 c 0,61,62
 314 63 314 63 326 48 c 128,-1,63
 338 33 338 33 358 33 c 0,64,65
 379 33 379 33 396 48 c 128,-1,66
 413 63 413 63 418 83 c 0,55,56
173 296 m 0,67,68
 178 316 178 316 168 328.5 c 128,-1,69
 158 341 158 341 138 341 c 256,70,71
 118 341 118 341 102.5 328.5 c 128,-1,72
 87 316 87 316 83 296 c 0,73,74
 80 276 80 276 89.5 263.5 c 128,-1,75
 99 251 99 251 119 251 c 256,76,77
 139 251 139 251 154.5 263.5 c 128,-1,78
 170 276 170 276 173 296 c 0,67,68
EndSplineSet
EndChar

StartChar: uni0E0A
Encoding: 3594 3594 223
Width: 571
VWidth: 1504
Flags: W
LayerCount: 2
Fore
SplineSet
448 125 m 2,0,1
 419 -12 419 -12 280 -12 c 0,2,3
 143 -12 143 -12 171 125 c 2,4,-1
 202 268 l 2,5,6
 211 306 211 306 262 370.5 c 128,-1,7
 313 435 313 435 320 471 c 0,8,9
 328 506 328 506 304 532 c 128,-1,10
 280 558 280 558 238 558 c 0,11,12
 172 558 172 558 128 514 c 1,13,14
 143 520 143 520 164 520 c 0,15,16
 203 520 203 520 222.5 495.5 c 128,-1,17
 242 471 242 471 235 433 c 0,18,19
 226 394 226 394 195.5 367.5 c 128,-1,20
 165 341 165 341 126 341 c 0,21,22
 79 341 79 341 62 376 c 128,-1,23
 45 411 45 411 56 460 c 0,24,25
 67 516 67 516 119 559 c 128,-1,26
 171 602 171 602 248 602 c 0,27,28
 314 602 314 602 349.5 568.5 c 128,-1,29
 385 535 385 535 373 478 c 0,30,31
 364 434 364 434 313 363.5 c 128,-1,32
 262 293 262 293 254 260 c 2,33,-1
 226 120 l 2,34,35
 208 36 208 36 292 36 c 256,36,37
 376 36 376 36 394 120 c 2,38,-1
 445 363 l 2,39,40
 459 429 459 429 399 451 c 1,41,42
 423 520 423 520 475.5 573.5 c 128,-1,43
 528 627 528 627 603 642 c 1,44,-1
 630 605 l 1,45,46
 511 584 511 584 456 471 c 1,47,48
 518 447 518 447 501 369 c 2,49,-1
 448 125 l 2,0,1
194 435 m 256,50,51
 199 456 199 456 188 469.5 c 128,-1,52
 177 483 177 483 156 483 c 256,53,54
 135 483 135 483 118.5 469.5 c 128,-1,55
 102 456 102 456 98 435 c 256,56,57
 93 414 93 414 103.5 400.5 c 128,-1,58
 114 387 114 387 135 387 c 256,59,60
 156 387 156 387 172.5 400.5 c 128,-1,61
 189 414 189 414 194 435 c 256,50,51
EndSplineSet
EndChar

StartChar: uni0E0B
Encoding: 3595 3595 224
Width: 577
VWidth: 1504
Flags: W
LayerCount: 2
Fore
SplineSet
187 375 m 256,0,1
 192 396 192 396 181 409.5 c 128,-1,2
 170 423 170 423 149 423 c 256,3,4
 128 423 128 423 111.5 409.5 c 128,-1,5
 95 396 95 396 90 375 c 256,6,7
 85 354 85 354 96.5 340 c 128,-1,8
 108 326 108 326 129 326 c 256,9,10
 150 326 150 326 166 340 c 128,-1,11
 182 354 182 354 187 375 c 256,0,1
454 125 m 2,12,13
 425 -12 425 -12 286 -12 c 0,14,15
 149 -12 149 -12 177 125 c 1,16,-1
 199 220 l 1,17,18
 208 268 208 268 268.5 341 c 128,-1,19
 329 414 329 414 340 460 c 0,20,21
 357 538 357 538 301 551 c 1,22,-1
 235 487 l 1,23,-1
 194 549 l 1,24,25
 138 516 138 516 111 462 c 1,26,27
 134 471 134 471 161 471 c 0,28,29
 205 471 205 471 224.5 443 c 128,-1,30
 244 415 244 415 235 373 c 0,31,32
 226 329 226 329 192 302 c 128,-1,33
 158 275 158 275 117 275 c 0,34,35
 66 275 66 275 48 317 c 0,36,37
 33 355 33 355 44 409 c 0,38,39
 58 474 58 474 105 529 c 0,40,41
 158 591 158 591 223 603 c 1,42,-1
 248 551 l 1,43,-1
 301 603 l 1,44,45
 354 597 354 597 379 552 c 1,46,47
 400 510 400 510 388 456 c 0,48,49
 377 409 377 409 318.5 334 c 128,-1,50
 260 259 260 259 251 215 c 2,51,-1
 232 122 l 2,52,53
 214 36 214 36 298 36 c 256,54,55
 382 36 382 36 400 120 c 2,56,-1
 451 363 l 2,57,58
 465 429 465 429 405 451 c 1,59,60
 429 520 429 520 481.5 573.5 c 128,-1,61
 534 627 534 627 609 642 c 1,62,-1
 636 605 l 1,63,64
 517 584 517 584 462 471 c 1,65,66
 524 447 524 447 507 369 c 2,67,-1
 454 125 l 2,12,13
EndSplineSet
EndChar

StartChar: uni0E0C
Encoding: 3596 3596 225
Width: 780
VWidth: 1504
Flags: W
LayerCount: 2
Fore
SplineSet
632 0 m 1,0,-1
 576 0 l 1,1,2
 550 56 550 56 477 105 c 1,3,4
 479 93 479 93 477 86 c 0,5,6
 468 45 468 45 435.5 15.5 c 128,-1,7
 403 -14 403 -14 356 -14 c 0,8,9
 315 -14 315 -14 292 15.5 c 128,-1,10
 269 45 269 45 278 86 c 0,11,12
 286 125 286 125 318 153.5 c 128,-1,13
 350 182 350 182 390 185 c 1,14,-1
 435 399 l 2,15,16
 468 554 468 554 313 554 c 0,17,18
 265 554 265 554 215 524.5 c 128,-1,19
 165 495 165 495 140 450 c 1,20,21
 223 444 223 444 247 384 c 1,22,23
 209 376 209 376 175 344.5 c 128,-1,24
 141 313 141 313 132 274 c 2,25,-1
 113 179 l 1,26,27
 128 185 128 185 149 185 c 0,28,29
 190 185 190 185 212.5 155.5 c 128,-1,30
 235 126 235 126 227 86 c 0,31,32
 218 45 218 45 184 15.5 c 128,-1,33
 150 -14 150 -14 107 -14 c 256,34,35
 63 -14 63 -14 41.5 15.5 c 128,-1,36
 20 45 20 45 29 86 c 0,37,38
 34 110 34 110 48 129 c 1,39,-1
 78 272 l 2,40,41
 95 353 95 353 182 391 c 1,42,43
 129 414 129 414 66 408 c 1,44,45
 98 492 98 492 171 547 c 128,-1,46
 244 602 244 602 326 602 c 0,47,48
 421 602 421 602 465.5 550 c 128,-1,49
 510 498 510 498 490 405 c 2,50,-1
 442 179 l 1,51,52
 556 137 556 137 591 71 c 1,53,-1
 695 552 l 2,54,55
 707 609 707 609 739 642 c 1,56,-1
 781 615 l 1,57,58
 760 597 760 597 745 532 c 2,59,-1
 632 0 l 1,0,-1
427 86 m 256,60,61
 432 107 432 107 420 122 c 128,-1,62
 408 137 408 137 387 137 c 256,63,64
 366 137 366 137 348.5 122 c 128,-1,65
 331 107 331 107 326 86 c 256,66,67
 321 65 321 65 332.5 50.5 c 128,-1,68
 344 36 344 36 366 36 c 256,69,70
 387 36 387 36 404.5 50.5 c 128,-1,71
 422 65 422 65 427 86 c 256,60,61
179 86 m 256,72,73
 184 107 184 107 171.5 122 c 128,-1,74
 159 137 159 137 138 137 c 256,75,76
 117 137 117 137 100 122 c 128,-1,77
 83 107 83 107 78 86 c 256,78,79
 73 65 73 65 84.5 50.5 c 128,-1,80
 96 36 96 36 117 36 c 256,81,82
 138 36 138 36 156 50.5 c 128,-1,83
 174 65 174 65 179 86 c 256,72,73
EndSplineSet
EndChar

StartChar: uni0E0D
Encoding: 3597 3597 226
Width: 780
VWidth: 1504
Flags: W
LayerCount: 2
Fore
SplineSet
642 -51 m 1,0,1
 621 -141 621 -141 564 -199 c 128,-1,2
 507 -257 507 -257 412 -257 c 0,3,4
 352 -257 352 -257 312 -219.5 c 128,-1,5
 272 -182 272 -182 284 -126 c 0,6,7
 290 -93 290 -93 319.5 -69 c 128,-1,8
 349 -45 349 -45 382 -45 c 0,9,10
 417 -45 417 -45 435.5 -69 c 128,-1,11
 454 -93 454 -93 448 -126 c 0,12,13
 436 -182 436 -182 379 -203 c 1,14,15
 394 -214 394 -214 420 -214 c 0,16,17
 549 -214 549 -214 587 -51 c 1,18,-1
 642 -51 l 1,0,1
408 -126 m 0,19,20
 411 -109 411 -109 401 -97.5 c 128,-1,21
 391 -86 391 -86 375 -86 c 256,22,23
 358 -86 358 -86 343.5 -98 c 128,-1,24
 329 -110 329 -110 326 -126 c 0,25,26
 321 -143 321 -143 331 -155 c 128,-1,27
 341 -167 341 -167 358 -167 c 256,28,29
 375 -167 375 -167 389 -155 c 128,-1,30
 403 -143 403 -143 408 -126 c 0,19,20
190 86 m 256,31,32
 195 107 195 107 182.5 122 c 128,-1,33
 170 137 170 137 149 137 c 256,34,35
 128 137 128 137 110.5 122 c 128,-1,36
 93 107 93 107 89 86 c 256,37,38
 84 65 84 65 95.5 50.5 c 128,-1,39
 107 36 107 36 128 36 c 256,40,41
 149 36 149 36 167 50.5 c 128,-1,42
 185 65 185 65 190 86 c 256,31,32
657 123 m 2,43,44
 628 -12 628 -12 481 -12 c 0,45,46
 335 -12 335 -12 364 125 c 2,47,-1
 423 399 l 2,48,49
 456 554 456 554 310 554 c 0,50,51
 262 554 262 554 214.5 525 c 128,-1,52
 167 496 167 496 140 450 c 1,53,54
 223 444 223 444 247 384 c 1,55,56
 209 376 209 376 175 344.5 c 128,-1,57
 141 313 141 313 132 274 c 2,58,-1
 111 176 l 1,59,60
 134 185 134 185 159 185 c 0,61,62
 201 185 201 185 224 156.5 c 128,-1,63
 247 128 247 128 238 87 c 256,64,65
 229 46 229 46 199.5 16 c 128,-1,66
 170 -14 170 -14 117 -14 c 0,67,68
 73 -14 73 -14 51 14 c 128,-1,69
 29 42 29 42 39 89 c 2,70,-1
 78 272 l 2,71,72
 95 353 95 353 182 391 c 1,73,74
 129 414 129 414 66 408 c 1,75,76
 98 492 98 492 169.5 547 c 128,-1,77
 241 602 241 602 323 602 c 0,78,79
 416 602 416 602 457 550.5 c 128,-1,80
 498 499 498 499 478 405 c 2,81,-1
 418 120 l 2,82,83
 400 36 400 36 493 36 c 0,84,85
 585 36 585 36 603 120 c 2,86,-1
 695 552 l 2,87,88
 707 609 707 609 739 642 c 1,89,-1
 781 615 l 1,90,91
 760 597 760 597 745 532 c 2,92,-1
 657 123 l 2,43,44
EndSplineSet
Substitution2: "<23,16000>  in Thai lookup 65 nested-substitutions 7 subtable" uni0E0D.alt1
Substitution2: "Single Substitution lookup 58 subtable" uni0E0D.alt1
EndChar

StartChar: uni0E0E
Encoding: 3598 3598 227
Width: 639
VWidth: 1504
Flags: W
LayerCount: 2
Fore
SplineSet
421 -323 m 1,0,-1
 361 -323 l 1,1,2
 356 -287 356 -287 307.5 -251 c 128,-1,3
 259 -215 259 -215 217 -203 c 1,4,-1
 214 -214 l 1,5,6
 205 -262 205 -262 168.5 -295.5 c 128,-1,7
 132 -329 132 -329 84 -329 c 0,8,9
 39 -329 39 -329 19.5 -303 c 128,-1,10
 0 -277 0 -277 8 -238 c 0,11,12
 19 -191 19 -191 57 -164 c 128,-1,13
 95 -137 95 -137 141 -137 c 0,14,15
 149 -137 149 -137 181 -141 c 1,16,17
 198 -85 198 -85 253 -57 c 1,18,-1
 289 -81 l 1,19,20
 238 -110 238 -110 227 -153 c 1,21,22
 338 -195 338 -195 382 -254 c 1,23,-1
 519 391 l 2,24,25
 534 465 534 465 498 509.5 c 128,-1,26
 462 554 462 554 390 554 c 0,27,28
 339 554 339 554 284.5 524.5 c 128,-1,29
 230 495 230 495 203 450 c 1,30,31
 281 442 281 442 311 384 c 1,32,33
 224 357 224 357 206 274 c 0,34,35
 194 215 194 215 194 153 c 0,36,37
 194 126 194 126 187 90 c 0,38,39
 178 46 178 46 142.5 17 c 128,-1,40
 107 -12 107 -12 66 -12 c 256,41,42
 25 -12 25 -12 3.5 16.5 c 128,-1,43
 -18 45 -18 45 -9 86 c 0,44,45
 -1 127 -1 127 33.5 156 c 128,-1,46
 68 185 68 185 108 185 c 0,47,48
 125 185 125 185 143 177 c 1,49,50
 148 246 148 246 155 283 c 0,51,52
 170 352 170 352 239 391 c 1,53,54
 201 409 201 409 162 409 c 0,55,56
 142 409 142 409 134 408 c 1,57,58
 160 492 160 492 237 547 c 128,-1,59
 314 602 314 602 402 602 c 0,60,61
 498 602 498 602 546 547 c 128,-1,62
 594 492 594 492 575 397 c 2,63,-1
 421 -323 l 1,0,-1
165 -191 m 1,64,65
 151 -186 151 -186 134 -187 c 0,66,67
 66 -187 66 -187 56 -235 c 0,68,69
 47 -282 47 -282 96 -281 c 0,70,71
 149 -281 149 -281 162 -214 c 0,72,73
 165 -203 165 -203 165 -191 c 1,64,65
138 86 m 256,74,75
 143 107 143 107 131 122 c 128,-1,76
 119 137 119 137 98 137 c 256,77,78
 77 137 77 137 59.5 122 c 128,-1,79
 42 107 42 107 38 86 c 256,80,81
 33 65 33 65 44.5 50.5 c 128,-1,82
 56 36 56 36 77 36 c 256,83,84
 98 36 98 36 115.5 50.5 c 128,-1,85
 133 65 133 65 138 86 c 256,74,75
EndSplineSet
Substitution2: "<23,16000>  in Thai lookup 75 nested-substitutions 0 subtable" uni0E0E.alt1
Substitution2: "Single Substitution lookup 58 subtable" uni0E0E.alt1
EndChar

StartChar: uni0E0F
Encoding: 3599 3599 228
Width: 639
VWidth: 1504
Flags: W
LayerCount: 2
Fore
SplineSet
113 -202 m 1,0,1
 102 -188 102 -188 71 -188 c 0,2,3
 12 -188 12 -188 2 -239 c 0,4,5
 -7 -284 -7 -284 39 -284 c 0,6,7
 95 -285 95 -285 113 -202 c 1,0,1
421 -323 m 1,8,-1
 361 -323 l 1,9,-1
 299 -232 l 1,10,-1
 214 -322 l 1,11,-1
 150 -232 l 1,12,13
 138 -279 138 -279 104.5 -305 c 128,-1,14
 71 -331 71 -331 33 -331 c 0,15,16
 -12 -331 -12 -331 -31.5 -304 c 128,-1,17
 -51 -277 -51 -277 -42 -238 c 0,18,19
 -33 -194 -33 -194 1 -167.5 c 128,-1,20
 35 -141 35 -141 77 -141 c 0,21,22
 106 -141 106 -141 123 -152 c 1,23,24
 137 -99 137 -99 203 -65 c 1,25,-1
 239 -89 l 1,26,27
 180 -121 180 -121 167 -173 c 1,28,-1
 224 -251 l 1,29,-1
 314 -156 l 1,30,-1
 382 -254 l 1,31,-1
 519 391 l 2,32,33
 534 465 534 465 498 509.5 c 128,-1,34
 462 554 462 554 390 554 c 0,35,36
 339 554 339 554 284.5 524.5 c 128,-1,37
 230 495 230 495 203 450 c 1,38,39
 281 442 281 442 311 384 c 1,40,41
 224 357 224 357 206 274 c 0,42,43
 194 215 194 215 194 153 c 0,44,45
 194 126 194 126 187 90 c 0,46,47
 178 46 178 46 142.5 17 c 128,-1,48
 107 -12 107 -12 66 -12 c 256,49,50
 25 -12 25 -12 3.5 16.5 c 128,-1,51
 -18 45 -18 45 -9 86 c 0,52,53
 -1 127 -1 127 33.5 156 c 128,-1,54
 68 185 68 185 108 185 c 0,55,56
 125 185 125 185 143 177 c 1,57,58
 148 246 148 246 155 283 c 0,59,60
 170 352 170 352 239 391 c 1,61,62
 201 409 201 409 162 409 c 0,63,64
 142 409 142 409 134 408 c 1,65,66
 160 492 160 492 237 547 c 128,-1,67
 314 602 314 602 402 602 c 0,68,69
 498 602 498 602 546 547 c 128,-1,70
 594 492 594 492 575 397 c 2,71,-1
 421 -323 l 1,8,-1
138 86 m 256,72,73
 143 107 143 107 131 122 c 128,-1,74
 119 137 119 137 98 137 c 256,75,76
 77 137 77 137 59.5 122 c 128,-1,77
 42 107 42 107 38 86 c 256,78,79
 33 65 33 65 44.5 50.5 c 128,-1,80
 56 36 56 36 77 36 c 256,81,82
 98 36 98 36 115.5 50.5 c 128,-1,83
 133 65 133 65 138 86 c 256,72,73
EndSplineSet
Substitution2: "<23,16000>  in Thai lookup 75 nested-substitutions 0 subtable" uni0E0F.alt1
Substitution2: "Single Substitution lookup 58 subtable" uni0E0F.alt1
EndChar

StartChar: uni0E10
Encoding: 3600 3600 229
Width: 515
VWidth: 1504
Flags: W
LayerCount: 2
Fore
SplineSet
385 119 m 2,0,1
 358 -13 358 -13 238 -14 c 0,2,3
 119 -14 119 -14 146 119 c 2,4,-1
 162 196 l 1,5,6
 144 190 144 190 123 190 c 0,7,8
 85 190 85 190 65 214.5 c 128,-1,9
 45 239 45 239 54 277 c 1,10,11
 62 316 62 316 93.5 342.5 c 128,-1,12
 125 369 125 369 162 369 c 0,13,14
 201 369 201 369 222.5 345.5 c 128,-1,15
 244 322 244 322 235 280 c 2,16,-1
 200 114 l 2,17,18
 183 36 183 36 248 36 c 0,19,20
 314 36 314 36 331 114 c 2,21,-1
 376 332 l 1,22,23
 385 368 385 368 247 405 c 0,24,25
 164 428 164 428 68 441 c 1,26,27
 88 510 88 510 145.5 556 c 128,-1,28
 203 602 203 602 283 602 c 0,29,30
 315 602 315 602 364.5 585.5 c 128,-1,31
 414 569 414 569 442 569 c 0,32,33
 495 569 495 569 517 642 c 1,34,-1
 561 632 l 1,35,36
 520 513 520 513 433 513 c 0,37,38
 400 513 400 513 346 531 c 128,-1,39
 292 549 292 549 262 549 c 0,40,41
 227 549 227 549 190 528.5 c 128,-1,42
 153 508 153 508 146 481 c 1,43,44
 289 451 289 451 347 427 c 0,45,46
 443 389 443 389 432 337 c 2,47,-1
 385 119 l 2,0,1
332 -150 m 2,48,-1
 296 -325 l 1,49,-1
 238 -325 l 1,50,-1
 181 -284 l 1,51,-1
 107 -323 l 1,52,-1
 56 -241 l 1,53,54
 47 -283 47 -283 13.5 -307 c 128,-1,55
 -20 -331 -20 -331 -59 -331 c 0,56,57
 -155 -329 -155 -329 -137 -245 c 0,58,59
 -129 -209 -129 -209 -95.5 -189.5 c 128,-1,60
 -62 -170 -62 -170 -21 -170 c 0,61,62
 12 -170 12 -170 29 -177 c 1,63,64
 52 -115 52 -115 114 -86 c 1,65,-1
 150 -108 l 1,66,67
 82 -138 82 -138 69 -197 c 1,68,-1
 119 -274 l 1,69,-1
 190 -241 l 1,70,-1
 253 -286 l 1,71,-1
 268 -218 l 1,72,73
 259 -220 259 -220 242 -220 c 0,74,75
 210 -220 210 -220 192 -199.5 c 128,-1,76
 174 -179 174 -179 181 -150 c 256,77,78
 187 -121 187 -121 214 -101 c 128,-1,79
 241 -81 241 -81 272 -81 c 0,80,81
 302 -81 302 -81 321 -99.5 c 128,-1,82
 340 -118 340 -118 332 -150 c 2,48,-1
14 -221 m 1,83,84
 2 -210 2 -210 -33 -211 c 1,85,86
 -84 -214 -84 -214 -92 -250 c 0,87,88
 -100 -289 -100 -289 -53 -289 c 0,89,90
 3 -289 3 -289 12 -241 c 1,91,92
 16 -233 16 -233 14 -221 c 1,83,84
293 -150 m 0,93,94
 301 -117 301 -117 265 -117 c 256,95,96
 229 -117 229 -117 221 -150 c 0,97,98
 213 -185 213 -185 250 -185 c 256,99,100
 285 -185 285 -185 293 -150 c 0,93,94
184 278 m 0,101,102
 187 295 187 295 177.5 307 c 128,-1,103
 168 319 168 319 152 319 c 256,104,105
 135 319 135 319 121 307 c 128,-1,106
 107 295 107 295 104 278 c 0,107,108
 99 261 99 261 108 250 c 128,-1,109
 117 239 117 239 134 239 c 256,110,111
 151 239 151 239 165 250 c 128,-1,112
 179 261 179 261 184 278 c 0,101,102
EndSplineSet
Substitution2: "<23,16000>  in Thai lookup 65 nested-substitutions 7 subtable" uni0E10.alt1
Substitution2: "Single Substitution lookup 58 subtable" uni0E10.alt1
EndChar

StartChar: uni0E11
Encoding: 3601 3601 230
Width: 693
VWidth: 1504
Flags: W
LayerCount: 2
Fore
SplineSet
555 51 m 1,0,1
 537 -20 537 -20 483 -56 c 1,2,-1
 441 -29 l 1,3,4
 492 10 492 10 505 71 c 2,5,-1
 593 481 l 2,6,7
 607 549 607 549 563 549 c 0,8,9
 546 549 546 549 519 510 c 1,10,-1
 220 0 l 1,11,-1
 152 0 l 1,12,-1
 199 220 l 2,13,14
 208 268 208 268 264 341 c 128,-1,15
 320 414 320 414 331 460 c 0,16,17
 348 541 348 541 301 551 c 1,18,-1
 235 487 l 1,19,-1
 194 549 l 1,20,21
 138 516 138 516 111 462 c 1,22,23
 134 471 134 471 161 471 c 0,24,25
 205 471 205 471 224.5 443 c 128,-1,26
 244 415 244 415 235 373 c 0,27,28
 226 329 226 329 192 302 c 128,-1,29
 158 275 158 275 117 275 c 0,30,31
 66 275 66 275 48 317 c 0,32,33
 33 355 33 355 44 409 c 0,34,35
 58 474 58 474 108 532.5 c 128,-1,36
 158 591 158 591 223 603 c 1,37,-1
 248 551 l 1,38,-1
 301 603 l 1,39,40
 408 589 408 589 379 456 c 0,41,42
 368 409 368 409 314 332.5 c 128,-1,43
 260 256 260 256 250 208 c 1,44,-1
 217 80 l 1,45,46
 247 143 247 143 277 193 c 2,47,-1
 469 517 l 2,48,49
 519 601 519 601 579 602 c 0,50,51
 672 602 672 602 647 481 c 2,52,-1
 555 51 l 1,0,1
187 375 m 256,53,54
 192 396 192 396 181 409.5 c 128,-1,55
 170 423 170 423 149 423 c 256,56,57
 128 423 128 423 111.5 409.5 c 128,-1,58
 95 396 95 396 90 375 c 256,59,60
 85 354 85 354 96.5 340 c 128,-1,61
 108 326 108 326 129 326 c 256,62,63
 150 326 150 326 166 340 c 128,-1,64
 182 354 182 354 187 375 c 256,53,54
EndSplineSet
EndChar

StartChar: uni0E12
Encoding: 3602 3602 231
Width: 800
VWidth: 1504
Flags: W
LayerCount: 2
Fore
SplineSet
651 0 m 1,0,-1
 597 0 l 1,1,2
 571 65 571 65 498 107 c 1,3,4
 498 98 498 98 496 86 c 0,5,6
 487 47 487 47 454 17.5 c 128,-1,7
 421 -12 421 -12 376 -12 c 256,8,9
 331 -12 331 -12 310 17.5 c 128,-1,10
 289 47 289 47 298 87 c 0,11,12
 306 126 306 126 338 155 c 128,-1,13
 370 184 370 184 409 187 c 1,14,-1
 453 391 l 2,15,16
 476 499 476 499 415 545 c 1,17,-1
 301 457 l 1,18,-1
 232 546 l 1,19,20
 191 523 191 523 160 478 c 128,-1,21
 129 433 129 433 119 388 c 0,22,23
 110 344 110 344 123.5 262.5 c 128,-1,24
 137 181 137 181 128 129 c 1,25,26
 145 155 145 155 185 188 c 0,27,28
 232 224 232 224 250 244 c 1,29,30
 214 249 214 249 197.5 273.5 c 128,-1,31
 181 298 181 298 187 332 c 1,32,33
 196 370 196 370 226.5 395.5 c 128,-1,34
 257 421 257 421 295 421 c 256,35,36
 333 421 333 421 354 395 c 128,-1,37
 375 369 375 369 364 332 c 1,38,39
 347 263 347 263 233 166 c 128,-1,40
 119 69 119 69 101 0 c 1,41,-1
 47 0 l 1,42,-1
 75 137 l 2,43,44
 84 182 84 182 70 261 c 128,-1,45
 56 340 56 340 63 382 c 1,46,47
 80 456 80 456 126 516 c 1,48,49
 180 582 180 582 251 600 c 1,50,-1
 314 514 l 1,51,-1
 415 602 l 1,52,53
 478 590 478 590 500.5 529.5 c 128,-1,54
 523 469 523 469 508 397 c 2,55,-1
 462 179 l 1,56,57
 576 137 576 137 614 78 c 1,58,-1
 714 552 l 2,59,60
 726 609 726 609 758 642 c 1,61,-1
 800 615 l 1,62,63
 779 597 779 597 764 532 c 2,64,-1
 651 0 l 1,0,-1
323 334 m 256,65,66
 328 355 328 355 316.5 368.5 c 128,-1,67
 305 382 305 382 284 382 c 256,68,69
 263 382 263 382 248 368.5 c 128,-1,70
 233 355 233 355 229 334 c 256,71,72
 224 313 224 313 234 300 c 128,-1,73
 244 287 244 287 265 287 c 256,74,75
 286 287 286 287 302 300 c 128,-1,76
 318 313 318 313 323 334 c 256,65,66
447 86 m 256,77,78
 452 107 452 107 439.5 122 c 128,-1,79
 427 137 427 137 406 137 c 256,80,81
 385 137 385 137 367.5 122 c 128,-1,82
 350 107 350 107 346 86 c 256,83,84
 341 65 341 65 352.5 50.5 c 128,-1,85
 364 36 364 36 385 36 c 256,86,87
 406 36 406 36 424 50.5 c 128,-1,88
 442 65 442 65 447 86 c 256,77,78
EndSplineSet
EndChar

StartChar: uni0E13
Encoding: 3603 3603 232
Width: 816
VWidth: 1504
Flags: W
LayerCount: 2
Fore
SplineSet
190 86 m 256,0,1
 195 107 195 107 182.5 122 c 128,-1,2
 170 137 170 137 149 137 c 256,3,4
 128 137 128 137 110.5 122 c 128,-1,5
 93 107 93 107 89 86 c 256,6,7
 84 65 84 65 95.5 50.5 c 128,-1,8
 107 36 107 36 128 36 c 256,9,10
 149 36 149 36 167 50.5 c 128,-1,11
 185 65 185 65 190 86 c 256,0,1
666 84 m 256,12,13
 671 105 671 105 659.5 120 c 128,-1,14
 648 135 648 135 627 135 c 256,15,16
 606 135 606 135 587.5 120 c 128,-1,17
 569 105 569 105 564 84 c 256,18,19
 559 63 559 63 571.5 48 c 128,-1,20
 584 33 584 33 605 33 c 256,21,22
 626 33 626 33 643.5 48 c 128,-1,23
 661 63 661 63 666 84 c 256,12,13
716 84 m 0,24,25
 707 42 707 42 672.5 13.5 c 128,-1,26
 638 -15 638 -15 594 -15 c 0,27,28
 552 -15 552 -15 529.5 13.5 c 128,-1,29
 507 42 507 42 516 84 c 1,30,-1
 519 93 l 1,31,32
 460 72 460 72 403 0 c 1,33,-1
 338 0 l 1,34,-1
 423 399 l 2,35,36
 456 554 456 554 310 554 c 0,37,38
 262 554 262 554 214.5 525 c 128,-1,39
 167 496 167 496 140 450 c 1,40,41
 223 444 223 444 247 384 c 1,42,43
 209 376 209 376 175 344.5 c 128,-1,44
 141 313 141 313 132 274 c 2,45,-1
 111 176 l 1,46,47
 134 185 134 185 159 185 c 0,48,49
 201 185 201 185 224 156.5 c 128,-1,50
 247 128 247 128 238 87 c 0,51,52
 229 43 229 43 195 14.5 c 128,-1,53
 161 -14 161 -14 117 -14 c 256,54,55
 73 -14 73 -14 51.5 15.5 c 128,-1,56
 30 45 30 45 39 89 c 2,57,-1
 78 272 l 2,58,59
 95 353 95 353 182 391 c 1,60,61
 129 414 129 414 66 408 c 1,62,63
 98 492 98 492 169.5 547 c 128,-1,64
 241 602 241 602 323 602 c 0,65,66
 416 602 416 602 457 550.5 c 128,-1,67
 498 499 498 499 478 405 c 2,68,-1
 408 72 l 1,69,70
 452 117 452 117 519 146 c 0,71,72
 600 182 600 182 617 193 c 1,73,74
 661 226 661 226 675 293 c 2,75,-1
 731 552 l 2,76,77
 743 609 743 609 775 642 c 1,78,-1
 817 615 l 1,79,80
 796 597 796 597 781 532 c 2,81,-1
 730 296 l 2,82,83
 712 206 712 206 677 177 c 1,84,85
 731 152 731 152 716 84 c 0,24,25
EndSplineSet
EndChar

StartChar: uni0E14
Encoding: 3604 3604 233
Width: 588
VWidth: 1504
Flags: W
LayerCount: 2
Fore
SplineSet
340 369 m 0,0,1
 343 389 343 389 332.5 402 c 128,-1,2
 322 415 322 415 302 415 c 256,3,4
 282 415 282 415 266 401.5 c 128,-1,5
 250 388 250 388 247 369 c 0,6,7
 242 349 242 349 252.5 335.5 c 128,-1,8
 263 322 263 322 283 322 c 256,9,10
 303 322 303 322 319 335.5 c 128,-1,11
 335 349 335 349 340 369 c 0,0,1
450 51 m 1,12,13
 432 -20 432 -20 378 -56 c 1,14,-1
 335 -29 l 1,15,16
 386 10 386 10 400 71 c 2,17,-1
 468 391 l 2,18,19
 503 553 503 553 329 554 c 0,20,21
 260 554 260 554 197 506.5 c 128,-1,22
 134 459 134 459 120 390 c 1,23,24
 109 346 109 346 117.5 271.5 c 128,-1,25
 126 197 126 197 119 156 c 1,26,27
 111 126 111 126 107 116 c 1,28,29
 133 155 133 155 187 203 c 0,30,31
 231 241 231 241 274 280 c 1,32,33
 236 280 236 280 216 305.5 c 128,-1,34
 196 331 196 331 205 369 c 0,35,36
 213 407 213 407 243.5 432 c 128,-1,37
 274 457 274 457 311 457 c 256,38,39
 349 457 349 457 369.5 431.5 c 128,-1,40
 390 406 390 406 382 369 c 0,41,42
 365 297 365 297 236 185.5 c 128,-1,43
 107 74 107 74 87 0 c 1,44,-1
 33 0 l 1,45,-1
 62 135 l 2,46,47
 71 179 71 179 63.5 259.5 c 128,-1,48
 56 340 56 340 63 382 c 1,49,50
 86 484 86 484 166.5 543 c 128,-1,51
 247 602 247 602 347 602 c 0,52,53
 451 602 451 602 497 547 c 128,-1,54
 543 492 543 492 523 399 c 2,55,-1
 450 51 l 1,12,13
EndSplineSet
EndChar

StartChar: uni0E15
Encoding: 3605 3605 234
Width: 588
VWidth: 1504
Flags: W
LayerCount: 2
Fore
SplineSet
450 51 m 1,0,1
 432 -20 432 -20 378 -56 c 1,2,-1
 335 -29 l 1,3,4
 386 10 386 10 400 71 c 2,5,-1
 468 391 l 2,6,7
 491 502 491 502 429 546 c 1,8,9
 390 516 390 516 313 457 c 1,10,-1
 230 546 l 1,11,12
 144 498 144 498 122 390 c 0,13,14
 111 343 111 343 118 261 c 128,-1,15
 125 179 125 179 111 119 c 1,16,17
 134 149 134 149 187.5 186.5 c 128,-1,18
 241 224 241 224 260 247 c 1,19,20
 227 250 227 250 209 274 c 128,-1,21
 191 298 191 298 199 334 c 0,22,23
 207 372 207 372 236.5 397.5 c 128,-1,24
 266 423 266 423 304 423 c 256,25,26
 342 423 342 423 362 397.5 c 128,-1,27
 382 372 382 372 375 334 c 0,28,29
 360 265 360 265 234 168.5 c 128,-1,30
 108 72 108 72 89 0 c 1,31,-1
 35 0 l 1,32,-1
 63 135 l 2,33,34
 72 179 72 179 64 259.5 c 128,-1,35
 56 340 56 340 63 382 c 1,36,37
 80 456 80 456 125 516 c 1,38,39
 179 584 179 584 251 602 c 1,40,-1
 326 519 l 1,41,-1
 430 602 l 1,42,43
 493 590 493 590 517 525 c 0,44,45
 538 469 538 469 523 399 c 2,46,-1
 450 51 l 1,0,1
335 335 m 256,47,48
 340 355 340 355 328.5 368.5 c 128,-1,49
 317 382 317 382 298 382 c 256,50,51
 278 382 278 382 262.5 368.5 c 128,-1,52
 247 355 247 355 242 335 c 256,53,54
 237 315 237 315 248 302 c 128,-1,55
 259 289 259 289 278 289 c 256,56,57
 298 289 298 289 314 302 c 128,-1,58
 330 315 330 315 335 335 c 256,47,48
EndSplineSet
EndChar

StartChar: uni0E16
Encoding: 3606 3606 235
Width: 568
VWidth: 1504
Flags: W
LayerCount: 2
Fore
SplineSet
185 86 m 256,0,1
 190 107 190 107 177.5 122 c 128,-1,2
 165 137 165 137 144 137 c 256,3,4
 123 137 123 137 106 122 c 128,-1,5
 89 107 89 107 84 86 c 256,6,7
 79 65 79 65 90.5 50.5 c 128,-1,8
 102 36 102 36 123 36 c 256,9,10
 144 36 144 36 162 50.5 c 128,-1,11
 180 65 180 65 185 86 c 256,0,1
430 51 m 1,12,13
 412 -20 412 -20 358 -56 c 1,14,-1
 316 -29 l 1,15,16
 367 10 367 10 381 71 c 2,17,-1
 448 393 l 2,18,19
 465 470 465 470 429 512 c 128,-1,20
 393 554 393 554 319 554 c 0,21,22
 268 554 268 554 214.5 524.5 c 128,-1,23
 161 495 161 495 134 450 c 1,24,25
 224 442 224 442 239 385 c 1,26,27
 203 377 203 377 169 345 c 128,-1,28
 135 313 135 313 126 275 c 2,29,-1
 107 177 l 1,30,31
 133 188 133 188 153 188 c 0,32,33
 195 188 195 188 218.5 158.5 c 128,-1,34
 242 129 242 129 233 87 c 0,35,36
 222 42 222 42 188.5 15 c 128,-1,37
 155 -12 155 -12 111 -12 c 0,38,39
 69 -12 69 -12 46.5 16.5 c 128,-1,40
 24 45 24 45 33 87 c 2,41,-1
 72 274 l 2,42,43
 90 355 90 355 174 393 c 1,44,45
 136 410 136 410 60 409 c 1,46,47
 90 492 90 492 168.5 547 c 128,-1,48
 247 602 247 602 332 602 c 0,49,50
 428 602 428 602 475.5 547.5 c 128,-1,51
 523 493 523 493 504 399 c 2,52,-1
 430 51 l 1,12,13
EndSplineSet
EndChar

StartChar: uni0E17
Encoding: 3607 3607 236
Width: 646
VWidth: 1504
Flags: W
LayerCount: 2
Fore
SplineSet
508 51 m 1,0,1
 490 -20 490 -20 436 -56 c 1,2,-1
 394 -29 l 1,3,4
 445 10 445 10 459 69 c 2,5,-1
 546 481 l 2,6,7
 560 549 560 549 516 549 c 0,8,9
 489 549 489 549 462 510 c 1,10,-1
 162 0 l 1,11,-1
 105 0 l 1,12,-1
 193 414 l 1,13,14
 170 403 170 403 144 403 c 0,15,16
 103 403 103 403 81 432.5 c 128,-1,17
 59 462 59 462 66 502 c 0,18,19
 75 543 75 543 111 572.5 c 128,-1,20
 147 602 147 602 188 602 c 256,21,22
 229 602 229 602 251.5 572.5 c 128,-1,23
 274 543 274 543 265 502 c 2,24,-1
 203 208 l 1,25,26
 185 139 185 139 174 108 c 1,27,28
 189 138 189 138 220 193 c 1,29,-1
 411 517 l 2,30,31
 461 601 461 601 532 602 c 0,32,33
 625 602 625 602 600 481 c 2,34,-1
 508 51 l 1,0,1
217 502 m 0,35,36
 222 523 222 523 210.5 538.5 c 128,-1,37
 199 554 199 554 177 554 c 256,38,39
 156 554 156 554 137.5 538.5 c 128,-1,40
 119 523 119 523 114 502 c 0,41,42
 111 481 111 481 122.5 466 c 128,-1,43
 134 451 134 451 155 451 c 256,44,45
 176 451 176 451 195 466 c 128,-1,46
 214 481 214 481 217 502 c 0,35,36
EndSplineSet
EndChar

StartChar: uni0E18
Encoding: 3608 3608 237
Width: 503
VWidth: 1504
Flags: W
LayerCount: 2
Fore
SplineSet
376 114 m 2,0,1
 349 -11 349 -11 184 -11 c 256,2,3
 19 -11 19 -11 45 114 c 2,4,-1
 80 277 l 2,5,6
 92 334 92 334 123 367 c 1,7,-1
 165 340 l 1,8,9
 144 322 144 322 129 257 c 2,10,-1
 98 111 l 2,11,12
 83 37 83 37 194 38 c 256,13,14
 305 38 305 38 320 111 c 2,15,-1
 369 334 l 2,16,17
 377 370 377 370 238 406 c 0,18,19
 154 429 154 429 59 442 c 1,20,21
 79 510 79 510 133 556 c 128,-1,22
 187 602 187 602 263 602 c 0,23,24
 298 602 298 602 350 585.5 c 128,-1,25
 402 569 402 569 429 569 c 0,26,27
 458 569 458 569 490 642 c 1,28,-1
 529 630 l 1,29,30
 493 519 493 519 420 519 c 0,31,32
 388 519 388 519 334 536.5 c 128,-1,33
 280 554 280 554 250 554 c 0,34,35
 218 554 218 554 182.5 532.5 c 128,-1,36
 147 511 147 511 137 483 c 1,37,38
 292 450 292 450 326 438 c 0,39,40
 436 399 436 399 423 338 c 2,41,-1
 376 114 l 2,0,1
EndSplineSet
EndChar

StartChar: uni0E19
Encoding: 3609 3609 238
Width: 631
VWidth: 1504
Flags: W
LayerCount: 2
Fore
SplineSet
217 502 m 0,0,1
 222 523 222 523 210.5 538.5 c 128,-1,2
 199 554 199 554 177 554 c 256,3,4
 156 554 156 554 137.5 538.5 c 128,-1,5
 119 523 119 523 114 502 c 0,6,7
 111 481 111 481 122.5 466 c 128,-1,8
 134 451 134 451 155 451 c 256,9,10
 176 451 176 451 195 466 c 128,-1,11
 214 481 214 481 217 502 c 0,0,1
483 87 m 256,12,13
 488 108 488 108 475.5 123 c 128,-1,14
 463 138 463 138 442 138 c 256,15,16
 421 138 421 138 403 123 c 128,-1,17
 385 108 385 108 381 87 c 256,18,19
 376 66 376 66 388 51 c 128,-1,20
 400 36 400 36 421 36 c 256,21,22
 442 36 442 36 460 51 c 128,-1,23
 478 66 478 66 483 87 c 256,12,13
531 86 m 0,24,25
 522 45 522 45 486.5 16.5 c 128,-1,26
 451 -12 451 -12 411 -12 c 256,27,28
 370 -12 370 -12 347.5 16.5 c 128,-1,29
 325 45 325 45 334 86 c 1,30,-1
 335 96 l 1,31,32
 234 58 234 58 171 0 c 1,33,-1
 105 0 l 1,34,-1
 193 414 l 1,35,36
 170 403 170 403 144 403 c 0,37,38
 103 403 103 403 81 432.5 c 128,-1,39
 59 462 59 462 66 502 c 0,40,41
 75 543 75 543 111 572.5 c 128,-1,42
 147 602 147 602 188 602 c 256,43,44
 229 602 229 602 251.5 572.5 c 128,-1,45
 274 543 274 543 265 502 c 2,46,-1
 171 59 l 1,47,48
 207 92 207 92 292 126 c 0,49,50
 387 165 387 165 417 187 c 0,51,52
 477 228 477 228 490 290 c 2,53,-1
 546 552 l 2,54,55
 558 609 558 609 590 642 c 1,56,-1
 632 615 l 1,57,58
 611 597 611 597 596 532 c 2,59,-1
 542 283 l 2,60,61
 527 211 527 211 487 177 c 1,62,63
 545 152 545 152 531 86 c 0,24,25
EndSplineSet
EndChar

StartChar: uni0E1A
Encoding: 3610 3610 239
Width: 643
VWidth: 1504
Flags: W
LayerCount: 2
Fore
SplineSet
217 502 m 0,0,1
 222 523 222 523 210.5 538.5 c 128,-1,2
 199 554 199 554 177 554 c 256,3,4
 156 554 156 554 137.5 538.5 c 128,-1,5
 119 523 119 523 114 502 c 0,6,7
 111 481 111 481 122.5 466 c 128,-1,8
 134 451 134 451 155 451 c 256,9,10
 176 451 176 451 195 466 c 128,-1,11
 214 481 214 481 217 502 c 0,0,1
522 128 m 2,12,13
 492 -12 492 -12 298 -12 c 0,14,15
 102 -12 102 -12 132 128 c 2,16,-1
 193 414 l 1,17,18
 170 403 170 403 144 403 c 0,19,20
 103 403 103 403 81 432.5 c 128,-1,21
 59 462 59 462 66 502 c 0,22,23
 75 543 75 543 111 572.5 c 128,-1,24
 147 602 147 602 188 602 c 256,25,26
 229 602 229 602 251.5 572.5 c 128,-1,27
 274 543 274 543 265 502 c 2,28,-1
 187 132 l 2,29,30
 167 37 167 37 308 38 c 0,31,32
 448 38 448 38 468 132 c 2,33,-1
 558 552 l 2,34,35
 570 609 570 609 602 642 c 1,36,-1
 644 615 l 1,37,38
 623 597 623 597 608 532 c 2,39,-1
 522 128 l 2,12,13
EndSplineSet
EndChar

StartChar: uni0E1B
Encoding: 3611 3611 240
Width: 643
VWidth: 1504
Flags: W
LayerCount: 2
Fore
SplineSet
522 128 m 2,0,1
 492 -12 492 -12 298 -12 c 0,2,3
 102 -12 102 -12 132 128 c 2,4,-1
 193 414 l 1,5,6
 170 403 170 403 144 403 c 0,7,8
 103 403 103 403 81 432.5 c 128,-1,9
 59 462 59 462 66 502 c 0,10,11
 75 543 75 543 111 572.5 c 128,-1,12
 147 602 147 602 188 602 c 256,13,14
 229 602 229 602 251.5 572.5 c 128,-1,15
 274 543 274 543 265 502 c 2,16,-1
 187 132 l 2,17,18
 167 37 167 37 308 38 c 0,19,20
 448 38 448 38 468 132 c 2,21,-1
 605 778 l 2,22,23
 617 835 617 835 648 868 c 1,24,-1
 690 841 l 1,25,26
 669 823 669 823 654 758 c 2,27,-1
 522 128 l 2,0,1
217 502 m 0,28,29
 222 523 222 523 210.5 538.5 c 128,-1,30
 199 554 199 554 177 554 c 256,31,32
 156 554 156 554 137.5 538.5 c 128,-1,33
 119 523 119 523 114 502 c 0,34,35
 111 481 111 481 122.5 466 c 128,-1,36
 134 451 134 451 155 451 c 256,37,38
 176 451 176 451 195 466 c 128,-1,39
 214 481 214 481 217 502 c 0,28,29
EndSplineSet
EndChar

StartChar: uni0E1C
Encoding: 3612 3612 241
Width: 573
VWidth: 1504
Flags: W
LayerCount: 2
Fore
SplineSet
424 0 m 1,0,-1
 364 0 l 1,1,-1
 259 238 l 1,2,-1
 56 0 l 1,3,-1
 -5 0 l 1,4,-1
 101 502 l 2,5,6
 110 543 110 543 143.5 572.5 c 128,-1,7
 177 602 177 602 223 602 c 0,8,9
 264 602 264 602 286 572.5 c 128,-1,10
 308 543 308 543 299 502 c 0,11,12
 291 461 291 461 260 432 c 128,-1,13
 229 403 229 403 179 403 c 0,14,15
 158 403 158 403 137 414 c 1,16,-1
 66 81 l 1,17,-1
 250 295 l 1,18,-1
 290 295 l 1,19,-1
 387 81 l 1,20,-1
 487 552 l 2,21,22
 499 609 499 609 531 642 c 1,23,-1
 573 615 l 1,24,25
 552 597 552 597 537 532 c 2,26,-1
 424 0 l 1,0,-1
253 502 m 0,27,28
 258 523 258 523 246.5 538.5 c 128,-1,29
 235 554 235 554 214 554 c 256,30,31
 193 554 193 554 174 538.5 c 128,-1,32
 155 523 155 523 150 502 c 0,33,34
 147 481 147 481 158.5 466 c 128,-1,35
 170 451 170 451 191 451 c 256,36,37
 212 451 212 451 231 466 c 128,-1,38
 250 481 250 481 253 502 c 0,27,28
EndSplineSet
EndChar

StartChar: uni0E1D
Encoding: 3613 3613 242
Width: 573
VWidth: 1504
Flags: W
LayerCount: 2
Fore
SplineSet
424 0 m 1,0,-1
 364 0 l 1,1,-1
 259 238 l 1,2,-1
 56 0 l 1,3,-1
 -5 0 l 1,4,-1
 101 502 l 2,5,6
 110 543 110 543 143.5 572.5 c 128,-1,7
 177 602 177 602 223 602 c 0,8,9
 264 602 264 602 286 572.5 c 128,-1,10
 308 543 308 543 299 502 c 0,11,12
 291 461 291 461 260 432 c 128,-1,13
 229 403 229 403 179 403 c 0,14,15
 158 403 158 403 137 414 c 1,16,-1
 66 81 l 1,17,-1
 250 295 l 1,18,-1
 290 295 l 1,19,-1
 387 81 l 1,20,-1
 534 778 l 2,21,22
 546 835 546 835 578 868 c 1,23,-1
 620 841 l 1,24,25
 599 823 599 823 584 758 c 2,26,-1
 424 0 l 1,0,-1
253 502 m 0,27,28
 258 523 258 523 246.5 538.5 c 128,-1,29
 235 554 235 554 214 554 c 256,30,31
 193 554 193 554 174 538.5 c 128,-1,32
 155 523 155 523 150 502 c 0,33,34
 147 481 147 481 158.5 466 c 128,-1,35
 170 451 170 451 191 451 c 256,36,37
 212 451 212 451 231 466 c 128,-1,38
 250 481 250 481 253 502 c 0,27,28
EndSplineSet
EndChar

StartChar: uni0E1E
Encoding: 3614 3614 243
Width: 672
VWidth: 1504
Flags: W
LayerCount: 2
Fore
SplineSet
217 502 m 0,0,1
 222 523 222 523 210.5 538.5 c 128,-1,2
 199 554 199 554 177 554 c 256,3,4
 156 554 156 554 137.5 538.5 c 128,-1,5
 119 523 119 523 114 502 c 0,6,7
 111 481 111 481 122.5 466 c 128,-1,8
 134 451 134 451 155 451 c 256,9,10
 176 451 176 451 195 466 c 128,-1,11
 214 481 214 481 217 502 c 0,0,1
523 0 m 1,12,-1
 457 0 l 1,13,-1
 424 522 l 1,14,-1
 171 0 l 1,15,-1
 105 0 l 1,16,-1
 193 414 l 1,17,18
 170 403 170 403 144 403 c 0,19,20
 103 403 103 403 81 432.5 c 128,-1,21
 59 462 59 462 66 502 c 0,22,23
 75 543 75 543 111 572.5 c 128,-1,24
 147 602 147 602 188 602 c 256,25,26
 229 602 229 602 251.5 572.5 c 128,-1,27
 274 543 274 543 265 502 c 2,28,-1
 199 188 l 2,29,30
 191 150 191 150 168 83 c 1,31,32
 189 133 189 133 220 193 c 2,33,-1
 414 590 l 1,34,-1
 465 590 l 1,35,-1
 490 193 l 2,36,37
 493 133 493 133 493 83 c 1,38,39
 501 151 501 151 508 188 c 2,40,-1
 587 552 l 2,41,42
 599 609 599 609 630 642 c 1,43,-1
 672 615 l 1,44,45
 651 597 651 597 636 532 c 2,46,-1
 523 0 l 1,12,-1
EndSplineSet
EndChar

StartChar: uni0E1F
Encoding: 3615 3615 244
Width: 672
VWidth: 1504
Flags: W
LayerCount: 2
Fore
SplineSet
523 0 m 1,0,-1
 457 0 l 1,1,-1
 424 522 l 1,2,-1
 171 0 l 1,3,-1
 105 0 l 1,4,-1
 193 414 l 1,5,6
 170 403 170 403 144 403 c 0,7,8
 103 403 103 403 81 432.5 c 128,-1,9
 59 462 59 462 66 502 c 0,10,11
 75 543 75 543 111 572.5 c 128,-1,12
 147 602 147 602 188 602 c 256,13,14
 229 602 229 602 251.5 572.5 c 128,-1,15
 274 543 274 543 265 502 c 2,16,-1
 199 188 l 2,17,18
 191 150 191 150 168 83 c 1,19,20
 189 133 189 133 220 193 c 2,21,-1
 414 590 l 1,22,-1
 465 590 l 1,23,-1
 490 193 l 2,24,25
 493 133 493 133 493 83 c 1,26,27
 501 151 501 151 508 188 c 2,28,-1
 633 779 l 2,29,30
 645 835 645 835 677 868 c 1,31,-1
 719 841 l 1,32,33
 698 823 698 823 683 758 c 2,34,-1
 523 0 l 1,0,-1
217 502 m 0,35,36
 222 523 222 523 210.5 538.5 c 128,-1,37
 199 554 199 554 177 554 c 256,38,39
 156 554 156 554 137.5 538.5 c 128,-1,40
 119 523 119 523 114 502 c 0,41,42
 111 481 111 481 122.5 466 c 128,-1,43
 134 451 134 451 155 451 c 256,44,45
 176 451 176 451 195 466 c 128,-1,46
 214 481 214 481 217 502 c 0,35,36
EndSplineSet
EndChar

StartChar: uni0E20
Encoding: 3616 3616 245
Width: 639
VWidth: 1504
Flags: W
LayerCount: 2
Fore
SplineSet
138 86 m 256,0,1
 143 107 143 107 131 122 c 128,-1,2
 119 137 119 137 98 137 c 256,3,4
 77 137 77 137 59.5 122 c 128,-1,5
 42 107 42 107 38 86 c 256,6,7
 33 65 33 65 44.5 50.5 c 128,-1,8
 56 36 56 36 77 36 c 256,9,10
 98 36 98 36 115.5 50.5 c 128,-1,11
 133 65 133 65 138 86 c 256,0,1
501 50 m 1,12,13
 483 -21 483 -21 429 -57 c 1,14,-1
 387 -30 l 1,15,16
 438 9 438 9 451 69 c 2,17,-1
 519 391 l 2,18,19
 534 465 534 465 498 509.5 c 128,-1,20
 462 554 462 554 390 554 c 0,21,22
 339 554 339 554 284.5 524.5 c 128,-1,23
 230 495 230 495 203 450 c 1,24,25
 281 442 281 442 311 384 c 1,26,27
 224 357 224 357 206 274 c 0,28,29
 194 215 194 215 194 153 c 0,30,31
 194 126 194 126 187 90 c 0,32,33
 178 46 178 46 145.5 17 c 128,-1,34
 113 -12 113 -12 66 -12 c 0,35,36
 25 -12 25 -12 3.5 16.5 c 128,-1,37
 -18 45 -18 45 -9 86 c 0,38,39
 -1 127 -1 127 33.5 156 c 128,-1,40
 68 185 68 185 108 185 c 0,41,42
 125 185 125 185 143 177 c 1,43,44
 148 246 148 246 155 283 c 0,45,46
 170 352 170 352 239 391 c 1,47,48
 201 409 201 409 162 409 c 0,49,50
 142 409 142 409 134 408 c 1,51,52
 160 492 160 492 237 547 c 128,-1,53
 314 602 314 602 402 602 c 0,54,55
 498 602 498 602 546 547 c 128,-1,56
 594 492 594 492 575 397 c 2,57,-1
 501 50 l 1,12,13
EndSplineSet
EndChar

StartChar: uni0E21
Encoding: 3617 3617 246
Width: 601
VWidth: 1504
Flags: W
LayerCount: 2
Fore
SplineSet
149 93 m 0,0,1
 154 116 154 116 141 132.5 c 128,-1,2
 128 149 128 149 105 149 c 256,3,4
 82 149 82 149 62 132.5 c 128,-1,5
 42 116 42 116 38 93 c 0,6,7
 32 70 32 70 45.5 54 c 128,-1,8
 59 38 59 38 81 38 c 256,9,10
 104 38 104 38 123.5 54 c 128,-1,11
 143 70 143 70 149 93 c 0,0,1
217 502 m 0,12,13
 222 523 222 523 210.5 538.5 c 128,-1,14
 199 554 199 554 177 554 c 256,15,16
 156 554 156 554 137.5 538.5 c 128,-1,17
 119 523 119 523 114 502 c 0,18,19
 111 481 111 481 122.5 466 c 128,-1,20
 134 451 134 451 155 451 c 256,21,22
 176 451 176 451 195 466 c 128,-1,23
 214 481 214 481 217 502 c 0,12,13
453 0 m 1,24,-1
 394 0 l 1,25,26
 295 90 295 90 199 119 c 1,27,28
 201 105 201 105 197 92 c 0,29,30
 188 48 188 48 151 18 c 128,-1,31
 114 -12 114 -12 71 -12 c 256,32,33
 27 -12 27 -12 3.5 18 c 128,-1,34
 -20 48 -20 48 -11 92 c 0,35,36
 0 136 0 136 35.5 166.5 c 128,-1,37
 71 197 71 197 114 197 c 0,38,39
 131 197 131 197 146 193 c 1,40,-1
 193 414 l 1,41,42
 170 403 170 403 144 403 c 0,43,44
 103 403 103 403 81 432.5 c 128,-1,45
 59 462 59 462 66 502 c 0,46,47
 75 543 75 543 111 572.5 c 128,-1,48
 147 602 147 602 188 602 c 256,49,50
 229 602 229 602 251.5 572.5 c 128,-1,51
 274 543 274 543 265 502 c 2,52,-1
 197 177 l 1,53,54
 334 124 334 124 409 56 c 1,55,-1
 516 552 l 2,56,57
 528 609 528 609 560 642 c 1,58,-1
 602 615 l 1,59,60
 581 597 581 597 566 532 c 2,61,-1
 453 0 l 1,24,-1
EndSplineSet
EndChar

StartChar: uni0E22
Encoding: 3618 3618 247
Width: 564
VWidth: 1504
Flags: W
LayerCount: 2
Fore
SplineSet
281 516 m 256,0,1
 286 537 286 537 275.5 550.5 c 128,-1,2
 265 564 265 564 244 564 c 256,3,4
 223 564 223 564 207 550.5 c 128,-1,5
 191 537 191 537 187 516 c 256,6,7
 182 495 182 495 192.5 482 c 128,-1,8
 203 469 203 469 224 469 c 256,9,10
 245 469 245 469 260.5 482 c 128,-1,11
 276 495 276 495 281 516 c 256,0,1
442 134 m 2,12,13
 412 -12 412 -12 209 -12 c 0,14,15
 4 -12 4 -12 35 134 c 2,16,-1
 51 211 l 2,17,18
 59 246 59 246 86 277 c 128,-1,19
 113 308 113 308 146 320 c 1,20,21
 74 355 74 355 98 469 c 0,22,23
 110 528 110 528 152 565 c 128,-1,24
 194 602 194 602 254 602 c 0,25,26
 292 602 292 602 310 576.5 c 128,-1,27
 328 551 328 551 320 516 c 0,28,29
 314 481 314 481 286.5 456.5 c 128,-1,30
 259 432 259 432 218 432 c 0,31,32
 162 432 162 432 150 481 c 1,33,34
 145 470 145 470 143 457 c 0,35,36
 134 415 134 415 152.5 380.5 c 128,-1,37
 171 346 171 346 214 346 c 2,38,-1
 299 346 l 1,39,-1
 289 295 l 1,40,-1
 202 295 l 2,41,42
 169 295 169 295 141 271 c 128,-1,43
 113 247 113 247 105 208 c 2,44,-1
 90 138 l 2,45,46
 69 37 69 37 220 38 c 0,47,48
 369 38 369 38 390 138 c 2,49,-1
 478 552 l 2,50,51
 490 609 490 609 522 642 c 1,52,-1
 564 615 l 1,53,54
 543 597 543 597 528 532 c 2,55,-1
 442 134 l 2,12,13
EndSplineSet
EndChar

StartChar: uni0E23
Encoding: 3619 3619 248
Width: 484
VWidth: 1504
Flags: W
LayerCount: 2
Fore
SplineSet
335 87 m 2,0,1
 326 46 326 46 293 17 c 128,-1,2
 260 -12 260 -12 215 -12 c 0,3,4
 174 -12 174 -12 151 17.5 c 128,-1,5
 128 47 128 47 137 87 c 256,6,7
 146 128 146 128 181.5 157.5 c 128,-1,8
 217 187 217 187 257 187 c 0,9,10
 283 187 283 187 299 176 c 1,11,-1
 334 334 l 2,12,13
 346 396 346 396 66 442 c 1,14,15
 110 601 110 601 247 602 c 0,16,17
 279 602 279 602 333 586 c 128,-1,18
 387 570 387 570 412 570 c 0,19,20
 444 570 444 570 475 642 c 1,21,-1
 513 630 l 1,22,23
 477 520 477 520 400 520 c 0,24,25
 368 520 368 520 312.5 537 c 128,-1,26
 257 554 257 554 227 554 c 0,27,28
 200 554 200 554 171.5 530.5 c 128,-1,29
 143 507 143 507 137 483 c 1,30,31
 229 466 229 466 315.5 433 c 128,-1,32
 402 400 402 400 388 338 c 2,33,-1
 335 87 l 2,0,1
287 87 m 256,34,35
 292 108 292 108 280 123 c 128,-1,36
 268 138 268 138 247 138 c 256,37,38
 226 138 226 138 208 123 c 128,-1,39
 190 108 190 108 185 87 c 256,40,41
 180 66 180 66 192.5 51 c 128,-1,42
 205 36 205 36 226 36 c 256,43,44
 247 36 247 36 264.5 51 c 128,-1,45
 282 66 282 66 287 87 c 256,34,35
EndSplineSet
EndChar

StartChar: uni0E24
Encoding: 3620 3620 249
Width: 568
VWidth: 1504
Flags: W
LayerCount: 2
Fore
SplineSet
367 -244 m 1,0,1
 349 -315 349 -315 295 -350 c 1,2,-1
 253 -323 l 1,3,4
 304 -284 304 -284 317 -224 c 2,5,-1
 448 393 l 2,6,7
 465 470 465 470 429 512 c 128,-1,8
 393 554 393 554 319 554 c 0,9,10
 268 554 268 554 214.5 524.5 c 128,-1,11
 161 495 161 495 134 450 c 1,12,13
 224 442 224 442 239 385 c 1,14,15
 203 377 203 377 169 345 c 128,-1,16
 135 313 135 313 126 275 c 2,17,-1
 107 177 l 1,18,19
 133 188 133 188 153 188 c 0,20,21
 195 188 195 188 218.5 158.5 c 128,-1,22
 242 129 242 129 233 87 c 256,23,24
 224 45 224 45 188.5 16.5 c 128,-1,25
 153 -12 153 -12 111 -12 c 256,26,27
 69 -12 69 -12 46.5 16.5 c 128,-1,28
 24 45 24 45 33 87 c 2,29,-1
 72 274 l 2,30,31
 90 355 90 355 174 393 c 1,32,33
 136 410 136 410 60 409 c 1,34,35
 90 492 90 492 168.5 547 c 128,-1,36
 247 602 247 602 332 602 c 0,37,38
 428 602 428 602 475.5 547.5 c 128,-1,39
 523 493 523 493 504 399 c 2,40,-1
 367 -244 l 1,0,1
185 86 m 256,41,42
 190 107 190 107 177.5 122 c 128,-1,43
 165 137 165 137 144 137 c 256,44,45
 123 137 123 137 106 122 c 128,-1,46
 89 107 89 107 84 86 c 256,47,48
 79 65 79 65 90.5 50.5 c 128,-1,49
 102 36 102 36 123 36 c 256,50,51
 144 36 144 36 162 50.5 c 128,-1,52
 180 65 180 65 185 86 c 256,41,42
EndSplineSet
EndChar

StartChar: uni0E25
Encoding: 3621 3621 250
Width: 573
VWidth: 1504
Flags: W
LayerCount: 2
Fore
SplineSet
438 63 m 2,0,1
 426 7 426 7 394 -27 c 1,2,-1
 352 0 l 1,3,4
 373 18 373 18 391 81 c 0,5,6
 399 113 399 113 399 150 c 0,7,8
 396 231 396 231 356 302 c 0,9,10
 326 355 326 355 283 387 c 1,11,12
 256 387 256 387 186.5 327.5 c 128,-1,13
 117 268 117 268 98 176 c 1,14,15
 121 187 121 187 150 187 c 0,16,17
 186 187 186 187 209 164 c 128,-1,18
 232 141 232 141 232 108 c 0,19,20
 232 61 232 61 192.5 24.5 c 128,-1,21
 153 -12 153 -12 108 -12 c 0,22,23
 25 -12 25 -12 26 89 c 0,24,25
 28 203 28 203 110.5 313.5 c 128,-1,26
 193 424 193 424 299 436 c 1,27,28
 346 406 346 406 374.5 364 c 128,-1,29
 403 322 403 322 414 290 c 0,30,31
 422 266 422 266 427 220 c 1,32,-1
 433 296 l 1,33,-1
 465 459 l 1,34,35
 465 501 465 501 411 529 c 0,36,37
 366 553 366 553 320 554 c 0,38,39
 254 554 254 554 199 526 c 0,40,41
 137 496 137 496 113 445 c 1,42,-1
 60 445 l 1,43,44
 89 519 89 519 171 563 c 0,45,46
 243 602 243 602 328 602 c 0,47,48
 400 602 400 602 456 570 c 0,49,50
 521 534 521 534 520 457 c 1,51,-1
 438 63 l 2,0,1
181 96 m 0,52,53
 181 137 181 137 138 137 c 0,54,55
 112 137 112 137 94.5 117.5 c 128,-1,56
 77 98 77 98 77 74 c 0,57,58
 77 36 77 36 117 36 c 0,59,60
 143 36 143 36 162 54 c 128,-1,61
 181 72 181 72 181 96 c 0,52,53
EndSplineSet
EndChar

StartChar: uni0E26
Encoding: 3622 3622 251
Width: 639
VWidth: 1504
Flags: W
LayerCount: 2
Fore
SplineSet
438 -244 m 1,0,1
 420 -315 420 -315 366 -350 c 1,2,-1
 323 -323 l 1,3,4
 374 -284 374 -284 388 -224 c 2,5,-1
 519 391 l 2,6,7
 534 465 534 465 498 509.5 c 128,-1,8
 462 554 462 554 390 554 c 0,9,10
 339 554 339 554 284.5 524.5 c 128,-1,11
 230 495 230 495 203 450 c 1,12,13
 281 442 281 442 311 384 c 1,14,15
 224 357 224 357 206 274 c 0,16,17
 194 215 194 215 194 153 c 0,18,19
 194 126 194 126 187 90 c 0,20,21
 178 46 178 46 142.5 17 c 128,-1,22
 107 -12 107 -12 66 -12 c 256,23,24
 25 -12 25 -12 3.5 16.5 c 128,-1,25
 -18 45 -18 45 -9 86 c 0,26,27
 -1 127 -1 127 33.5 156 c 128,-1,28
 68 185 68 185 108 185 c 0,29,30
 125 185 125 185 143 177 c 1,31,32
 148 246 148 246 155 283 c 0,33,34
 170 352 170 352 239 391 c 1,35,36
 201 409 201 409 162 409 c 0,37,38
 142 409 142 409 134 408 c 1,39,40
 160 492 160 492 237 547 c 128,-1,41
 314 602 314 602 402 602 c 0,42,43
 498 602 498 602 546 547 c 128,-1,44
 594 492 594 492 575 397 c 2,45,-1
 438 -244 l 1,0,1
138 86 m 256,46,47
 143 107 143 107 131 122 c 128,-1,48
 119 137 119 137 98 137 c 256,49,50
 77 137 77 137 59.5 122 c 128,-1,51
 42 107 42 107 38 86 c 256,52,53
 33 65 33 65 44.5 50.5 c 128,-1,54
 56 36 56 36 77 36 c 256,55,56
 98 36 98 36 115.5 50.5 c 128,-1,57
 133 65 133 65 138 86 c 256,46,47
EndSplineSet
EndChar

StartChar: uni0E27
Encoding: 3623 3623 252
Width: 503
VWidth: 1504
Flags: W
LayerCount: 2
Fore
SplineSet
373 87 m 2,0,1
 364 46 364 46 328.5 17 c 128,-1,2
 293 -12 293 -12 253 -12 c 256,3,4
 212 -12 212 -12 188.5 17.5 c 128,-1,5
 165 47 165 47 174 87 c 256,6,7
 183 128 183 128 218.5 157.5 c 128,-1,8
 254 187 254 187 295 187 c 0,9,10
 321 187 321 187 337 176 c 1,11,-1
 390 420 l 2,12,13
 419 554 419 554 269 554 c 0,14,15
 152 554 152 554 99 445 c 1,16,-1
 44 445 l 1,17,18
 112 601 112 601 283 602 c 0,19,20
 369 602 369 602 416 556.5 c 128,-1,21
 463 511 463 511 445 429 c 2,22,-1
 373 87 l 2,0,1
325 87 m 256,23,24
 330 108 330 108 317.5 123 c 128,-1,25
 305 138 305 138 284 138 c 256,26,27
 263 138 263 138 245 123 c 128,-1,28
 227 108 227 108 223 87 c 256,29,30
 218 66 218 66 230 51 c 128,-1,31
 242 36 242 36 263 36 c 256,32,33
 284 36 284 36 302 51 c 128,-1,34
 320 66 320 66 325 87 c 256,23,24
EndSplineSet
EndChar

StartChar: uni0E28
Encoding: 3624 3624 253
Width: 591
VWidth: 1504
Flags: W
LayerCount: 2
Fore
SplineSet
349 370 m 256,0,1
 354 390 354 390 342.5 403.5 c 128,-1,2
 331 417 331 417 311 417 c 256,3,4
 291 417 291 417 275.5 403.5 c 128,-1,5
 260 390 260 390 256 370 c 256,6,7
 251 350 251 350 261.5 336.5 c 128,-1,8
 272 323 272 323 292 323 c 256,9,10
 312 323 312 323 328 336.5 c 128,-1,11
 344 350 344 350 349 370 c 256,0,1
453 51 m 1,12,13
 435 -20 435 -20 381 -56 c 1,14,-1
 338 -29 l 1,15,16
 389 10 389 10 403 71 c 2,17,-1
 474 405 l 2,18,19
 489 477 489 477 444 515.5 c 128,-1,20
 399 554 399 554 331 554 c 0,21,22
 262 554 262 554 199.5 506.5 c 128,-1,23
 137 459 137 459 123 390 c 0,24,25
 115 357 115 357 117 310 c 0,26,27
 120 244 120 244 120 235 c 1,28,29
 152 321 152 321 197 381 c 0,30,31
 257 459 257 459 323 459 c 0,32,33
 361 459 361 459 380.5 435 c 128,-1,34
 400 411 400 411 391 370 c 0,35,36
 382 332 382 332 351 306 c 128,-1,37
 320 280 320 280 283 280 c 0,38,39
 244 280 244 280 221 316 c 1,40,41
 194 284 194 284 159 226 c 0,42,43
 118 154 118 154 107 98 c 2,44,-1
 87 0 l 1,45,-1
 33 0 l 1,46,-1
 62 138 l 2,47,48
 71 182 71 182 64 261.5 c 128,-1,49
 57 341 57 341 66 384 c 0,50,51
 87 482 87 482 166 542 c 128,-1,52
 245 602 245 602 344 602 c 0,53,54
 419 602 419 602 471 569 c 1,55,56
 522 625 522 625 603 642 c 1,57,-1
 630 605 l 1,58,59
 591 597 591 597 560 582 c 128,-1,60
 529 567 529 567 504 542 c 1,61,62
 546 494 546 494 528 409 c 2,63,-1
 453 51 l 1,12,13
EndSplineSet
EndChar

StartChar: uni0E29
Encoding: 3625 3625 254
Width: 658
VWidth: 1504
Flags: W
LayerCount: 2
Fore
SplineSet
677 360 m 1,0,1
 648 319 648 319 566 263 c 1,2,-1
 537 128 l 2,3,4
 507 -12 507 -12 305 -12 c 0,5,6
 102 -12 102 -12 132 128 c 2,7,-1
 193 414 l 1,8,9
 170 403 170 403 144 403 c 0,10,11
 103 403 103 403 81 432.5 c 128,-1,12
 59 462 59 462 66 502 c 0,13,14
 75 543 75 543 111 572.5 c 128,-1,15
 147 602 147 602 188 602 c 256,16,17
 229 602 229 602 251.5 572.5 c 128,-1,18
 274 543 274 543 265 502 c 2,19,-1
 187 132 l 2,20,21
 167 37 167 37 314 38 c 0,22,23
 463 38 463 38 483 132 c 2,24,-1
 507 242 l 1,25,26
 459 231 459 231 430 232 c 0,27,28
 361 232 361 232 318 269.5 c 128,-1,29
 275 307 275 307 287 361 c 1,30,31
 293 396 293 396 322.5 419 c 128,-1,32
 352 442 352 442 385 442 c 0,33,34
 420 442 420 442 438.5 419 c 128,-1,35
 457 396 457 396 451 361 c 1,36,37
 439 308 439 308 382 284 c 1,38,39
 397 273 397 273 439 274 c 0,40,41
 480 274 480 274 516 289 c 1,42,-1
 573 552 l 2,43,44
 585 609 585 609 617 642 c 1,45,-1
 659 615 l 1,46,47
 638 597 638 597 623 532 c 2,48,-1
 578 319 l 1,49,50
 619 346 619 346 650 388 c 1,51,-1
 677 360 l 1,0,1
411 361 m 0,52,53
 414 378 414 378 403.5 390.5 c 128,-1,54
 393 403 393 403 376 403 c 256,55,56
 359 403 359 403 345 390.5 c 128,-1,57
 331 378 331 378 328 361 c 0,58,59
 323 344 323 344 333 332 c 128,-1,60
 343 320 343 320 360 320 c 256,61,62
 377 320 377 320 391.5 332 c 128,-1,63
 406 344 406 344 411 361 c 0,52,53
217 502 m 0,64,65
 222 523 222 523 210.5 538.5 c 128,-1,66
 199 554 199 554 177 554 c 256,67,68
 156 554 156 554 137.5 538.5 c 128,-1,69
 119 523 119 523 114 502 c 0,70,71
 111 481 111 481 122.5 466 c 128,-1,72
 134 451 134 451 155 451 c 256,73,74
 176 451 176 451 195 466 c 128,-1,75
 214 481 214 481 217 502 c 0,64,65
EndSplineSet
EndChar

StartChar: uni0E2A
Encoding: 3626 3626 255
Width: 573
VWidth: 1504
Flags: W
LayerCount: 2
Fore
SplineSet
438 63 m 2,0,1
 426 7 426 7 394 -27 c 1,2,-1
 352 0 l 1,3,4
 373 18 373 18 391 81 c 0,5,6
 399 113 399 113 399 150 c 0,7,8
 396 231 396 231 356 302 c 0,9,10
 326 355 326 355 283 387 c 1,11,12
 256 387 256 387 186.5 327.5 c 128,-1,13
 117 268 117 268 98 176 c 1,14,15
 121 187 121 187 150 187 c 0,16,17
 186 187 186 187 209 164 c 128,-1,18
 232 141 232 141 232 108 c 0,19,20
 232 61 232 61 192.5 24.5 c 128,-1,21
 153 -12 153 -12 108 -12 c 0,22,23
 25 -12 25 -12 26 89 c 0,24,25
 28 203 28 203 110.5 313.5 c 128,-1,26
 193 424 193 424 299 436 c 1,27,28
 346 406 346 406 374.5 364 c 128,-1,29
 403 322 403 322 414 290 c 0,30,31
 422 266 422 266 427 220 c 1,32,-1
 433 296 l 1,33,-1
 465 459 l 1,34,35
 465 501 465 501 411 529 c 0,36,37
 366 553 366 553 320 554 c 0,38,39
 254 554 254 554 199 526 c 0,40,41
 137 496 137 496 113 445 c 1,42,-1
 60 445 l 1,43,44
 89 519 89 519 171 563 c 0,45,46
 243 602 243 602 328 602 c 0,47,48
 409 602 409 602 465 563 c 1,49,50
 521 625 521 625 603 642 c 1,51,-1
 630 605 l 1,52,53
 546 588 546 588 495 531 c 1,54,55
 522 498 522 498 519 450 c 1,56,-1
 438 63 l 2,0,1
181 96 m 0,57,58
 181 137 181 137 138 137 c 0,59,60
 112 137 112 137 94.5 117.5 c 128,-1,61
 77 98 77 98 77 74 c 0,62,63
 77 36 77 36 117 36 c 0,64,65
 143 36 143 36 162 54 c 128,-1,66
 181 72 181 72 181 96 c 0,57,58
EndSplineSet
EndChar

StartChar: uni0E2B
Encoding: 3627 3627 256
Width: 642
VWidth: 1504
Flags: W
LayerCount: 2
Fore
SplineSet
504 51 m 1,0,1
 486 -20 486 -20 432 -56 c 1,2,-1
 390 -29 l 1,3,4
 441 10 441 10 454 71 c 2,5,-1
 507 325 l 2,6,7
 522 394 522 394 486 394 c 0,8,9
 463 394 463 394 421 341 c 2,10,-1
 155 0 l 1,11,-1
 105 0 l 1,12,-1
 193 414 l 1,13,14
 170 403 170 403 144 403 c 0,15,16
 103 403 103 403 81 432.5 c 128,-1,17
 59 462 59 462 66 502 c 0,18,19
 75 543 75 543 111 572.5 c 128,-1,20
 147 602 147 602 188 602 c 256,21,22
 229 602 229 602 251.5 572.5 c 128,-1,23
 274 543 274 543 265 502 c 2,24,-1
 196 176 l 2,25,26
 193 162 193 162 168 83 c 1,27,28
 195 121 195 121 217 149 c 2,29,-1
 385 373 l 2,30,31
 415 411 415 411 447 426 c 1,32,33
 417 455 417 455 426 502 c 0,34,35
 435 543 435 543 471 572.5 c 128,-1,36
 507 602 507 602 548 602 c 256,37,38
 589 602 589 602 611 572.5 c 128,-1,39
 633 543 633 543 624 502 c 0,40,41
 612 445 612 445 557 417 c 1,42,43
 577 391 577 391 561 325 c 2,44,-1
 504 51 l 1,0,1
217 502 m 0,45,46
 222 523 222 523 210.5 538.5 c 128,-1,47
 199 554 199 554 177 554 c 256,48,49
 156 554 156 554 137.5 538.5 c 128,-1,50
 119 523 119 523 114 502 c 0,51,52
 111 481 111 481 122.5 466 c 128,-1,53
 134 451 134 451 155 451 c 256,54,55
 176 451 176 451 195 466 c 128,-1,56
 214 481 214 481 217 502 c 0,45,46
575 502 m 0,57,58
 580 523 580 523 568.5 538.5 c 128,-1,59
 557 554 557 554 535 554 c 256,60,61
 514 554 514 554 495.5 538.5 c 128,-1,62
 477 523 477 523 472 502 c 0,63,64
 469 481 469 481 480.5 466 c 128,-1,65
 492 451 492 451 513 451 c 256,66,67
 534 451 534 451 553 466 c 128,-1,68
 572 481 572 481 575 502 c 0,57,58
EndSplineSet
EndChar

StartChar: uni0E2C
Encoding: 3628 3628 257
Width: 682
VWidth: 1504
Flags: W
LayerCount: 2
Fore
SplineSet
217 502 m 0,0,1
 222 523 222 523 210.5 538.5 c 128,-1,2
 199 554 199 554 177 554 c 256,3,4
 156 554 156 554 137.5 538.5 c 128,-1,5
 119 523 119 523 114 502 c 0,6,7
 111 481 111 481 122.5 466 c 128,-1,8
 134 451 134 451 155 451 c 256,9,10
 176 451 176 451 195 466 c 128,-1,11
 214 481 214 481 217 502 c 0,0,1
591 502 m 0,12,13
 596 523 596 523 584.5 538.5 c 128,-1,14
 573 554 573 554 552 554 c 256,15,16
 531 554 531 554 512 538.5 c 128,-1,17
 493 523 493 523 489 502 c 0,18,19
 486 481 486 481 497 466 c 128,-1,20
 508 451 508 451 529 451 c 256,21,22
 550 451 550 451 569 466 c 128,-1,23
 588 481 588 481 591 502 c 0,12,13
534 0 m 1,24,-1
 468 0 l 1,25,-1
 379 293 l 1,26,-1
 167 0 l 1,27,-1
 105 0 l 1,28,-1
 193 414 l 1,29,30
 170 403 170 403 144 403 c 0,31,32
 103 403 103 403 81 432.5 c 128,-1,33
 59 462 59 462 66 502 c 0,34,35
 75 543 75 543 111 572.5 c 128,-1,36
 147 602 147 602 188 602 c 256,37,38
 229 602 229 602 251.5 572.5 c 128,-1,39
 274 543 274 543 265 502 c 2,40,-1
 190 147 l 2,41,42
 185 123 185 123 170 74 c 1,43,44
 185 100 185 100 209 138 c 1,45,-1
 366 349 l 1,46,-1
 417 349 l 1,47,-1
 483 138 l 2,48,49
 486 127 486 127 498 74 c 1,50,51
 506 122 506 122 510 147 c 2,52,-1
 567 414 l 1,53,54
 544 403 544 403 519 403 c 0,55,56
 478 403 478 403 455.5 432.5 c 128,-1,57
 433 462 433 462 441 502 c 0,58,59
 450 543 450 543 486 572.5 c 128,-1,60
 522 602 522 602 563 602 c 0,61,62
 595 602 595 602 608 584 c 1,63,64
 646 625 646 625 728 642 c 1,65,-1
 755 605 l 1,66,67
 671 588 671 588 638 552 c 1,68,69
 646 525 646 525 639 502 c 2,70,-1
 534 0 l 1,24,-1
EndSplineSet
Substitution2: "<23,16000>  in Thai lookup 77 nested-substitutions 0 subtable" uni0E2C.alt1
Substitution2: "Single Substitution lookup 58 subtable" uni0E2C.alt1
EndChar

StartChar: uni0E2D
Encoding: 3629 3629 258
Width: 582
VWidth: 1504
Flags: W
LayerCount: 2
Fore
SplineSet
250 313 m 256,0,1
 255 334 255 334 242.5 349 c 128,-1,2
 230 364 230 364 209 364 c 256,3,4
 188 364 188 364 170 349 c 128,-1,5
 152 334 152 334 147 313 c 256,6,7
 142 292 142 292 153.5 277 c 128,-1,8
 165 262 165 262 187 262 c 256,9,10
 208 262 208 262 226.5 277 c 128,-1,11
 245 292 245 292 250 313 c 256,0,1
460 128 m 1,12,13
 427 -12 427 -12 229 -12 c 256,14,15
 30 -12 30 -12 60 128 c 2,16,-1
 99 313 l 2,17,18
 107 354 107 354 143 383 c 128,-1,19
 179 412 179 412 220 412 c 256,20,21
 261 412 261 412 283 382.5 c 128,-1,22
 305 353 305 353 298 313 c 0,23,24
 289 272 289 272 256 243 c 128,-1,25
 223 214 223 214 177 214 c 0,26,27
 151 214 151 214 134 224 c 1,28,-1
 116 140 l 2,29,30
 95 38 95 38 242 38 c 0,31,32
 386 38 386 38 408 140 c 2,33,-1
 468 420 l 2,34,35
 482 483 482 483 436 520 c 0,36,37
 395 553 395 553 325 554 c 0,38,39
 263 554 263 554 206 525 c 0,40,41
 143 493 143 493 122 445 c 1,42,-1
 68 445 l 1,43,44
 98 516 98 516 171.5 559 c 128,-1,45
 245 602 245 602 338 602 c 0,46,47
 427 602 427 602 480 560 c 0,48,49
 542 512 542 512 523 429 c 2,50,-1
 460 128 l 1,12,13
EndSplineSet
EndChar

StartChar: uni0E2E
Encoding: 3630 3630 259
Width: 559
VWidth: 1504
Flags: W
LayerCount: 2
Fore
SplineSet
438 134 m 2,0,1
 408 -12 408 -12 208 -12 c 0,2,3
 5 -12 5 -12 35 134 c 2,4,-1
 65 274 l 2,5,6
 74 315 74 315 109 344 c 128,-1,7
 144 373 144 373 185 373 c 256,8,9
 226 373 226 373 249 343.5 c 128,-1,10
 272 314 272 314 263 274 c 256,11,12
 254 233 254 233 222.5 203.5 c 128,-1,13
 191 174 191 174 143 174 c 0,14,15
 117 174 117 174 101 185 c 1,16,-1
 90 140 l 1,17,18
 69 38 69 38 218 38 c 0,19,20
 364 38 364 38 385 141 c 2,21,-1
 451 447 l 2,22,23
 456 467 456 467 447 481 c 1,24,25
 376 403 376 403 242 403 c 0,26,27
 75 403 75 403 95 493 c 0,28,29
 107 550 107 550 190 581 c 0,30,31
 252 604 252 604 323 603 c 0,32,33
 412 603 412 603 462 560 c 1,34,35
 503 620 503 620 581 642 c 1,36,-1
 608 605 l 1,37,38
 528 584 528 584 489 525 c 1,39,40
 512 478 512 478 501 426 c 2,41,-1
 438 134 l 2,0,1
424 522 m 1,42,43
 385 557 385 557 311 557 c 0,44,45
 258 557 258 557 212 542 c 0,46,47
 155 524 155 524 149 493 c 0,48,49
 140 451 140 451 256 451 c 0,50,51
 368 451 368 451 424 522 c 1,42,43
215 274 m 256,52,53
 220 295 220 295 208 310 c 128,-1,54
 196 325 196 325 174 325 c 256,55,56
 153 325 153 325 135 310 c 128,-1,57
 117 295 117 295 113 274 c 256,58,59
 108 253 108 253 120 238 c 128,-1,60
 132 223 132 223 153 223 c 256,61,62
 174 223 174 223 192 238 c 128,-1,63
 210 253 210 253 215 274 c 256,52,53
EndSplineSet
EndChar

StartChar: uni0E2F
Encoding: 3631 3631 260
Width: 588
VWidth: 1504
Flags: W
LayerCount: 2
Fore
SplineSet
447 51 m 1,0,1
 429 -20 429 -20 375 -56 c 1,2,-1
 332 -29 l 1,3,4
 383 10 383 10 397 71 c 2,5,-1
 486 492 l 2,6,7
 497 539 497 539 450 542 c 1,8,9
 366 395 366 395 244 394 c 0,10,11
 173 394 173 394 143 425 c 128,-1,12
 113 456 113 456 123 505 c 0,13,14
 131 544 131 544 166.5 573 c 128,-1,15
 202 602 202 602 241 602 c 256,16,17
 280 602 280 602 301.5 573.5 c 128,-1,18
 323 545 323 545 316 505 c 0,19,20
 308 472 308 472 283 447 c 1,21,22
 372 476 372 476 417 590 c 1,23,-1
 471 590 l 2,24,25
 561 590 561 590 542 496 c 2,26,-1
 447 51 l 1,0,1
263 507 m 256,27,28
 268 527 268 527 258 539.5 c 128,-1,29
 248 552 248 552 229 552 c 256,30,31
 209 552 209 552 194 539 c 128,-1,32
 179 526 179 526 174 507 c 256,33,34
 169 487 169 487 179.5 475 c 128,-1,35
 190 463 190 463 209 463 c 256,36,37
 229 463 229 463 243.5 475 c 128,-1,38
 258 487 258 487 263 507 c 256,27,28
EndSplineSet
EndChar

StartChar: uni0E30
Encoding: 3632 3632 261
Width: 536
VWidth: 1504
Flags: W
LayerCount: 2
Fore
SplineSet
513 575 m 1,0,1
 487 473 487 473 415 407 c 128,-1,2
 343 341 343 341 250 341 c 0,3,4
 173 341 173 341 126 370 c 0,5,6
 67 405 67 405 81 474 c 0,7,8
 90 513 90 513 124.5 541.5 c 128,-1,9
 159 570 159 570 199 570 c 256,10,11
 238 570 238 570 260.5 541.5 c 128,-1,12
 283 513 283 513 274 474 c 0,13,14
 263 423 263 423 214 394 c 1,15,16
 237 388 237 388 250 388 c 0,17,18
 333 391 333 391 385.5 441.5 c 128,-1,19
 438 492 438 492 459 575 c 1,20,-1
 513 575 l 1,0,1
223 474 m 256,21,22
 228 495 228 495 217 508.5 c 128,-1,23
 206 522 206 522 185 522 c 256,24,25
 164 522 164 522 148 508.5 c 128,-1,26
 132 495 132 495 128 474 c 256,27,28
 123 453 123 453 133.5 440 c 128,-1,29
 144 427 144 427 165 427 c 256,30,31
 186 427 186 427 202 440 c 128,-1,32
 218 453 218 453 223 474 c 256,21,22
445 256 m 1,33,34
 419 154 419 154 347 88.5 c 128,-1,35
 275 23 275 23 182 23 c 0,36,37
 105 23 105 23 59 51 c 0,38,39
 0 86 0 86 14 155 c 0,40,41
 23 194 23 194 57.5 222.5 c 128,-1,42
 92 251 92 251 131 251 c 256,43,44
 170 251 170 251 192.5 222.5 c 128,-1,45
 215 194 215 194 206 155 c 0,46,47
 195 104 195 104 146 75 c 1,48,49
 169 69 169 69 182 69 c 0,50,51
 265 72 265 72 317.5 122.5 c 128,-1,52
 370 173 370 173 391 256 c 1,53,-1
 445 256 l 1,33,34
155 155 m 256,54,55
 160 176 160 176 149 189.5 c 128,-1,56
 138 203 138 203 117 203 c 256,57,58
 96 203 96 203 80.5 189.5 c 128,-1,59
 65 176 65 176 60 155 c 256,60,61
 55 134 55 134 66 121 c 128,-1,62
 77 108 77 108 98 108 c 256,63,64
 119 108 119 108 134.5 121 c 128,-1,65
 150 134 150 134 155 155 c 256,54,55
EndSplineSet
EndChar

StartChar: uni0E31
Encoding: 3633 3633 262
Width: 0
VWidth: 1504
Flags: W
LayerCount: 2
Fore
SplineSet
206 931 m 1,0,1
 183 829 183 829 103 763.5 c 128,-1,2
 23 698 23 698 -77 698 c 0,3,4
 -164 698 -164 698 -209 734 c 128,-1,5
 -254 770 -254 770 -241 829 c 0,6,7
 -233 868 -233 868 -198.5 896.5 c 128,-1,8
 -164 925 -164 925 -125 925 c 256,9,10
 -86 925 -86 925 -63.5 897 c 128,-1,11
 -41 869 -41 869 -48 830 c 0,12,13
 -59 779 -59 779 -111 749 c 1,14,15
 -90 744 -90 744 -56 745 c 0,16,17
 16 747 16 747 77 803 c 1,18,19
 130 856 130 856 149 931 c 1,20,-1
 206 931 l 1,0,1
-96 832 m 256,21,22
 -91 853 -91 853 -102.5 867 c 128,-1,23
 -114 881 -114 881 -134 881 c 256,24,25
 -154 881 -154 881 -172 867 c 128,-1,26
 -190 853 -190 853 -194 832 c 256,27,28
 -199 811 -199 811 -186.5 797.5 c 128,-1,29
 -174 784 -174 784 -155 784 c 256,30,31
 -135 784 -135 784 -118 797.5 c 128,-1,32
 -101 811 -101 811 -96 832 c 256,21,22
EndSplineSet
Substitution2: "<23,16000>  in Thai lookup 65 nested-substitutions 2 subtable" uni0E31.alt1
Substitution2: "Single Substitution lookup 58 subtable" uni0E31.alt1
EndChar

StartChar: uni0E32
Encoding: 3634 3634 263
Width: 475
VWidth: 1504
Flags: W
LayerCount: 2
Fore
SplineSet
337 51 m 1,0,1
 319 -20 319 -20 265 -56 c 1,2,-1
 223 -29 l 1,3,4
 274 10 274 10 287 71 c 2,5,-1
 367 450 l 2,6,7
 376 495 376 495 349 524.5 c 128,-1,8
 322 554 322 554 263 554 c 0,9,10
 210 554 210 554 171 518.5 c 128,-1,11
 132 483 132 483 120 442 c 1,12,-1
 65 442 l 1,13,14
 80 505 80 505 139.5 553.5 c 128,-1,15
 199 602 199 602 275 602 c 0,16,17
 362 602 362 602 399 559.5 c 128,-1,18
 436 517 436 517 421 448 c 2,19,-1
 337 51 l 1,0,1
EndSplineSet
Substitution2: "<23,16000>  in Thai lookup 65 nested-substitutions 8 subtable" uni0E45
EndChar

StartChar: uni0E33
Encoding: 3635 3635 264
Width: 475
VWidth: 1504
Flags: W
LayerCount: 2
Fore
SplineSet
93 809 m 256,0,1
 82 761 82 761 42.5 728 c 128,-1,2
 3 695 3 695 -44 695 c 0,3,4
 -92 695 -92 695 -119 728 c 128,-1,5
 -146 761 -146 761 -135 809 c 256,6,7
 -124 857 -124 857 -84 891 c 128,-1,8
 -44 925 -44 925 3 925 c 0,9,10
 51 925 51 925 77.5 891 c 128,-1,11
 104 857 104 857 93 809 c 256,0,1
44 809 m 256,12,13
 50 836 50 836 34 855.5 c 128,-1,14
 18 875 18 875 -6 875 c 0,15,16
 -33 875 -33 875 -56.5 855.5 c 128,-1,17
 -80 836 -80 836 -86 809 c 256,18,19
 -92 782 -92 782 -76 763.5 c 128,-1,20
 -60 745 -60 745 -33 745 c 0,21,22
 -7 745 -7 745 15.5 763.5 c 128,-1,23
 38 782 38 782 44 809 c 256,12,13
337 51 m 1,24,25
 319 -20 319 -20 265 -56 c 1,26,-1
 223 -29 l 1,27,28
 274 10 274 10 287 71 c 2,29,-1
 367 450 l 2,30,31
 376 495 376 495 349 524.5 c 128,-1,32
 322 554 322 554 263 554 c 0,33,34
 210 554 210 554 171 518.5 c 128,-1,35
 132 483 132 483 120 442 c 1,36,-1
 65 442 l 1,37,38
 80 505 80 505 139.5 553.5 c 128,-1,39
 199 602 199 602 275 602 c 0,40,41
 362 602 362 602 399 559.5 c 128,-1,42
 436 517 436 517 421 448 c 2,43,-1
 337 51 l 1,24,25
EndSplineSet
Substitution2: "<23,16000>  in Thai lookup 65 nested-substitutions 2 subtable" uni0E33.alt1
Substitution2: "Single Substitution lookup 58 subtable" uni0E33.alt1
EndChar

StartChar: uni0E34
Encoding: 3636 3636 265
Width: 0
VWidth: 1504
Flags: W
LayerCount: 2
Fore
SplineSet
5 684 m 1,0,1
 -153 746 -153 746 -305 746 c 0,2,3
 -359 746 -359 746 -426 737 c 1,4,5
 -408 815 -408 815 -334 863 c 0,6,7
 -268 907 -268 907 -188 907 c 0,8,9
 14 907 14 907 5 684 c 1,0,1
-41 742 m 1,10,11
 -80 864 -80 864 -196 863 c 0,12,13
 -301 863 -301 863 -355 784 c 1,14,15
 -322 789 -322 789 -283 788 c 0,16,17
 -139 789 -139 789 -41 742 c 1,10,11
EndSplineSet
Substitution2: "<23,16000>  in Thai lookup 65 nested-substitutions 2 subtable" uni0E34.alt1
Substitution2: "Single Substitution lookup 58 subtable" uni0E34.alt1
EndChar

StartChar: uni0E35
Encoding: 3637 3637 266
Width: 0
VWidth: 1504
Flags: W
LayerCount: 2
Fore
SplineSet
5 684 m 1,0,1
 -153 746 -153 746 -305 746 c 0,2,3
 -359 746 -359 746 -426 737 c 1,4,5
 -408 815 -408 815 -334 863 c 0,6,7
 -268 907 -268 907 -188 907 c 0,8,9
 -68 907 -68 907 -23 827 c 1,10,-1
 8 973 l 1,11,-1
 57 973 l 1,12,-1
 5 725 l 1,13,14
 7 705 7 705 5 684 c 1,0,1
-41 742 m 1,15,16
 -80 864 -80 864 -196 863 c 0,17,18
 -301 863 -301 863 -355 784 c 1,19,20
 -322 789 -322 789 -283 788 c 0,21,22
 -139 789 -139 789 -41 742 c 1,15,16
EndSplineSet
Substitution2: "<23,16000>  in Thai lookup 65 nested-substitutions 2 subtable" uni0E35.alt1
Substitution2: "Single Substitution lookup 58 subtable" uni0E35.alt1
EndChar

StartChar: uni0E36
Encoding: 3638 3638 267
Width: 0
VWidth: 1504
Flags: W
LayerCount: 2
Fore
SplineSet
5 684 m 1,0,1
 -153 746 -153 746 -305 746 c 0,2,3
 -359 746 -359 746 -426 737 c 1,4,5
 -408 815 -408 815 -334 863 c 0,6,7
 -268 907 -268 907 -188 907 c 0,8,9
 -107 907 -107 907 -57 868 c 1,10,11
 -59 880 -59 880 -56 892 c 0,12,13
 -50 922 -50 922 -24 944 c 128,-1,14
 2 966 2 966 32 966 c 256,15,16
 62 966 62 966 79 944 c 128,-1,17
 96 922 96 922 90 892 c 0,18,19
 82 862 82 862 56 840 c 128,-1,20
 30 818 30 818 0 818 c 0,21,22
 -6 818 -6 818 -17 821 c 1,23,24
 8 768 8 768 5 684 c 1,0,1
-41 742 m 1,25,26
 -80 864 -80 864 -196 863 c 0,27,28
 -301 863 -301 863 -355 784 c 1,29,30
 -322 789 -322 789 -283 788 c 0,31,32
 -139 789 -139 789 -41 742 c 1,25,26
56 892 m 0,33,34
 59 909 59 909 50 920 c 128,-1,35
 41 931 41 931 24 931 c 256,36,37
 7 931 7 931 -5.5 920 c 128,-1,38
 -18 909 -18 909 -21 892 c 0,39,40
 -26 875 -26 875 -17 864 c 128,-1,41
 -8 853 -8 853 8 853 c 0,42,43
 25 853 25 853 38 864 c 128,-1,44
 51 875 51 875 56 892 c 0,33,34
EndSplineSet
Substitution2: "<23,16000>  in Thai lookup 65 nested-substitutions 2 subtable" uni0E36.alt1
Substitution2: "Single Substitution lookup 58 subtable" uni0E36.alt1
EndChar

StartChar: uni0E37
Encoding: 3639 3639 268
Width: 0
VWidth: 1504
Flags: W
LayerCount: 2
Fore
SplineSet
-41 742 m 1,0,1
 -80 864 -80 864 -196 863 c 0,2,3
 -301 863 -301 863 -355 784 c 1,4,5
 -322 789 -322 789 -283 788 c 0,6,7
 -139 789 -139 789 -41 742 c 1,0,1
5 684 m 1,8,9
 -153 746 -153 746 -305 746 c 0,10,11
 -359 746 -359 746 -426 737 c 1,12,13
 -408 815 -408 815 -334 863 c 0,14,15
 -268 907 -268 907 -188 907 c 0,16,17
 -153 907 -153 907 -126 901 c 1,18,-1
 -111 973 l 1,19,-1
 -62 973 l 1,20,-1
 -81 883 l 1,21,22
 -42 863 -42 863 -23 827 c 1,23,-1
 8 973 l 1,24,-1
 57 973 l 1,25,-1
 5 725 l 1,26,27
 7 705 7 705 5 684 c 1,8,9
EndSplineSet
Substitution2: "<23,16000>  in Thai lookup 65 nested-substitutions 2 subtable" uni0E37.alt1
Substitution2: "Single Substitution lookup 58 subtable" uni0E37.alt1
EndChar

StartChar: uni0E38
Encoding: 3640 3640 269
Width: 0
VWidth: 1504
Flags: W
LayerCount: 2
Fore
SplineSet
-224 -165 m 0,0,1
 -219 -148 -219 -148 -228.5 -137 c 128,-1,2
 -238 -126 -238 -126 -254 -126 c 256,3,4
 -271 -126 -271 -126 -284.5 -137.5 c 128,-1,5
 -298 -149 -298 -149 -302 -165 c 0,6,7
 -305 -182 -305 -182 -296 -193.5 c 128,-1,8
 -287 -205 -287 -205 -271 -205 c 256,9,10
 -254 -205 -254 -205 -240.5 -193.5 c 128,-1,11
 -227 -182 -227 -182 -224 -165 c 0,0,1
-212 -301 m 2,12,13
 -224 -358 -224 -358 -256 -391 c 1,14,-1
 -298 -364 l 1,15,16
 -274 -341 -274 -341 -262 -287 c 2,17,-1
 -253 -242 l 1,18,19
 -265 -247 -265 -247 -280 -247 c 0,20,21
 -313 -247 -313 -247 -331.5 -223.5 c 128,-1,22
 -350 -200 -350 -200 -343 -167 c 256,23,24
 -335 -134 -335 -134 -307.5 -110.5 c 128,-1,25
 -280 -87 -280 -87 -247 -87 c 256,26,27
 -214 -87 -214 -87 -195 -110.5 c 128,-1,28
 -176 -134 -176 -134 -184 -167 c 2,29,-1
 -212 -301 l 2,12,13
EndSplineSet
Substitution2: "<23,16000>  in Thai lookup 65 nested-substitutions 6 subtable" uni0E38.alt1
Substitution2: "Single Substitution lookup 59 subtable" a
Substitution2: "Single Substitution lookup 58 subtable" uni0E38.alt1
EndChar

StartChar: uni0E39
Encoding: 3641 3641 270
Width: 0
VWidth: 1504
Flags: W
LayerCount: 2
Fore
SplineSet
-382 -165 m 0,0,1
 -377 -148 -377 -148 -386.5 -137 c 128,-1,2
 -396 -126 -396 -126 -412 -126 c 256,3,4
 -429 -126 -429 -126 -442.5 -137.5 c 128,-1,5
 -456 -149 -456 -149 -460 -165 c 0,6,7
 -463 -182 -463 -182 -454 -193.5 c 128,-1,8
 -445 -205 -445 -205 -429 -205 c 256,9,10
 -412 -205 -412 -205 -398.5 -193.5 c 128,-1,11
 -385 -182 -385 -182 -382 -165 c 0,0,1
-190 -191 m 1,12,-1
 -209 -290 l 1,13,14
 -230 -383 -230 -383 -338 -384 c 0,15,16
 -440 -384 -440 -384 -421 -293 c 2,17,-1
 -411 -242 l 1,18,19
 -423 -247 -423 -247 -438 -247 c 0,20,21
 -471 -247 -471 -247 -489.5 -223.5 c 128,-1,22
 -508 -200 -508 -200 -501 -167 c 256,23,24
 -493 -134 -493 -134 -465.5 -110.5 c 128,-1,25
 -438 -87 -438 -87 -405 -87 c 256,26,27
 -372 -87 -372 -87 -353 -110.5 c 128,-1,28
 -334 -134 -334 -134 -341 -167 c 2,29,-1
 -370 -302 l 2,30,31
 -378 -337 -378 -337 -325 -337 c 0,32,33
 -274 -337 -274 -337 -266 -302 c 2,34,-1
 -239 -171 l 2,35,36
 -227 -114 -227 -114 -196 -81 c 1,37,-1
 -153 -108 l 1,38,39
 -175 -126 -175 -126 -190 -191 c 1,12,-1
EndSplineSet
Substitution2: "<23,16000>  in Thai lookup 65 nested-substitutions 6 subtable" uni0E39.alt1
Substitution2: "Single Substitution lookup 59 subtable" b
Substitution2: "Single Substitution lookup 58 subtable" uni0E39.alt1
EndChar

StartChar: uni0E3A
Encoding: 3642 3642 271
Width: 0
VWidth: 1504
Flags: W
LayerCount: 2
Fore
SplineSet
-190 -144 m 0,0,1
 -195 -161 -195 -161 -208 -173 c 128,-1,2
 -221 -185 -221 -185 -238 -185 c 256,3,4
 -255 -185 -255 -185 -264.5 -173 c 128,-1,5
 -274 -161 -274 -161 -269 -144 c 0,6,7
 -266 -127 -266 -127 -252 -116 c 128,-1,8
 -238 -105 -238 -105 -221 -105 c 256,9,10
 -204 -105 -204 -105 -195.5 -116 c 128,-1,11
 -187 -127 -187 -127 -190 -144 c 0,0,1
EndSplineSet
Substitution2: "<23,16000>  in Thai lookup 65 nested-substitutions 6 subtable" uni0E3A.alt1
Substitution2: "Single Substitution lookup 59 subtable" c
Substitution2: "Single Substitution lookup 58 subtable" uni0E3A.alt1
EndChar

StartChar: uni0E3F
Encoding: 3647 3647 272
Width: 618
VWidth: 1504
Flags: W
LayerCount: 2
Fore
SplineSet
486 220 m 0,0,1
 451 62 451 62 253 38 c 1,2,-1
 226 -89 l 1,3,-1
 176 -89 l 1,4,-1
 202 33 l 1,5,-1
 177 33 l 2,6,7
 121 33 121 33 57 47 c 1,8,-1
 188 663 l 1,9,10
 277 683 277 683 329 683 c 2,11,-1
 340 683 l 1,12,-1
 363 787 l 1,13,-1
 412 787 l 1,14,-1
 390 680 l 1,15,16
 552 657 552 657 523 520 c 0,17,18
 502 419 502 419 397 378 c 1,19,20
 441 361 441 361 466 323 c 0,21,22
 498 279 498 279 486 220 c 0,0,1
430 218 m 0,23,24
 445 286 445 286 396 322 c 1,25,26
 351 352 351 352 268 352 c 2,27,-1
 179 352 l 1,28,-1
 123 89 l 1,29,30
 150 81 150 81 200 81 c 0,31,32
 281 81 281 81 341 111 c 0,33,34
 415 147 415 147 430 218 c 0,23,24
468 519 m 0,35,36
 482 581 482 581 430 611 c 0,37,38
 388 635 388 635 319 635 c 0,39,40
 289 635 289 635 238 624 c 1,41,-1
 190 402 l 1,42,-1
 295 402 l 2,43,44
 364 402 364 402 410.5 435.5 c 128,-1,45
 457 469 457 469 468 519 c 0,35,36
EndSplineSet
EndChar

StartChar: uni0E40
Encoding: 3648 3648 273
Width: 305
VWidth: 1504
Flags: W
LayerCount: 2
Fore
SplineSet
188 93 m 256,0,1
 193 114 193 114 180.5 129 c 128,-1,2
 168 144 168 144 147 144 c 256,3,4
 126 144 126 144 108 129 c 128,-1,5
 90 114 90 114 86 93 c 256,6,7
 81 72 81 72 92.5 57 c 128,-1,8
 104 42 104 42 125 42 c 256,9,10
 146 42 146 42 164.5 57 c 128,-1,11
 183 72 183 72 188 93 c 256,0,1
238 93 m 256,12,13
 229 51 229 51 192.5 21 c 128,-1,14
 156 -9 156 -9 114 -9 c 0,15,16
 67 -9 67 -9 45 24 c 0,17,18
 25 53 25 53 35 93 c 2,19,-1
 132 552 l 2,20,21
 144 609 144 609 176 642 c 1,22,-1
 218 615 l 1,23,24
 197 597 197 597 184 539 c 2,25,-1
 107 182 l 1,26,27
 131 194 131 194 158 194 c 0,28,29
 200 194 200 194 223.5 164.5 c 128,-1,30
 247 135 247 135 238 93 c 256,12,13
EndSplineSet
EndChar

StartChar: uni0E41
Encoding: 3649 3649 274
Width: 567
VWidth: 1504
Flags: W
LayerCount: 2
Fore
SplineSet
188 93 m 256,0,1
 193 114 193 114 180.5 129 c 128,-1,2
 168 144 168 144 147 144 c 256,3,4
 126 144 126 144 108 129 c 128,-1,5
 90 114 90 114 86 93 c 256,6,7
 81 72 81 72 92.5 57 c 128,-1,8
 104 42 104 42 125 42 c 256,9,10
 146 42 146 42 164.5 57 c 128,-1,11
 183 72 183 72 188 93 c 256,0,1
238 93 m 256,12,13
 229 51 229 51 192.5 21 c 128,-1,14
 156 -9 156 -9 114 -9 c 0,15,16
 67 -9 67 -9 45 24 c 0,17,18
 25 53 25 53 35 93 c 2,19,-1
 132 552 l 2,20,21
 144 609 144 609 176 642 c 1,22,-1
 218 615 l 1,23,24
 197 597 197 597 184 539 c 2,25,-1
 107 182 l 1,26,27
 131 194 131 194 158 194 c 0,28,29
 200 194 200 194 223.5 164.5 c 128,-1,30
 247 135 247 135 238 93 c 256,12,13
448 93 m 256,31,32
 453 114 453 114 441 129 c 128,-1,33
 429 144 429 144 408 144 c 256,34,35
 387 144 387 144 368.5 129 c 128,-1,36
 350 114 350 114 346 93 c 256,37,38
 341 72 341 72 352.5 57 c 128,-1,39
 364 42 364 42 385 42 c 256,40,41
 406 42 406 42 424.5 57 c 128,-1,42
 443 72 443 72 448 93 c 256,31,32
498 93 m 256,43,44
 489 51 489 51 453 21 c 128,-1,45
 417 -9 417 -9 375 -9 c 0,46,47
 328 -9 328 -9 305 24 c 0,48,49
 285 53 285 53 295 93 c 2,50,-1
 393 552 l 2,51,52
 405 609 405 609 436 642 c 1,53,-1
 478 615 l 1,54,55
 457 597 457 597 444 539 c 2,56,-1
 367 182 l 1,57,58
 391 194 391 194 418 194 c 0,59,60
 460 194 460 194 483.5 164.5 c 128,-1,61
 507 135 507 135 498 93 c 256,43,44
EndSplineSet
EndChar

StartChar: uni0E42
Encoding: 3650 3650 275
Width: 356
VWidth: 1504
Flags: W
LayerCount: 2
Fore
SplineSet
238 90 m 256,0,1
 243 111 243 111 230 126 c 128,-1,2
 217 141 217 141 196 141 c 0,3,4
 176 141 176 141 158 126 c 128,-1,5
 140 111 140 111 135 90 c 256,6,7
 130 69 130 69 141.5 54 c 128,-1,8
 153 39 153 39 174 39 c 256,9,10
 195 39 195 39 214 54 c 128,-1,11
 233 69 233 69 238 90 c 256,0,1
287 90 m 256,12,13
 278 48 278 48 242 18 c 128,-1,14
 206 -12 206 -12 164 -12 c 0,15,16
 116 -12 116 -12 93 21 c 0,17,18
 75 50 75 50 83 90 c 2,19,-1
 217 716 l 2,20,21
 226 758 226 758 169.5 797 c 128,-1,22
 113 836 113 836 54 838 c 1,23,24
 92 979 92 979 223 979 c 0,25,26
 247 979 247 979 295.5 956 c 128,-1,27
 344 933 344 933 363 933 c 0,28,29
 390 933 390 933 405 970 c 1,30,-1
 447 958 l 1,31,32
 409 883 409 883 360 883 c 0,33,34
 336 883 336 883 284.5 908 c 128,-1,35
 233 933 233 933 208 933 c 0,36,37
 142 933 142 933 125 877 c 1,38,39
 293 824 293 824 269 710 c 2,40,-1
 156 179 l 1,41,42
 179 191 179 191 206 191 c 0,43,44
 248 191 248 191 272 161.5 c 128,-1,45
 296 132 296 132 287 90 c 256,12,13
EndSplineSet
EndChar

StartChar: uni0E43
Encoding: 3651 3651 276
Width: 364
VWidth: 1504
Flags: W
LayerCount: 2
Fore
SplineSet
295 90 m 256,0,1
 286 48 286 48 250 18 c 128,-1,2
 214 -12 214 -12 173 -12 c 0,3,4
 125 -12 125 -12 101 21 c 1,5,6
 83 50 83 50 90 90 c 2,7,-1
 221 705 l 2,8,9
 227 731 227 731 247 764 c 0,10,11
 295 841 295 841 299 859 c 0,12,13
 307 897 307 897 286.5 921 c 128,-1,14
 266 945 266 945 229 945 c 0,15,16
 173 945 173 945 135 910 c 1,17,18
 177 916 177 916 199 892 c 128,-1,19
 221 868 221 868 214 829 c 0,20,21
 206 794 206 794 176.5 770 c 128,-1,22
 147 746 147 746 114 746 c 256,23,24
 81 746 81 746 61 770 c 128,-1,25
 41 794 41 794 51 842 c 0,26,27
 63 904 63 904 115.5 946 c 128,-1,28
 168 988 168 988 242 988 c 0,29,30
 296 988 296 988 332.5 954.5 c 128,-1,31
 369 921 369 921 356 868 c 0,32,33
 350 836 350 836 315 780.5 c 128,-1,34
 280 725 280 725 274 695 c 2,35,-1
 164 179 l 1,36,37
 187 191 187 191 215 191 c 0,38,39
 256 191 256 191 280 161.5 c 128,-1,40
 304 132 304 132 295 90 c 256,0,1
245 90 m 256,41,42
 250 111 250 111 237 126 c 128,-1,43
 224 141 224 141 203 141 c 0,44,45
 183 141 183 141 165 126 c 128,-1,46
 147 111 147 111 143 90 c 256,47,48
 138 69 138 69 149.5 54 c 128,-1,49
 161 39 161 39 182 39 c 256,50,51
 203 39 203 39 221.5 54 c 128,-1,52
 240 69 240 69 245 90 c 256,41,42
173 829 m 0,53,54
 176 846 176 846 167.5 858.5 c 128,-1,55
 159 871 159 871 140 871 c 256,56,57
 120 871 120 871 106 858 c 128,-1,58
 92 845 92 845 89 829 c 0,59,60
 84 812 84 812 93 799.5 c 128,-1,61
 102 787 102 787 122 787 c 256,62,63
 142 787 142 787 155 799.5 c 128,-1,64
 168 812 168 812 173 829 c 0,53,54
EndSplineSet
EndChar

StartChar: uni0E44
Encoding: 3652 3652 277
Width: 367
VWidth: 1504
Flags: W
LayerCount: 2
Fore
SplineSet
298 90 m 256,0,1
 289 48 289 48 253 18 c 128,-1,2
 217 -12 217 -12 176 -12 c 0,3,4
 128 -12 128 -12 104 21 c 1,5,6
 86 50 86 50 93 90 c 2,7,-1
 266 904 l 1,8,-1
 125 748 l 1,9,-1
 80 766 l 1,10,11
 94 867 94 867 95 1000 c 1,12,-1
 141 1000 l 1,13,14
 136 869 136 869 128 803 c 1,15,-1
 290 985 l 1,16,17
 310 983 310 983 320.5 967 c 128,-1,18
 331 951 331 951 326 933 c 2,19,-1
 167 179 l 1,20,21
 190 191 190 191 218 191 c 0,22,23
 259 191 259 191 283 161.5 c 128,-1,24
 307 132 307 132 298 90 c 256,0,1
247 90 m 256,25,26
 252 111 252 111 239.5 126 c 128,-1,27
 227 141 227 141 206 141 c 256,28,29
 185 141 185 141 167 126 c 128,-1,30
 149 111 149 111 144 90 c 256,31,32
 139 69 139 69 151.5 54 c 128,-1,33
 164 39 164 39 185 39 c 256,34,35
 206 39 206 39 224 54 c 128,-1,36
 242 69 242 69 247 90 c 256,25,26
EndSplineSet
EndChar

StartChar: uni0E45
Encoding: 3653 3653 278
Width: 308
VWidth: 1504
Flags: W
LayerCount: 2
Fore
SplineSet
107 -244 m 1,0,1
 89 -315 89 -315 35 -350 c 1,2,-1
 -8 -323 l 1,3,4
 43 -284 43 -284 57 -224 c 2,5,-1
 200 450 l 2,6,7
 209 495 209 495 182 524.5 c 128,-1,8
 155 554 155 554 96 554 c 0,9,10
 43 554 43 554 5 518.5 c 128,-1,11
 -33 483 -33 483 -45 442 c 1,12,-1
 -101 442 l 1,13,14
 -86 505 -86 505 -27 553.5 c 128,-1,15
 32 602 32 602 108 602 c 0,16,17
 195 602 195 602 232 559.5 c 128,-1,18
 269 517 269 517 254 448 c 2,19,-1
 107 -244 l 1,0,1
EndSplineSet
EndChar

StartChar: uni0E46
Encoding: 3654 3654 279
Width: 600
VWidth: 1504
Flags: W
LayerCount: 2
Fore
SplineSet
393 -206 m 1,0,1
 375 -277 375 -277 320 -313 c 1,2,-1
 278 -286 l 1,3,4
 329 -247 329 -247 340 -193 c 2,5,-1
 477 451 l 2,6,7
 494 528 494 528 433 570 c 1,8,-1
 350 516 l 1,9,-1
 280 572 l 1,10,11
 211 545 211 545 188 478 c 1,12,13
 214 493 214 493 238 493 c 0,14,15
 277 493 277 493 298.5 466 c 128,-1,16
 320 439 320 439 311 400 c 0,17,18
 303 361 303 361 270.5 334.5 c 128,-1,19
 238 308 238 308 199 308 c 0,20,21
 152 308 152 308 130 343 c 128,-1,22
 108 378 108 378 116 424 c 0,23,24
 145 577 145 577 296 621 c 1,25,-1
 360 572 l 1,26,-1
 439 621 l 1,27,28
 558 571 558 571 532 451 c 2,29,-1
 393 -206 l 1,0,1
263 400 m 256,30,31
 268 420 268 420 257.5 432.5 c 128,-1,32
 247 445 247 445 227 445 c 256,33,34
 207 445 207 445 193 432.5 c 128,-1,35
 179 420 179 420 174 400 c 256,36,37
 169 380 169 380 179.5 368 c 128,-1,38
 190 356 190 356 209 356 c 256,39,40
 229 356 229 356 243.5 368 c 128,-1,41
 258 380 258 380 263 400 c 256,30,31
EndSplineSet
EndChar

StartChar: uni0E47
Encoding: 3655 3655 280
Width: 0
VWidth: 1504
Flags: W
LayerCount: 2
Fore
SplineSet
17 769 m 0,0,1
 9 736 9 736 -18 714.5 c 128,-1,2
 -45 693 -45 693 -75 693 c 0,3,4
 -138 693 -138 693 -205 758 c 1,5,6
 -249 744 -249 744 -296 692 c 1,7,8
 -347 730 -347 730 -331 809 c 0,9,10
 -307 926 -307 926 -179 927 c 2,11,-1
 -80 927 l 2,12,13
 -6 927 -6 927 21 1035 c 1,14,-1
 72 1035 l 1,15,16
 58 970 58 970 16 926.5 c 128,-1,17
 -26 883 -26 883 -90 883 c 2,18,-1
 -194 883 l 2,19,20
 -266 883 -266 883 -281 814 c 0,21,22
 -287 781 -287 781 -277 755 c 1,23,24
 -230 797 -230 797 -190 803 c 1,25,26
 -169 780 -169 780 -128 749 c 1,27,28
 -126 761 -126 761 -125 769 c 0,29,30
 -119 799 -119 799 -94 819 c 128,-1,31
 -69 839 -69 839 -39 839 c 256,32,33
 -9 839 -9 839 7 818.5 c 128,-1,34
 23 798 23 798 17 769 c 0,0,1
-21 769 m 256,35,36
 -18 783 -18 783 -25.5 792.5 c 128,-1,37
 -33 802 -33 802 -47 802 c 256,38,39
 -61 802 -61 802 -72.5 792 c 128,-1,40
 -84 782 -84 782 -87 769 c 256,41,42
 -90 755 -90 755 -82.5 745.5 c 128,-1,43
 -75 736 -75 736 -62 736 c 256,44,45
 -48 736 -48 736 -36 745.5 c 128,-1,46
 -24 755 -24 755 -21 769 c 256,35,36
EndSplineSet
Substitution2: "<23,16000>  in Thai lookup 65 nested-substitutions 2 subtable" uni0E47.alt1
Substitution2: "Single Substitution lookup 58 subtable" uni0E47.alt1
EndChar

StartChar: uni0E48
Encoding: 3656 3656 281
Width: 0
VWidth: 1504
Flags: W
LayerCount: 2
Fore
SplineSet
68 1023 m 1,0,-1
 18 1023 l 1,1,-1
 54 1190 l 1,2,-1
 104 1190 l 1,3,-1
 68 1023 l 1,0,-1
EndSplineSet
Substitution2: "<23,16000>  in Thai lookup 65 nested-substitutions 5 subtable" uni0E48.alt3
Substitution2: "<23,16000>  in Thai lookup 65 nested-substitutions 3 subtable" uni0E48.alt1
Substitution2: "<23,16000>  in Thai lookup 65 nested-substitutions 2 subtable" uni0E48.alt3
Substitution2: "<23,16000>  in Thai lookup 65 nested-substitutions 0 subtable" uni0E48.alt2
Substitution2: "Single Substitution lookup 58 subtable" uni0E48.alt2
EndChar

StartChar: uni0E49
Encoding: 3657 3657 282
Width: 0
VWidth: 1504
Flags: W
LayerCount: 2
Fore
SplineSet
262 1242 m 1,0,1
 214 1113 214 1113 111 1060 c 0,2,3
 30 1018 30 1018 -96 1018 c 2,4,-1
 -123 1018 l 1,5,-1
 -117 1047 l 1,6,7
 -63 1068 -63 1068 -33 1106 c 1,8,9
 -60 1106 -60 1106 -77.5 1123 c 128,-1,10
 -95 1140 -95 1140 -95 1166 c 0,11,12
 -95 1205 -95 1205 -64 1231.5 c 128,-1,13
 -33 1258 -33 1258 0 1258 c 0,14,15
 26 1258 26 1258 42.5 1240.5 c 128,-1,16
 59 1223 59 1223 59 1196 c 0,17,18
 59 1187 59 1187 57 1181 c 0,19,20
 42 1106 42 1106 -35 1057 c 1,21,22
 146 1072 146 1072 206 1242 c 1,23,-1
 262 1242 l 1,0,1
15 1181 m 256,24,25
 18 1196 18 1196 10.5 1206.5 c 128,-1,26
 3 1217 3 1217 -11 1217 c 0,27,28
 -26 1217 -26 1217 -38.5 1206.5 c 128,-1,29
 -51 1196 -51 1196 -54 1181 c 256,30,31
 -57 1166 -57 1166 -49 1156 c 128,-1,32
 -41 1146 -41 1146 -26 1146 c 256,33,34
 -11 1146 -11 1146 0.5 1156 c 128,-1,35
 12 1166 12 1166 15 1181 c 256,24,25
EndSplineSet
Substitution2: "<23,16000>  in Thai lookup 65 nested-substitutions 5 subtable" uni0E49.alt3
Substitution2: "<23,16000>  in Thai lookup 65 nested-substitutions 3 subtable" uni0E49.alt1
Substitution2: "<23,16000>  in Thai lookup 65 nested-substitutions 2 subtable" uni0E49.alt3
Substitution2: "<23,16000>  in Thai lookup 65 nested-substitutions 0 subtable" uni0E49.alt2
Substitution2: "Single Substitution lookup 58 subtable" uni0E49.alt2
EndChar

StartChar: uni0E4A
Encoding: 3658 3658 283
Width: 0
VWidth: 1504
Flags: W
LayerCount: 2
Fore
SplineSet
-167 1091 m 0,0,1
 -164 1106 -164 1106 -171.5 1116.5 c 128,-1,2
 -179 1127 -179 1127 -194 1127 c 256,3,4
 -209 1127 -209 1127 -222 1116.5 c 128,-1,5
 -235 1106 -235 1106 -238 1091 c 0,6,7
 -243 1076 -243 1076 -233.5 1066 c 128,-1,8
 -224 1056 -224 1056 -209 1056 c 256,9,10
 -194 1056 -194 1056 -183 1066 c 128,-1,11
 -172 1076 -172 1076 -167 1091 c 0,0,1
149 1239 m 1,12,13
 96 1015 96 1015 -114 1015 c 1,14,-1
 -107 1048 l 1,15,16
 -41 1078 -41 1078 -27 1145 c 0,17,18
 -16 1196 -16 1196 -62 1211 c 1,19,-1
 -114 1164 l 1,20,-1
 -146 1211 l 1,21,22
 -163 1209 -163 1209 -187 1194 c 0,23,24
 -205 1182 -205 1182 -215 1163 c 1,25,26
 -207 1166 -207 1166 -200 1167.5 c 128,-1,27
 -193 1169 -193 1169 -185 1169 c 0,28,29
 -153 1169 -153 1169 -136.5 1146.5 c 128,-1,30
 -120 1124 -120 1124 -126 1092 c 0,31,32
 -134 1060 -134 1060 -160.5 1038.5 c 128,-1,33
 -187 1017 -187 1017 -218 1017 c 0,34,35
 -257 1017 -257 1017 -273 1042.5 c 128,-1,36
 -289 1068 -289 1068 -278 1112 c 1,37,38
 -267 1168 -267 1168 -222 1210.5 c 128,-1,39
 -177 1253 -177 1253 -129 1253 c 1,40,-1
 -104 1208 l 1,41,-1
 -60 1253 l 1,42,43
 -16 1251 -16 1251 3.5 1222 c 128,-1,44
 23 1193 23 1193 14 1148 c 0,45,46
 2 1094 2 1094 -38 1059 c 1,47,48
 -2 1062 -2 1062 33 1103 c 1,49,50
 83 1154 83 1154 101 1239 c 1,51,-1
 149 1239 l 1,12,13
EndSplineSet
Substitution2: "<23,16000>  in Thai lookup 65 nested-substitutions 5 subtable" uni0E4A.alt3
Substitution2: "<23,16000>  in Thai lookup 65 nested-substitutions 3 subtable" uni0E4A.alt1
Substitution2: "<23,16000>  in Thai lookup 65 nested-substitutions 2 subtable" uni0E4A.alt3
Substitution2: "<23,16000>  in Thai lookup 65 nested-substitutions 0 subtable" uni0E4A.alt2
Substitution2: "Single Substitution lookup 58 subtable" uni0E4A.alt2
EndChar

StartChar: uni0E4B
Encoding: 3659 3659 284
Width: 0
VWidth: 1504
Flags: W
LayerCount: 2
Fore
SplineSet
158 1082 m 1,0,-1
 78 1082 l 1,1,-1
 66 1023 l 1,2,-1
 20 1023 l 1,3,-1
 32 1082 l 1,4,-1
 -47 1082 l 1,5,-1
 -38 1124 l 1,6,-1
 41 1124 l 1,7,-1
 54 1188 l 1,8,-1
 101 1188 l 1,9,-1
 87 1124 l 1,10,-1
 167 1124 l 1,11,-1
 158 1082 l 1,0,-1
EndSplineSet
Substitution2: "<23,16000>  in Thai lookup 65 nested-substitutions 5 subtable" uni0E4B.alt3
Substitution2: "<23,16000>  in Thai lookup 65 nested-substitutions 3 subtable" uni0E4B.alt1
Substitution2: "<23,16000>  in Thai lookup 65 nested-substitutions 2 subtable" uni0E4B.alt3
Substitution2: "<23,16000>  in Thai lookup 65 nested-substitutions 0 subtable" uni0E4B.alt2
Substitution2: "Single Substitution lookup 58 subtable" uni0E4B.alt2
EndChar

StartChar: uni0E4C
Encoding: 3660 3660 285
Width: 0
VWidth: 1504
Flags: W
LayerCount: 2
Fore
SplineSet
176 1214 m 1,0,1
 161 1166 161 1166 113 1145 c 1,2,3
 86 1131 86 1131 41 1122 c 0,4,5
 -1 1114 -1 1114 -15 1103 c 1,6,7
 15 1100 15 1100 31.5 1078 c 128,-1,8
 48 1056 48 1056 41 1024 c 1,9,10
 35 991 35 991 7.5 969.5 c 128,-1,11
 -20 948 -20 948 -51 948 c 0,12,13
 -84 948 -84 948 -102 969.5 c 128,-1,14
 -120 991 -120 991 -114 1024 c 0,15,16
 -93 1123 -93 1123 14 1152 c 2,17,-1
 84 1172 l 2,18,19
 123 1184 123 1184 129 1214 c 1,20,-1
 176 1214 l 1,0,1
3 1023 m 256,21,22
 6 1038 6 1038 -1.5 1050 c 128,-1,23
 -9 1062 -9 1062 -24 1062 c 0,24,25
 -41 1062 -41 1062 -55 1050 c 128,-1,26
 -69 1038 -69 1038 -72 1023 c 256,27,28
 -75 1008 -75 1008 -66 996 c 128,-1,29
 -57 984 -57 984 -41 984 c 0,30,31
 -26 984 -26 984 -13 996 c 128,-1,32
 0 1008 0 1008 3 1023 c 256,21,22
EndSplineSet
Substitution2: "<23,16000>  in Thai lookup 65 nested-substitutions 5 subtable" uni0E4C.alt3
Substitution2: "<23,16000>  in Thai lookup 65 nested-substitutions 3 subtable" uni0E4C.alt1
Substitution2: "<23,16000>  in Thai lookup 65 nested-substitutions 2 subtable" uni0E4C.alt3
Substitution2: "<23,16000>  in Thai lookup 65 nested-substitutions 0 subtable" uni0E4C.alt2
Substitution2: "Single Substitution lookup 58 subtable" uni0E4C.alt2
EndChar

StartChar: uni0E4D
Encoding: 3661 3661 286
Width: 0
VWidth: 1504
Flags: W
LayerCount: 2
Fore
SplineSet
93 809 m 256,0,1
 82 761 82 761 42.5 728 c 128,-1,2
 3 695 3 695 -44 695 c 0,3,4
 -92 695 -92 695 -119 728 c 128,-1,5
 -146 761 -146 761 -135 809 c 256,6,7
 -124 857 -124 857 -84 891 c 128,-1,8
 -44 925 -44 925 3 925 c 0,9,10
 51 925 51 925 77.5 891 c 128,-1,11
 104 857 104 857 93 809 c 256,0,1
44 809 m 256,12,13
 50 836 50 836 34 855.5 c 128,-1,14
 18 875 18 875 -6 875 c 0,15,16
 -33 875 -33 875 -56.5 855.5 c 128,-1,17
 -80 836 -80 836 -86 809 c 256,18,19
 -92 782 -92 782 -76 763.5 c 128,-1,20
 -60 745 -60 745 -33 745 c 0,21,22
 -7 745 -7 745 15.5 763.5 c 128,-1,23
 38 782 38 782 44 809 c 256,12,13
EndSplineSet
Substitution2: "<23,16000>  in Thai lookup 65 nested-substitutions 2 subtable" uni0E4D.alt1
Substitution2: "Single Substitution lookup 58 subtable" uni0E4D.alt1
EndChar

StartChar: uni0E4E
Encoding: 3662 3662 287
Width: 0
VWidth: 1504
Flags: W
LayerCount: 2
Fore
SplineSet
101 999 m 1,0,-1
 78 961 l 1,1,2
 54 969 54 969 24 969 c 0,3,4
 -44 969 -44 969 -53 922 c 0,5,6
 -64 872 -64 872 9 863 c 1,7,-1
 -11 829 l 1,8,9
 -29 835 -29 835 -47 835 c 0,10,11
 -89 835 -89 835 -119 816 c 128,-1,12
 -149 797 -149 797 -153 775 c 0,13,14
 -162 734 -162 734 -95 734 c 0,15,16
 -75 734 -75 734 -44 746 c 1,17,-1
 -50 708 l 1,18,19
 -82 696 -82 696 -122 696 c 0,20,21
 -160 696 -160 696 -182.5 718 c 128,-1,22
 -205 740 -205 740 -197 776 c 0,23,24
 -189 814 -189 814 -153 839.5 c 128,-1,25
 -117 865 -117 865 -80 865 c 1,26,27
 -107 885 -107 885 -98 922 c 0,28,29
 -80 1009 -80 1009 35 1009 c 0,30,31
 75 1010 75 1010 101 999 c 1,0,-1
EndSplineSet
Substitution2: "<23,16000>  in Thai lookup 65 nested-substitutions 2 subtable" uni0E4E.alt1
Substitution2: "Single Substitution lookup 58 subtable" uni0E4E.alt1
EndChar

StartChar: uni0E4F
Encoding: 3663 3663 288
Width: 676
VWidth: 1504
Flags: W
LayerCount: 2
Fore
SplineSet
421 245 m 0,0,1
 430 284 430 284 408.5 312.5 c 128,-1,2
 387 341 387 341 346 341 c 256,3,4
 305 341 305 341 271.5 312.5 c 128,-1,5
 238 284 238 284 229 245 c 0,6,7
 220 204 220 204 242.5 176.5 c 128,-1,8
 265 149 265 149 305 149 c 256,9,10
 346 149 346 149 379 176.5 c 128,-1,11
 412 204 412 204 421 245 c 0,0,1
474 245 m 256,12,13
 460 183 460 183 407.5 139 c 128,-1,14
 355 95 355 95 293 95 c 256,15,16
 231 95 231 95 196.5 139.5 c 128,-1,17
 162 184 162 184 176 245 c 256,18,19
 190 307 190 307 242.5 350.5 c 128,-1,20
 295 394 295 394 356 394 c 256,21,22
 418 394 418 394 453 350.5 c 128,-1,23
 488 307 488 307 474 245 c 256,12,13
526 245 m 256,24,25
 544 329 544 329 498.5 388 c 128,-1,26
 453 447 453 447 369 447 c 256,27,28
 285 447 285 447 213 388 c 128,-1,29
 141 329 141 329 123 245 c 0,30,31
 105 159 105 159 150.5 100.5 c 128,-1,32
 196 42 196 42 281 42 c 0,33,34
 365 42 365 42 436.5 101.5 c 128,-1,35
 508 161 508 161 526 245 c 256,24,25
579 245 m 0,36,37
 556 138 556 138 466 64.5 c 128,-1,38
 376 -9 376 -9 271 -9 c 0,39,40
 164 -9 164 -9 106 64.5 c 128,-1,41
 48 138 48 138 71 245 c 0,42,43
 94 350 94 350 183 424.5 c 128,-1,44
 272 499 272 499 379 499 c 0,45,46
 483 499 483 499 542.5 424 c 128,-1,47
 602 349 602 349 579 245 c 0,36,37
EndSplineSet
EndChar

StartChar: uni0E50
Encoding: 3664 3664 289
Width: 675
VWidth: 1504
Flags: W
LayerCount: 2
Fore
SplineSet
599 217 m 0,0,1
 579 121 579 121 488 55 c 128,-1,2
 397 -11 397 -11 269 -11 c 256,3,4
 141 -11 141 -11 79.5 54.5 c 128,-1,5
 18 120 18 120 38 217 c 0,6,7
 59 313 59 313 148.5 378.5 c 128,-1,8
 238 444 238 444 366 444 c 256,9,10
 494 444 494 444 557 378.5 c 128,-1,11
 620 313 620 313 599 217 c 0,0,1
539 217 m 256,12,13
 556 294 556 294 506 345.5 c 128,-1,14
 456 397 456 397 355 397 c 256,15,16
 254 397 254 397 182 345 c 128,-1,17
 110 293 110 293 93 217 c 256,18,19
 76 140 76 140 126.5 89 c 128,-1,20
 177 38 177 38 278 38 c 256,21,22
 379 38 379 38 450.5 89 c 128,-1,23
 522 140 522 140 539 217 c 256,12,13
EndSplineSet
EndChar

StartChar: uni0E51
Encoding: 3665 3665 290
Width: 675
VWidth: 1504
Flags: W
LayerCount: 2
Fore
SplineSet
596 187 m 0,0,1
 567 50 567 50 475 -29 c 1,2,-1
 409 -29 l 1,3,4
 510 42 510 42 539 176 c 0,5,6
 560 272 560 272 509.5 334 c 128,-1,7
 459 396 459 396 341 396 c 0,8,9
 252 396 252 396 178 341.5 c 128,-1,10
 104 287 104 287 86 200 c 0,11,12
 71 128 71 128 103 82 c 128,-1,13
 135 36 135 36 202 36 c 0,14,15
 288 36 288 36 340 114 c 1,16,17
 310 102 310 102 286 102 c 0,18,19
 242 102 242 102 219.5 130 c 128,-1,20
 197 158 197 158 206 200 c 0,21,22
 215 244 215 244 252.5 272.5 c 128,-1,23
 290 301 290 301 331 301 c 0,24,25
 382 301 382 301 403 266.5 c 128,-1,26
 424 232 424 232 414 182 c 0,27,28
 399 108 399 108 343 53 c 0,29,30
 278 -12 278 -12 177 -12 c 0,31,32
 90 -12 90 -12 50 54 c 0,33,34
 14 114 14 114 32 202 c 0,35,36
 56 315 56 315 148.5 378.5 c 128,-1,37
 241 442 241 442 350 442 c 0,38,39
 494 442 494 442 556.5 369.5 c 128,-1,40
 619 297 619 297 596 187 c 0,0,1
367 200 m 0,41,42
 372 226 372 226 359 242.5 c 128,-1,43
 346 259 346 259 320 259 c 256,44,45
 294 259 294 259 275 242.5 c 128,-1,46
 256 226 256 226 251 200 c 0,47,48
 245 174 245 174 258 158.5 c 128,-1,49
 271 143 271 143 296 143 c 256,50,51
 322 143 322 143 341.5 158.5 c 128,-1,52
 361 174 361 174 367 200 c 0,41,42
EndSplineSet
EndChar

StartChar: uni0E52
Encoding: 3666 3666 291
Width: 675
VWidth: 1504
Flags: W
LayerCount: 2
Fore
SplineSet
606 220 m 0,0,1
 555 -18 555 -18 286 -18 c 0,2,3
 -4 -18 -4 -18 42 209 c 2,4,-1
 123 594 l 2,5,6
 134 638 134 638 95 639 c 1,7,-1
 105 692 l 1,8,9
 195 684 195 684 176 594 c 2,10,-1
 93 202 l 2,11,12
 57 32 57 32 298 32 c 0,13,14
 513 32 513 32 551 212 c 0,15,16
 571 304 571 304 560 353 c 0,17,18
 551 394 551 394 525 394 c 0,19,20
 493 394 493 394 467.5 368.5 c 128,-1,21
 442 343 442 343 432 307 c 1,22,-1
 397 307 l 1,23,24
 403 396 403 396 340 396 c 0,25,26
 268 396 268 396 242 323 c 1,27,28
 254 329 254 329 281 329 c 0,29,30
 319 329 319 329 341 301.5 c 128,-1,31
 363 274 363 274 355 236 c 256,32,33
 347 198 347 198 312.5 170.5 c 128,-1,34
 278 143 278 143 242 143 c 0,35,36
 198 143 198 143 176.5 177.5 c 128,-1,37
 155 212 155 212 168 272 c 0,38,39
 183 344 183 344 230.5 393 c 128,-1,40
 278 442 278 442 347 442 c 0,41,42
 415 442 415 442 429 370 c 1,43,44
 468 442 468 442 531 442 c 0,45,46
 584 442 584 442 606 390 c 1,47,48
 629 331 629 331 606 220 c 0,0,1
311 236 m 0,49,50
 316 257 316 257 304.5 271.5 c 128,-1,51
 293 286 293 286 272 286 c 0,52,53
 252 286 252 286 234.5 271.5 c 128,-1,54
 217 257 217 257 212 236 c 0,55,56
 207 216 207 216 219.5 201.5 c 128,-1,57
 232 187 232 187 251 187 c 0,58,59
 272 187 272 187 289 201.5 c 128,-1,60
 306 216 306 216 311 236 c 0,49,50
EndSplineSet
EndChar

StartChar: uni0E53
Encoding: 3667 3667 292
Width: 675
VWidth: 1504
Flags: W
LayerCount: 2
Fore
SplineSet
560 0 m 1,0,-1
 507 0 l 1,1,-1
 566 283 l 2,2,3
 578 334 578 334 561.5 365.5 c 128,-1,4
 545 397 545 397 505 397 c 0,5,6
 470 397 470 397 435 359.5 c 128,-1,7
 400 322 400 322 391 277 c 2,8,-1
 332 0 l 1,9,-1
 277 0 l 1,10,-1
 335 278 l 2,11,12
 344 323 344 323 315 360 c 128,-1,13
 286 397 286 397 242 397 c 0,14,15
 186 397 186 397 141 343 c 0,16,17
 102 295 102 295 86 215 c 0,18,19
 80 189 80 189 80 164 c 1,20,21
 109 196 109 196 156 196 c 0,22,23
 197 196 197 196 219.5 165.5 c 128,-1,24
 242 135 242 135 233 95 c 256,25,26
 224 54 224 54 189.5 25.5 c 128,-1,27
 155 -3 155 -3 107 -3 c 0,28,29
 50 -3 50 -3 29.5 53.5 c 128,-1,30
 9 110 9 110 29 202 c 0,31,32
 80 443 80 443 256 442 c 0,33,34
 358 442 358 442 378 347 c 1,35,36
 432 442 432 442 514 442 c 0,37,38
 577 442 577 442 606 401 c 128,-1,39
 635 360 635 360 620 287 c 2,40,-1
 560 0 l 1,0,-1
187 96 m 0,41,42
 193 120 193 120 179 136.5 c 128,-1,43
 165 153 165 153 141 153 c 256,44,45
 117 153 117 153 97.5 136.5 c 128,-1,46
 78 120 78 120 72 96 c 0,47,48
 67 72 67 72 80 55.5 c 128,-1,49
 93 39 93 39 117 39 c 256,50,51
 141 39 141 39 161.5 55.5 c 128,-1,52
 182 72 182 72 187 96 c 0,41,42
EndSplineSet
EndChar

StartChar: uni0E54
Encoding: 3668 3668 293
Width: 675
VWidth: 1504
Flags: W
LayerCount: 2
Fore
SplineSet
375 220 m 1,0,1
 380 244 380 244 367.5 260.5 c 128,-1,2
 355 277 355 277 331 277 c 256,3,4
 307 277 307 277 287.5 259.5 c 128,-1,5
 268 242 268 242 263 220 c 0,6,7
 257 196 257 196 270 179 c 128,-1,8
 283 162 283 162 305 162 c 256,9,10
 328 162 328 162 348.5 179.5 c 128,-1,11
 369 197 369 197 375 220 c 1,0,1
555 -17 m 1,12,13
 481 19 481 19 429 20 c 0,14,15
 394 20 394 20 319 5 c 0,16,17
 239 -10 239 -10 182 -12 c 0,18,19
 86 -15 86 -15 43 44.5 c 128,-1,20
 0 104 0 104 23 206 c 0,21,22
 47 320 47 320 137 382.5 c 128,-1,23
 227 445 227 445 356 445 c 0,24,25
 500 445 500 445 557 468 c 0,26,27
 662 513 662 513 704 623 c 1,28,-1
 755 623 l 1,29,30
 687 465 687 465 561 418 c 0,31,32
 498 395 498 395 344 396 c 0,33,34
 121 396 121 396 81 202 c 0,35,36
 64 124 64 124 93.5 78.5 c 128,-1,37
 123 33 123 33 191 33 c 0,38,39
 278 33 278 33 361 56 c 1,40,41
 190 104 190 104 218 224 c 0,42,43
 229 266 229 266 264 292.5 c 128,-1,44
 299 319 299 319 340 319 c 0,45,46
 384 319 384 319 405.5 291 c 128,-1,47
 427 263 427 263 418 220 c 0,48,49
 410 188 410 188 383 159.5 c 128,-1,50
 356 131 356 131 323 125 c 1,51,52
 356 98 356 98 429 81 c 0,53,54
 467 72 467 72 515.5 58 c 128,-1,55
 564 44 564 44 591 27 c 1,56,-1
 555 -17 l 1,12,13
EndSplineSet
EndChar

StartChar: uni0E55
Encoding: 3669 3669 294
Width: 675
VWidth: 1504
Flags: W
LayerCount: 2
Fore
SplineSet
469 534 m 256,0,1
 474 555 474 555 461 571 c 128,-1,2
 448 587 448 587 427 587 c 256,3,4
 406 587 406 587 388 571 c 128,-1,5
 370 555 370 555 366 534 c 0,6,7
 361 514 361 514 374 498.5 c 128,-1,8
 387 483 387 483 406 483 c 0,9,10
 427 483 427 483 445.5 498 c 128,-1,11
 464 513 464 513 469 534 c 256,0,1
375 220 m 1,12,13
 380 244 380 244 367.5 260.5 c 128,-1,14
 355 277 355 277 331 277 c 256,15,16
 307 277 307 277 287.5 259.5 c 128,-1,17
 268 242 268 242 263 220 c 0,18,19
 257 196 257 196 270 179 c 128,-1,20
 283 162 283 162 305 162 c 256,21,22
 328 162 328 162 348.5 179.5 c 128,-1,23
 369 197 369 197 375 220 c 1,12,13
555 -17 m 1,24,25
 481 19 481 19 429 20 c 0,26,27
 394 20 394 20 319 5 c 0,28,29
 239 -10 239 -10 182 -12 c 0,30,31
 86 -15 86 -15 43 44.5 c 128,-1,32
 0 104 0 104 23 206 c 0,33,34
 47 320 47 320 137 382.5 c 128,-1,35
 227 445 227 445 360 445 c 1,36,37
 307 471 307 471 320 534 c 0,38,39
 329 575 329 575 364 603.5 c 128,-1,40
 399 632 399 632 438 632 c 0,41,42
 479 632 479 632 501 603.5 c 128,-1,43
 523 575 523 575 514 534 c 0,44,45
 500 472 500 472 439 447 c 1,46,47
 519 453 519 453 557 468 c 0,48,49
 662 513 662 513 704 623 c 1,50,-1
 755 623 l 1,51,52
 687 465 687 465 561 418 c 0,53,54
 498 395 498 395 344 396 c 0,55,56
 121 396 121 396 81 202 c 0,57,58
 64 124 64 124 93.5 78.5 c 128,-1,59
 123 33 123 33 191 33 c 0,60,61
 278 33 278 33 361 56 c 1,62,63
 190 104 190 104 218 224 c 0,64,65
 229 266 229 266 264 292.5 c 128,-1,66
 299 319 299 319 340 319 c 0,67,68
 384 319 384 319 405.5 291 c 128,-1,69
 427 263 427 263 418 220 c 0,70,71
 410 188 410 188 383 159.5 c 128,-1,72
 356 131 356 131 323 125 c 1,73,74
 356 98 356 98 429 81 c 0,75,76
 467 72 467 72 515.5 58 c 128,-1,77
 564 44 564 44 591 27 c 1,78,-1
 555 -17 l 1,24,25
EndSplineSet
EndChar

StartChar: uni0E56
Encoding: 3670 3670 295
Width: 675
VWidth: 1504
Flags: W
LayerCount: 2
Fore
SplineSet
617 232 m 0,0,1
 567 -12 567 -12 266 -12 c 0,2,3
 156 -12 156 -12 106 26.5 c 128,-1,4
 56 65 56 65 69 128 c 0,5,6
 78 172 78 172 113.5 200.5 c 128,-1,7
 149 229 149 229 191 229 c 0,8,9
 235 229 235 229 257.5 200 c 128,-1,10
 280 171 280 171 271 128 c 0,11,12
 257 71 257 71 205 42 c 1,13,14
 250 36 250 36 290 36 c 0,15,16
 404 38 404 38 472 83 c 128,-1,17
 540 128 540 128 561 229 c 0,18,19
 576 304 576 304 525.5 350 c 128,-1,20
 475 396 475 396 375 396 c 0,21,22
 214 396 214 396 108 283 c 1,23,24
 149 512 149 512 93 623 c 1,25,-1
 158 623 l 1,26,27
 194 518 194 518 165 379 c 1,28,29
 258 442 258 442 373 442 c 0,30,31
 510 442 510 442 573 390 c 1,32,33
 638 333 638 333 617 232 c 0,0,1
229 128 m 0,34,35
 234 154 234 154 221 170.5 c 128,-1,36
 208 187 208 187 182 187 c 256,37,38
 156 187 156 187 136.5 170 c 128,-1,39
 117 153 117 153 113 128 c 0,40,41
 107 102 107 102 119 86.5 c 128,-1,42
 131 71 131 71 156 71 c 256,43,44
 182 71 182 71 202.5 86.5 c 128,-1,45
 223 102 223 102 229 128 c 0,34,35
EndSplineSet
EndChar

